<svg version="1.1" xmlns="http://www.w3.org/2000/svg" xmlns:xlink="http://www.w3.org/1999/xlink" width="764" height="700"><defs><clipPath id="bmKsQRwlNzaz"><path fill="none" stroke="none" d=" M 0 0 L 764 0 L 764 700 L 0 700 L 0 0 Z"/></clipPath></defs><g transform="scale(1,1)" clip-path="url(#bmKsQRwlNzaz)"><g><rect fill="rgb(255,255,255)" stroke="none" x="0" y="0" width="764" height="700" fill-opacity="1"/><path fill="none" stroke="rgb(192,192,192)" paint-order="fill stroke markers" d=" M 31.5 0.5 L 31.5 700.5 M 31.5 0.5 L 31.5 700.5 M 94.5 0.5 L 94.5 700.5 M 220.5 0.5 L 220.5 700.5 M 283.5 0.5 L 283.5 700.5 M 346.5 0.5 L 346.5 700.5 M 410.5 0.5 L 410.5 700.5 M 473.5 0.5 L 473.5 700.5 M 536.5 0.5 L 536.5 700.5 M 599.5 0.5 L 599.5 700.5 M 662.5 0.5 L 662.5 700.5 M 725.5 0.5 L 725.5 700.5" stroke-opacity="1" stroke-linecap="round" stroke-linejoin="round" stroke-miterlimit="10"/><path fill="none" stroke="rgb(192,192,192)" paint-order="fill stroke markers" d=" M 5.5 0.5 L 5.5 700.5 M 18.5 0.5 L 18.5 700.5 M 43.5 0.5 L 43.5 700.5 M 56.5 0.5 L 56.5 700.5 M 69.5 0.5 L 69.5 700.5 M 81.5 0.5 L 81.5 700.5 M 107.5 0.5 L 107.5 700.5 M 119.5 0.5 L 119.5 700.5 M 132.5 0.5 L 132.5 700.5 M 144.5 0.5 L 144.5 700.5 M 170.5 0.5 L 170.5 700.5 M 182.5 0.5 L 182.5 700.5 M 195.5 0.5 L 195.5 700.5 M 208.5 0.5 L 208.5 700.5 M 233.5 0.5 L 233.5 700.5 M 245.5 0.5 L 245.5 700.5 M 258.5 0.5 L 258.5 700.5 M 271.5 0.5 L 271.5 700.5 M 296.5 0.5 L 296.5 700.5 M 309.5 0.5 L 309.5 700.5 M 321.5 0.5 L 321.5 700.5 M 334.5 0.5 L 334.5 700.5 M 359.5 0.5 L 359.5 700.5 M 372.5 0.5 L 372.5 700.5 M 384.5 0.5 L 384.5 700.5 M 397.5 0.5 L 397.5 700.5 M 422.5 0.5 L 422.5 700.5 M 435.5 0.5 L 435.5 700.5 M 448.5 0.5 L 448.5 700.5 M 460.5 0.5 L 460.5 700.5 M 485.5 0.5 L 485.5 700.5 M 498.5 0.5 L 498.5 700.5 M 511.5 0.5 L 511.5 700.5 M 523.5 0.5 L 523.5 700.5 M 549.5 0.5 L 549.5 700.5 M 561.5 0.5 L 561.5 700.5 M 574.5 0.5 L 574.5 700.5 M 586.5 0.5 L 586.5 700.5 M 612.5 0.5 L 612.5 700.5 M 624.5 0.5 L 624.5 700.5 M 637.5 0.5 L 637.5 700.5 M 650.5 0.5 L 650.5 700.5 M 675.5 0.5 L 675.5 700.5 M 687.5 0.5 L 687.5 700.5 M 700.5 0.5 L 700.5 700.5 M 713.5 0.5 L 713.5 700.5 M 738.5 0.5 L 738.5 700.5 M 751.5 0.5 L 751.5 700.5 M 763.5 0.5 L 763.5 700.5" stroke-opacity="0.23529411764705882" stroke-linecap="round" stroke-linejoin="round" stroke-miterlimit="10"/><path fill="none" stroke="rgb(192,192,192)" paint-order="fill stroke markers" d=" M 0.5 19.5 L 764.5 19.5 M 0.5 19.5 L 764.5 19.5 M 0.5 83.5 L 764.5 83.5 M 0.5 146.5 L 764.5 146.5 M 0.5 209.5 L 764.5 209.5 M 0.5 272.5 L 764.5 272.5 M 0.5 335.5 L 764.5 335.5 M 0.5 398.5 L 764.5 398.5 M 0.5 461.5 L 764.5 461.5 M 0.5 525.5 L 764.5 525.5 M 0.5 588.5 L 764.5 588.5" stroke-opacity="1" stroke-linecap="round" stroke-linejoin="round" stroke-miterlimit="10"/><path fill="none" stroke="rgb(192,192,192)" paint-order="fill stroke markers" d=" M 0.5 7.5 L 764.5 7.5 M 0.5 7.5 L 764.5 7.5 M 0.5 32.5 L 764.5 32.5 M 0.5 45.5 L 764.5 45.5 M 0.5 57.5 L 764.5 57.5 M 0.5 70.5 L 764.5 70.5 M 0.5 95.5 L 764.5 95.5 M 0.5 108.5 L 764.5 108.5 M 0.5 120.5 L 764.5 120.5 M 0.5 133.5 L 764.5 133.5 M 0.5 158.5 L 764.5 158.5 M 0.5 171.5 L 764.5 171.5 M 0.5 184.5 L 764.5 184.5 M 0.5 196.5 L 764.5 196.5 M 0.5 221.5 L 764.5 221.5 M 0.5 234.5 L 764.5 234.5 M 0.5 247.5 L 764.5 247.5 M 0.5 259.5 L 764.5 259.5 M 0.5 285.5 L 764.5 285.5 M 0.5 297.5 L 764.5 297.5 M 0.5 310.5 L 764.5 310.5 M 0.5 323.5 L 764.5 323.5 M 0.5 348.5 L 764.5 348.5 M 0.5 360.5 L 764.5 360.5 M 0.5 373.5 L 764.5 373.5 M 0.5 386.5 L 764.5 386.5 M 0.5 411.5 L 764.5 411.5 M 0.5 424.5 L 764.5 424.5 M 0.5 436.5 L 764.5 436.5 M 0.5 449.5 L 764.5 449.5 M 0.5 474.5 L 764.5 474.5 M 0.5 487.5 L 764.5 487.5 M 0.5 499.5 L 764.5 499.5 M 0.5 512.5 L 764.5 512.5 M 0.5 537.5 L 764.5 537.5 M 0.5 550.5 L 764.5 550.5 M 0.5 562.5 L 764.5 562.5 M 0.5 575.5 L 764.5 575.5 M 0.5 600.5 L 764.5 600.5 M 0.5 613.5 L 764.5 613.5 M 0.5 626.5 L 764.5 626.5 M 0.5 638.5 L 764.5 638.5 M 0.5 663.5 L 764.5 663.5 M 0.5 676.5 L 764.5 676.5 M 0.5 689.5 L 764.5 689.5" stroke-opacity="0.23529411764705882" stroke-linecap="round" stroke-linejoin="round" stroke-miterlimit="10"/><path fill="none" stroke="rgb(0,0,0)" paint-order="fill stroke markers" d=" M 157.5 2.5 L 157.5 700.5" stroke-opacity="1" stroke-miterlimit="10"/><path fill="none" stroke="rgb(0,0,0)" paint-order="fill stroke markers" d=" M 157.5 1.5 L 153.5 5.5" stroke-opacity="1" stroke-miterlimit="10"/><path fill="none" stroke="rgb(0,0,0)" paint-order="fill stroke markers" d=" M 157.5 1.5 L 161.5 5.5" stroke-opacity="1" stroke-miterlimit="10"/><path fill="none" stroke="rgb(0,0,0)" paint-order="fill stroke markers" d=" M 0.5 651.5 L 762.5 651.5" stroke-opacity="1" stroke-miterlimit="10"/><path fill="none" stroke="rgb(0,0,0)" paint-order="fill stroke markers" d=" M 763.5 651.5 L 759.5 647.5" stroke-opacity="1" stroke-miterlimit="10"/><path fill="none" stroke="rgb(0,0,0)" paint-order="fill stroke markers" d=" M 763.5 651.5 L 759.5 655.5" stroke-opacity="1" stroke-miterlimit="10"/><text fill="rgb(0,0,0)" stroke="none" font-family="geogebra-sans-serif, sans-serif" font-size="12px" font-style="normal" font-weight="normal" text-decoration="normal" x="26" y="667" text-anchor="start" dominant-baseline="alphabetic" fill-opacity="1">–1</text><text fill="none" stroke="rgb(255,255,255)" font-family="geogebra-sans-serif, sans-serif" font-size="12px" font-style="normal" font-weight="normal" text-decoration="normal" x="26" y="667" text-anchor="start" dominant-baseline="alphabetic" stroke-opacity="1" stroke-linejoin="bevel" stroke-miterlimit="10" stroke-width="3">–1</text><text fill="rgb(0,0,0)" stroke="none" font-family="geogebra-sans-serif, sans-serif" font-size="12px" font-style="normal" font-weight="normal" text-decoration="normal" x="26" y="667" text-anchor="start" dominant-baseline="alphabetic" fill-opacity="1">–1</text><text fill="rgb(0,0,0)" stroke="none" font-family="geogebra-sans-serif, sans-serif" font-size="12px" font-style="normal" font-weight="normal" text-decoration="normal" x="83" y="667" text-anchor="start" dominant-baseline="alphabetic" fill-opacity="1">–0.5</text><text fill="none" stroke="rgb(255,255,255)" font-family="geogebra-sans-serif, sans-serif" font-size="12px" font-style="normal" font-weight="normal" text-decoration="normal" x="83" y="667" text-anchor="start" dominant-baseline="alphabetic" stroke-opacity="1" stroke-linejoin="bevel" stroke-miterlimit="10" stroke-width="3">–0.5</text><text fill="rgb(0,0,0)" stroke="none" font-family="geogebra-sans-serif, sans-serif" font-size="12px" font-style="normal" font-weight="normal" text-decoration="normal" x="83" y="667" text-anchor="start" dominant-baseline="alphabetic" fill-opacity="1">–0.5</text><text fill="rgb(0,0,0)" stroke="none" font-family="geogebra-sans-serif, sans-serif" font-size="12px" font-style="normal" font-weight="normal" text-decoration="normal" x="212" y="667" text-anchor="start" dominant-baseline="alphabetic" fill-opacity="1">0.5</text><text fill="none" stroke="rgb(255,255,255)" font-family="geogebra-sans-serif, sans-serif" font-size="12px" font-style="normal" font-weight="normal" text-decoration="normal" x="212" y="667" text-anchor="start" dominant-baseline="alphabetic" stroke-opacity="1" stroke-linejoin="bevel" stroke-miterlimit="10" stroke-width="3">0.5</text><text fill="rgb(0,0,0)" stroke="none" font-family="geogebra-sans-serif, sans-serif" font-size="12px" font-style="normal" font-weight="normal" text-decoration="normal" x="212" y="667" text-anchor="start" dominant-baseline="alphabetic" fill-opacity="1">0.5</text><text fill="rgb(0,0,0)" stroke="none" font-family="geogebra-sans-serif, sans-serif" font-size="12px" font-style="normal" font-weight="normal" text-decoration="normal" x="281" y="667" text-anchor="start" dominant-baseline="alphabetic" fill-opacity="1">1</text><text fill="none" stroke="rgb(255,255,255)" font-family="geogebra-sans-serif, sans-serif" font-size="12px" font-style="normal" font-weight="normal" text-decoration="normal" x="281" y="667" text-anchor="start" dominant-baseline="alphabetic" stroke-opacity="1" stroke-linejoin="bevel" stroke-miterlimit="10" stroke-width="3">1</text><text fill="rgb(0,0,0)" stroke="none" font-family="geogebra-sans-serif, sans-serif" font-size="12px" font-style="normal" font-weight="normal" text-decoration="normal" x="281" y="667" text-anchor="start" dominant-baseline="alphabetic" fill-opacity="1">1</text><text fill="rgb(0,0,0)" stroke="none" font-family="geogebra-sans-serif, sans-serif" font-size="12px" font-style="normal" font-weight="normal" text-decoration="normal" x="338" y="667" text-anchor="start" dominant-baseline="alphabetic" fill-opacity="1">1.5</text><text fill="none" stroke="rgb(255,255,255)" font-family="geogebra-sans-serif, sans-serif" font-size="12px" font-style="normal" font-weight="normal" text-decoration="normal" x="338" y="667" text-anchor="start" dominant-baseline="alphabetic" stroke-opacity="1" stroke-linejoin="bevel" stroke-miterlimit="10" stroke-width="3">1.5</text><text fill="rgb(0,0,0)" stroke="none" font-family="geogebra-sans-serif, sans-serif" font-size="12px" font-style="normal" font-weight="normal" text-decoration="normal" x="338" y="667" text-anchor="start" dominant-baseline="alphabetic" fill-opacity="1">1.5</text><text fill="rgb(0,0,0)" stroke="none" font-family="geogebra-sans-serif, sans-serif" font-size="12px" font-style="normal" font-weight="normal" text-decoration="normal" x="408" y="667" text-anchor="start" dominant-baseline="alphabetic" fill-opacity="1">2</text><text fill="none" stroke="rgb(255,255,255)" font-family="geogebra-sans-serif, sans-serif" font-size="12px" font-style="normal" font-weight="normal" text-decoration="normal" x="408" y="667" text-anchor="start" dominant-baseline="alphabetic" stroke-opacity="1" stroke-linejoin="bevel" stroke-miterlimit="10" stroke-width="3">2</text><text fill="rgb(0,0,0)" stroke="none" font-family="geogebra-sans-serif, sans-serif" font-size="12px" font-style="normal" font-weight="normal" text-decoration="normal" x="408" y="667" text-anchor="start" dominant-baseline="alphabetic" fill-opacity="1">2</text><text fill="rgb(0,0,0)" stroke="none" font-family="geogebra-sans-serif, sans-serif" font-size="12px" font-style="normal" font-weight="normal" text-decoration="normal" x="465" y="667" text-anchor="start" dominant-baseline="alphabetic" fill-opacity="1">2.5</text><text fill="none" stroke="rgb(255,255,255)" font-family="geogebra-sans-serif, sans-serif" font-size="12px" font-style="normal" font-weight="normal" text-decoration="normal" x="465" y="667" text-anchor="start" dominant-baseline="alphabetic" stroke-opacity="1" stroke-linejoin="bevel" stroke-miterlimit="10" stroke-width="3">2.5</text><text fill="rgb(0,0,0)" stroke="none" font-family="geogebra-sans-serif, sans-serif" font-size="12px" font-style="normal" font-weight="normal" text-decoration="normal" x="465" y="667" text-anchor="start" dominant-baseline="alphabetic" fill-opacity="1">2.5</text><text fill="rgb(0,0,0)" stroke="none" font-family="geogebra-sans-serif, sans-serif" font-size="12px" font-style="normal" font-weight="normal" text-decoration="normal" x="534" y="667" text-anchor="start" dominant-baseline="alphabetic" fill-opacity="1">3</text><text fill="none" stroke="rgb(255,255,255)" font-family="geogebra-sans-serif, sans-serif" font-size="12px" font-style="normal" font-weight="normal" text-decoration="normal" x="534" y="667" text-anchor="start" dominant-baseline="alphabetic" stroke-opacity="1" stroke-linejoin="bevel" stroke-miterlimit="10" stroke-width="3">3</text><text fill="rgb(0,0,0)" stroke="none" font-family="geogebra-sans-serif, sans-serif" font-size="12px" font-style="normal" font-weight="normal" text-decoration="normal" x="534" y="667" text-anchor="start" dominant-baseline="alphabetic" fill-opacity="1">3</text><text fill="rgb(0,0,0)" stroke="none" font-family="geogebra-sans-serif, sans-serif" font-size="12px" font-style="normal" font-weight="normal" text-decoration="normal" x="591" y="667" text-anchor="start" dominant-baseline="alphabetic" fill-opacity="1">3.5</text><text fill="none" stroke="rgb(255,255,255)" font-family="geogebra-sans-serif, sans-serif" font-size="12px" font-style="normal" font-weight="normal" text-decoration="normal" x="591" y="667" text-anchor="start" dominant-baseline="alphabetic" stroke-opacity="1" stroke-linejoin="bevel" stroke-miterlimit="10" stroke-width="3">3.5</text><text fill="rgb(0,0,0)" stroke="none" font-family="geogebra-sans-serif, sans-serif" font-size="12px" font-style="normal" font-weight="normal" text-decoration="normal" x="591" y="667" text-anchor="start" dominant-baseline="alphabetic" fill-opacity="1">3.5</text><text fill="rgb(0,0,0)" stroke="none" font-family="geogebra-sans-serif, sans-serif" font-size="12px" font-style="normal" font-weight="normal" text-decoration="normal" x="660" y="667" text-anchor="start" dominant-baseline="alphabetic" fill-opacity="1">4</text><text fill="none" stroke="rgb(255,255,255)" font-family="geogebra-sans-serif, sans-serif" font-size="12px" font-style="normal" font-weight="normal" text-decoration="normal" x="660" y="667" text-anchor="start" dominant-baseline="alphabetic" stroke-opacity="1" stroke-linejoin="bevel" stroke-miterlimit="10" stroke-width="3">4</text><text fill="rgb(0,0,0)" stroke="none" font-family="geogebra-sans-serif, sans-serif" font-size="12px" font-style="normal" font-weight="normal" text-decoration="normal" x="660" y="667" text-anchor="start" dominant-baseline="alphabetic" fill-opacity="1">4</text><text fill="rgb(0,0,0)" stroke="none" font-family="geogebra-sans-serif, sans-serif" font-size="12px" font-style="normal" font-weight="normal" text-decoration="normal" x="717" y="667" text-anchor="start" dominant-baseline="alphabetic" fill-opacity="1">4.5</text><text fill="none" stroke="rgb(255,255,255)" font-family="geogebra-sans-serif, sans-serif" font-size="12px" font-style="normal" font-weight="normal" text-decoration="normal" x="717" y="667" text-anchor="start" dominant-baseline="alphabetic" stroke-opacity="1" stroke-linejoin="bevel" stroke-miterlimit="10" stroke-width="3">4.5</text><text fill="rgb(0,0,0)" stroke="none" font-family="geogebra-sans-serif, sans-serif" font-size="12px" font-style="normal" font-weight="normal" text-decoration="normal" x="717" y="667" text-anchor="start" dominant-baseline="alphabetic" fill-opacity="1">4.5</text><text fill="rgb(0,0,0)" stroke="none" font-family="geogebra-sans-serif, sans-serif" font-size="12px" font-style="normal" font-weight="normal" text-decoration="normal" x="133" y="593" text-anchor="start" dominant-baseline="alphabetic" fill-opacity="1">0.5</text><text fill="none" stroke="rgb(255,255,255)" font-family="geogebra-sans-serif, sans-serif" font-size="12px" font-style="normal" font-weight="normal" text-decoration="normal" x="133" y="593" text-anchor="start" dominant-baseline="alphabetic" stroke-opacity="1" stroke-linejoin="bevel" stroke-miterlimit="10" stroke-width="3">0.5</text><text fill="rgb(0,0,0)" stroke="none" font-family="geogebra-sans-serif, sans-serif" font-size="12px" font-style="normal" font-weight="normal" text-decoration="normal" x="133" y="593" text-anchor="start" dominant-baseline="alphabetic" fill-opacity="1">0.5</text><text fill="rgb(0,0,0)" stroke="none" font-family="geogebra-sans-serif, sans-serif" font-size="12px" font-style="normal" font-weight="normal" text-decoration="normal" x="143" y="530" text-anchor="start" dominant-baseline="alphabetic" fill-opacity="1">1</text><text fill="none" stroke="rgb(255,255,255)" font-family="geogebra-sans-serif, sans-serif" font-size="12px" font-style="normal" font-weight="normal" text-decoration="normal" x="143" y="530" text-anchor="start" dominant-baseline="alphabetic" stroke-opacity="1" stroke-linejoin="bevel" stroke-miterlimit="10" stroke-width="3">1</text><text fill="rgb(0,0,0)" stroke="none" font-family="geogebra-sans-serif, sans-serif" font-size="12px" font-style="normal" font-weight="normal" text-decoration="normal" x="143" y="530" text-anchor="start" dominant-baseline="alphabetic" fill-opacity="1">1</text><text fill="rgb(0,0,0)" stroke="none" font-family="geogebra-sans-serif, sans-serif" font-size="12px" font-style="normal" font-weight="normal" text-decoration="normal" x="133" y="466" text-anchor="start" dominant-baseline="alphabetic" fill-opacity="1">1.5</text><text fill="none" stroke="rgb(255,255,255)" font-family="geogebra-sans-serif, sans-serif" font-size="12px" font-style="normal" font-weight="normal" text-decoration="normal" x="133" y="466" text-anchor="start" dominant-baseline="alphabetic" stroke-opacity="1" stroke-linejoin="bevel" stroke-miterlimit="10" stroke-width="3">1.5</text><text fill="rgb(0,0,0)" stroke="none" font-family="geogebra-sans-serif, sans-serif" font-size="12px" font-style="normal" font-weight="normal" text-decoration="normal" x="133" y="466" text-anchor="start" dominant-baseline="alphabetic" fill-opacity="1">1.5</text><text fill="rgb(0,0,0)" stroke="none" font-family="geogebra-sans-serif, sans-serif" font-size="12px" font-style="normal" font-weight="normal" text-decoration="normal" x="143" y="403" text-anchor="start" dominant-baseline="alphabetic" fill-opacity="1">2</text><text fill="none" stroke="rgb(255,255,255)" font-family="geogebra-sans-serif, sans-serif" font-size="12px" font-style="normal" font-weight="normal" text-decoration="normal" x="143" y="403" text-anchor="start" dominant-baseline="alphabetic" stroke-opacity="1" stroke-linejoin="bevel" stroke-miterlimit="10" stroke-width="3">2</text><text fill="rgb(0,0,0)" stroke="none" font-family="geogebra-sans-serif, sans-serif" font-size="12px" font-style="normal" font-weight="normal" text-decoration="normal" x="143" y="403" text-anchor="start" dominant-baseline="alphabetic" fill-opacity="1">2</text><text fill="rgb(0,0,0)" stroke="none" font-family="geogebra-sans-serif, sans-serif" font-size="12px" font-style="normal" font-weight="normal" text-decoration="normal" x="133" y="340" text-anchor="start" dominant-baseline="alphabetic" fill-opacity="1">2.5</text><text fill="none" stroke="rgb(255,255,255)" font-family="geogebra-sans-serif, sans-serif" font-size="12px" font-style="normal" font-weight="normal" text-decoration="normal" x="133" y="340" text-anchor="start" dominant-baseline="alphabetic" stroke-opacity="1" stroke-linejoin="bevel" stroke-miterlimit="10" stroke-width="3">2.5</text><text fill="rgb(0,0,0)" stroke="none" font-family="geogebra-sans-serif, sans-serif" font-size="12px" font-style="normal" font-weight="normal" text-decoration="normal" x="133" y="340" text-anchor="start" dominant-baseline="alphabetic" fill-opacity="1">2.5</text><text fill="rgb(0,0,0)" stroke="none" font-family="geogebra-sans-serif, sans-serif" font-size="12px" font-style="normal" font-weight="normal" text-decoration="normal" x="143" y="277" text-anchor="start" dominant-baseline="alphabetic" fill-opacity="1">3</text><text fill="none" stroke="rgb(255,255,255)" font-family="geogebra-sans-serif, sans-serif" font-size="12px" font-style="normal" font-weight="normal" text-decoration="normal" x="143" y="277" text-anchor="start" dominant-baseline="alphabetic" stroke-opacity="1" stroke-linejoin="bevel" stroke-miterlimit="10" stroke-width="3">3</text><text fill="rgb(0,0,0)" stroke="none" font-family="geogebra-sans-serif, sans-serif" font-size="12px" font-style="normal" font-weight="normal" text-decoration="normal" x="143" y="277" text-anchor="start" dominant-baseline="alphabetic" fill-opacity="1">3</text><text fill="rgb(0,0,0)" stroke="none" font-family="geogebra-sans-serif, sans-serif" font-size="12px" font-style="normal" font-weight="normal" text-decoration="normal" x="133" y="214" text-anchor="start" dominant-baseline="alphabetic" fill-opacity="1">3.5</text><text fill="none" stroke="rgb(255,255,255)" font-family="geogebra-sans-serif, sans-serif" font-size="12px" font-style="normal" font-weight="normal" text-decoration="normal" x="133" y="214" text-anchor="start" dominant-baseline="alphabetic" stroke-opacity="1" stroke-linejoin="bevel" stroke-miterlimit="10" stroke-width="3">3.5</text><text fill="rgb(0,0,0)" stroke="none" font-family="geogebra-sans-serif, sans-serif" font-size="12px" font-style="normal" font-weight="normal" text-decoration="normal" x="133" y="214" text-anchor="start" dominant-baseline="alphabetic" fill-opacity="1">3.5</text><text fill="rgb(0,0,0)" stroke="none" font-family="geogebra-sans-serif, sans-serif" font-size="12px" font-style="normal" font-weight="normal" text-decoration="normal" x="143" y="151" text-anchor="start" dominant-baseline="alphabetic" fill-opacity="1">4</text><text fill="none" stroke="rgb(255,255,255)" font-family="geogebra-sans-serif, sans-serif" font-size="12px" font-style="normal" font-weight="normal" text-decoration="normal" x="143" y="151" text-anchor="start" dominant-baseline="alphabetic" stroke-opacity="1" stroke-linejoin="bevel" stroke-miterlimit="10" stroke-width="3">4</text><text fill="rgb(0,0,0)" stroke="none" font-family="geogebra-sans-serif, sans-serif" font-size="12px" font-style="normal" font-weight="normal" text-decoration="normal" x="143" y="151" text-anchor="start" dominant-baseline="alphabetic" fill-opacity="1">4</text><text fill="rgb(0,0,0)" stroke="none" font-family="geogebra-sans-serif, sans-serif" font-size="12px" font-style="normal" font-weight="normal" text-decoration="normal" x="133" y="88" text-anchor="start" dominant-baseline="alphabetic" fill-opacity="1">4.5</text><text fill="none" stroke="rgb(255,255,255)" font-family="geogebra-sans-serif, sans-serif" font-size="12px" font-style="normal" font-weight="normal" text-decoration="normal" x="133" y="88" text-anchor="start" dominant-baseline="alphabetic" stroke-opacity="1" stroke-linejoin="bevel" stroke-miterlimit="10" stroke-width="3">4.5</text><text fill="rgb(0,0,0)" stroke="none" font-family="geogebra-sans-serif, sans-serif" font-size="12px" font-style="normal" font-weight="normal" text-decoration="normal" x="133" y="88" text-anchor="start" dominant-baseline="alphabetic" fill-opacity="1">4.5</text><text fill="rgb(0,0,0)" stroke="none" font-family="geogebra-sans-serif, sans-serif" font-size="12px" font-style="normal" font-weight="normal" text-decoration="normal" x="143" y="24" text-anchor="start" dominant-baseline="alphabetic" fill-opacity="1">5</text><text fill="none" stroke="rgb(255,255,255)" font-family="geogebra-sans-serif, sans-serif" font-size="12px" font-style="normal" font-weight="normal" text-decoration="normal" x="143" y="24" text-anchor="start" dominant-baseline="alphabetic" stroke-opacity="1" stroke-linejoin="bevel" stroke-miterlimit="10" stroke-width="3">5</text><text fill="rgb(0,0,0)" stroke="none" font-family="geogebra-sans-serif, sans-serif" font-size="12px" font-style="normal" font-weight="normal" text-decoration="normal" x="143" y="24" text-anchor="start" dominant-baseline="alphabetic" fill-opacity="1">5</text><text fill="rgb(0,0,0)" stroke="none" font-family="geogebra-sans-serif, sans-serif" font-size="12px" font-style="normal" font-weight="normal" text-decoration="normal" x="143" y="667" text-anchor="start" dominant-baseline="alphabetic" fill-opacity="1">0</text><text fill="none" stroke="rgb(255,255,255)" font-family="geogebra-sans-serif, sans-serif" font-size="12px" font-style="normal" font-weight="normal" text-decoration="normal" x="143" y="667" text-anchor="start" dominant-baseline="alphabetic" stroke-opacity="1" stroke-linejoin="bevel" stroke-miterlimit="10" stroke-width="3">0</text><text fill="rgb(0,0,0)" stroke="none" font-family="geogebra-sans-serif, sans-serif" font-size="12px" font-style="normal" font-weight="normal" text-decoration="normal" x="143" y="667" text-anchor="start" dominant-baseline="alphabetic" fill-opacity="1">0</text><path fill="none" stroke="rgb(0,0,0)" paint-order="fill stroke markers" d=" M 410.1160147463755 461.92832812686936 C 410.1160147463755 531.6748661559086 353.57527424670707 588.2156066555774 283.82873621766834 588.2156066555774 C 214.08219818862952 588.2156066555774 157.5414576889611 531.6748661559086 157.5414576889611 461.92832812686936 C 157.5414576889611 392.1817900978301 214.08219818862952 335.6410495981613 283.82873621766834 335.6410495981613 C 353.57527424670707 335.6410495981613 410.1160147463755 392.1817900978301 410.1160147463755 461.92832812686936 Z" stroke-opacity="0.6980392156862745" stroke-linecap="round" stroke-linejoin="round" stroke-miterlimit="10" stroke-width="2.5"/><path fill="none" stroke="rgb(0,0,0)" paint-order="fill stroke markers" d=" M 715.0004753255691 209.35377106945327 C 715.0004753255691 307.9902710786914 635.0397932843202 387.9509531199408 536.4032932750828 387.9509531199408 C 437.76679326584525 387.9509531199408 357.8061112245964 307.9902710786914 357.8061112245964 209.35377106945327 C 357.8061112245964 110.71727106021513 437.76679326584525 30.75658901896577 536.4032932750828 30.75658901896577 C 635.0397932843202 30.75658901896577 715.0004753255691 110.71727106021513 715.0004753255691 209.35377106945327 Z" stroke-opacity="0.6980392156862745" stroke-linecap="round" stroke-linejoin="round" stroke-miterlimit="10" stroke-width="2.5"/><path fill="none" stroke="rgb(255,51,102)" paint-order="fill stroke markers" d=" M 283.82873621766834 461.92832812686936 L 536.4032932750828 209.35377106945327" stroke-opacity="0.6980392156862745" stroke-linecap="round" stroke-linejoin="round" stroke-miterlimit="10" stroke-width="2.5"/><text fill="rgb(255,51,102)" stroke="none" font-family="geogebra-sans-serif, sans-serif" font-size="16px" font-style="normal" font-weight="normal" text-decoration="normal" x="421" y="346" text-anchor="start" dominant-baseline="alphabetic" fill-opacity="1">c</text><text fill="none" stroke="rgb(255,255,255)" font-family="geogebra-sans-serif, sans-serif" font-size="16px" font-style="normal" font-weight="normal" text-decoration="normal" x="421" y="346" text-anchor="start" dominant-baseline="alphabetic" stroke-opacity="1" stroke-linejoin="bevel" stroke-miterlimit="10" stroke-width="3">c</text><text fill="rgb(255,51,102)" stroke="none" font-family="geogebra-sans-serif, sans-serif" font-size="16px" font-style="normal" font-weight="normal" text-decoration="normal" x="421" y="346" text-anchor="start" dominant-baseline="alphabetic" fill-opacity="1">c</text><path fill="none" stroke="rgb(0,0,0)" paint-order="fill stroke markers" d=" M 536.4032932750828 209.35377106945327 L 536.4032932750828 651.3592459199315" stroke-opacity="0.6980392156862745" stroke-linejoin="round" stroke-miterlimit="10" stroke-width="2.5" stroke-dasharray="6.5,4"/><path fill="none" stroke="rgb(0,0,0)" paint-order="fill stroke markers" d=" M 283.82873621766834 461.92832812686936 L 283.82873621766834 651.3592459199315" stroke-opacity="0.6980392156862745" stroke-linejoin="round" stroke-miterlimit="10" stroke-width="2.5" stroke-dasharray="6.5,4"/><path fill="none" stroke="rgb(0,0,0)" paint-order="fill stroke markers" d=" M 283.82873621766834 461.92832812686936 L 157.5414576889611 461.92832812686936" stroke-opacity="0.6980392156862745" stroke-linejoin="round" stroke-miterlimit="10" stroke-width="2.5" stroke-dasharray="6.5,4"/><path fill="none" stroke="rgb(0,0,0)" paint-order="fill stroke markers" d=" M 536.4032932750828 209.35377106945327 L 157.5414576889611 209.35377106945327" stroke-opacity="0.6980392156862745" stroke-linejoin="round" stroke-miterlimit="10" stroke-width="2.5" stroke-dasharray="6.5,4"/><path fill="none" stroke="rgb(0,0,0)" paint-order="fill stroke markers" d=" M 283.82873621766834 461.92832812686936 L 536.4032932750828 461.92832812686936" stroke-opacity="0.6980392156862745" stroke-linecap="round" stroke-linejoin="round" stroke-miterlimit="10" stroke-width="2.5"/><path fill="none" stroke="rgb(0,0,0)" paint-order="fill stroke markers" d=" M 536.4032932750828 461.92832812686936 L 536.4032932750828 209.35377106945327" stroke-opacity="0.6980392156862745" stroke-linecap="round" stroke-linejoin="round" stroke-miterlimit="10" stroke-width="2.5"/><path fill="rgb(77,77,255)" stroke="none" paint-order="stroke fill markers" d=" M 288.82873621766834 461.92832812686936 C 288.82873621766834 464.6897518760233 286.5901599668223 466.92832812686936 283.82873621766834 466.92832812686936 C 281.0673124685144 466.92832812686936 278.82873621766834 464.6897518760233 278.82873621766834 461.92832812686936 C 278.82873621766834 459.1669043777154 281.0673124685144 456.92832812686936 283.82873621766834 456.92832812686936 C 286.5901599668223 456.92832812686936 288.82873621766834 459.1669043777154 288.82873621766834 461.92832812686936 Z" fill-opacity="1"/><path fill="none" stroke="rgb(0,0,0)" paint-order="fill stroke markers" d=" M 288.82873621766834 461.92832812686936 C 288.82873621766834 464.6897518760233 286.5901599668223 466.92832812686936 283.82873621766834 466.92832812686936 C 281.0673124685144 466.92832812686936 278.82873621766834 464.6897518760233 278.82873621766834 461.92832812686936 C 278.82873621766834 459.1669043777154 281.0673124685144 456.92832812686936 283.82873621766834 456.92832812686936 C 286.5901599668223 456.92832812686936 288.82873621766834 459.1669043777154 288.82873621766834 461.92832812686936 Z" stroke-opacity="1" stroke-linecap="round" stroke-linejoin="round" stroke-miterlimit="10"/><text fill="rgb(77,77,255)" stroke="none" font-family="geogebra-sans-serif, sans-serif" font-size="16px" font-style="normal" font-weight="normal" text-decoration="normal" x="288" y="452" text-anchor="start" dominant-baseline="alphabetic" fill-opacity="1">O1</text><text fill="none" stroke="rgb(255,255,255)" font-family="geogebra-sans-serif, sans-serif" font-size="16px" font-style="normal" font-weight="normal" text-decoration="normal" x="288" y="452" text-anchor="start" dominant-baseline="alphabetic" stroke-opacity="1" stroke-linejoin="bevel" stroke-miterlimit="10" stroke-width="3">O1</text><text fill="rgb(77,77,255)" stroke="none" font-family="geogebra-sans-serif, sans-serif" font-size="16px" font-style="normal" font-weight="normal" text-decoration="normal" x="288" y="452" text-anchor="start" dominant-baseline="alphabetic" fill-opacity="1">O1</text><path fill="rgb(77,77,255)" stroke="none" paint-order="stroke fill markers" d=" M 541.4032932750828 209.35377106945327 C 541.4032932750828 212.11519481860725 539.1647170242368 214.35377106945327 536.4032932750828 214.35377106945327 C 533.6418695259288 214.35377106945327 531.4032932750828 212.11519481860725 531.4032932750828 209.35377106945327 C 531.4032932750828 206.5923473202993 533.6418695259288 204.35377106945327 536.4032932750828 204.35377106945327 C 539.1647170242368 204.35377106945327 541.4032932750828 206.5923473202993 541.4032932750828 209.35377106945327 Z" fill-opacity="1"/><path fill="none" stroke="rgb(0,0,0)" paint-order="fill stroke markers" d=" M 541.4032932750828 209.35377106945327 C 541.4032932750828 212.11519481860725 539.1647170242368 214.35377106945327 536.4032932750828 214.35377106945327 C 533.6418695259288 214.35377106945327 531.4032932750828 212.11519481860725 531.4032932750828 209.35377106945327 C 531.4032932750828 206.5923473202993 533.6418695259288 204.35377106945327 536.4032932750828 204.35377106945327 C 539.1647170242368 204.35377106945327 541.4032932750828 206.5923473202993 541.4032932750828 209.35377106945327 Z" stroke-opacity="1" stroke-linecap="round" stroke-linejoin="round" stroke-miterlimit="10"/><text fill="rgb(77,77,255)" stroke="none" font-family="geogebra-sans-serif, sans-serif" font-size="16px" font-style="normal" font-weight="normal" text-decoration="normal" x="540" y="199" text-anchor="start" dominant-baseline="alphabetic" fill-opacity="1">O2</text><text fill="none" stroke="rgb(255,255,255)" font-family="geogebra-sans-serif, sans-serif" font-size="16px" font-style="normal" font-weight="normal" text-decoration="normal" x="540" y="199" text-anchor="start" dominant-baseline="alphabetic" stroke-opacity="1" stroke-linejoin="bevel" stroke-miterlimit="10" stroke-width="3">O2</text><text fill="rgb(77,77,255)" stroke="none" font-family="geogebra-sans-serif, sans-serif" font-size="16px" font-style="normal" font-weight="normal" text-decoration="normal" x="540" y="199" text-anchor="start" dominant-baseline="alphabetic" fill-opacity="1">O2</text><path fill="rgb(125,125,255)" stroke="none" paint-order="stroke fill markers" d=" M 541.4032932750828 651.3592459199315 C 541.4032932750828 654.1206696690855 539.1647170242368 656.3592459199315 536.4032932750828 656.3592459199315 C 533.6418695259288 656.3592459199315 531.4032932750828 654.1206696690855 531.4032932750828 651.3592459199315 C 531.4032932750828 648.5978221707775 533.6418695259288 646.3592459199315 536.4032932750828 646.3592459199315 C 539.1647170242368 646.3592459199315 541.4032932750828 648.5978221707775 541.4032932750828 651.3592459199315 Z" fill-opacity="1"/><path fill="none" stroke="rgb(0,0,0)" paint-order="fill stroke markers" d=" M 541.4032932750828 651.3592459199315 C 541.4032932750828 654.1206696690855 539.1647170242368 656.3592459199315 536.4032932750828 656.3592459199315 C 533.6418695259288 656.3592459199315 531.4032932750828 654.1206696690855 531.4032932750828 651.3592459199315 C 531.4032932750828 648.5978221707775 533.6418695259288 646.3592459199315 536.4032932750828 646.3592459199315 C 539.1647170242368 646.3592459199315 541.4032932750828 648.5978221707775 541.4032932750828 651.3592459199315 Z" stroke-opacity="1" stroke-linecap="round" stroke-linejoin="round" stroke-miterlimit="10"/><text fill="rgb(125,125,255)" stroke="none" font-family="geogebra-sans-serif, sans-serif" font-size="16px" font-style="normal" font-weight="normal" text-decoration="normal" x="540" y="641" text-anchor="start" dominant-baseline="alphabetic" fill-opacity="1">X2</text><text fill="none" stroke="rgb(255,255,255)" font-family="geogebra-sans-serif, sans-serif" font-size="16px" font-style="normal" font-weight="normal" text-decoration="normal" x="540" y="641" text-anchor="start" dominant-baseline="alphabetic" stroke-opacity="1" stroke-linejoin="bevel" stroke-miterlimit="10" stroke-width="3">X2</text><text fill="rgb(125,125,255)" stroke="none" font-family="geogebra-sans-serif, sans-serif" font-size="16px" font-style="normal" font-weight="normal" text-decoration="normal" x="540" y="641" text-anchor="start" dominant-baseline="alphabetic" fill-opacity="1">X2</text><path fill="rgb(77,77,255)" stroke="none" paint-order="stroke fill markers" d=" M 288.82873621766834 651.3592459199315 C 288.82873621766834 654.1206696690855 286.5901599668223 656.3592459199315 283.82873621766834 656.3592459199315 C 281.0673124685144 656.3592459199315 278.82873621766834 654.1206696690855 278.82873621766834 651.3592459199315 C 278.82873621766834 648.5978221707775 281.0673124685144 646.3592459199315 283.82873621766834 646.3592459199315 C 286.5901599668223 646.3592459199315 288.82873621766834 648.5978221707775 288.82873621766834 651.3592459199315 Z" fill-opacity="1"/><path fill="none" stroke="rgb(0,0,0)" paint-order="fill stroke markers" d=" M 288.82873621766834 651.3592459199315 C 288.82873621766834 654.1206696690855 286.5901599668223 656.3592459199315 283.82873621766834 656.3592459199315 C 281.0673124685144 656.3592459199315 278.82873621766834 654.1206696690855 278.82873621766834 651.3592459199315 C 278.82873621766834 648.5978221707775 281.0673124685144 646.3592459199315 283.82873621766834 646.3592459199315 C 286.5901599668223 646.3592459199315 288.82873621766834 648.5978221707775 288.82873621766834 651.3592459199315 Z" stroke-opacity="1" stroke-linecap="round" stroke-linejoin="round" stroke-miterlimit="10"/><text fill="rgb(77,77,255)" stroke="none" font-family="geogebra-sans-serif, sans-serif" font-size="16px" font-style="normal" font-weight="normal" text-decoration="normal" x="288" y="641" text-anchor="start" dominant-baseline="alphabetic" fill-opacity="1">X1</text><text fill="none" stroke="rgb(255,255,255)" font-family="geogebra-sans-serif, sans-serif" font-size="16px" font-style="normal" font-weight="normal" text-decoration="normal" x="288" y="641" text-anchor="start" dominant-baseline="alphabetic" stroke-opacity="1" stroke-linejoin="bevel" stroke-miterlimit="10" stroke-width="3">X1</text><text fill="rgb(77,77,255)" stroke="none" font-family="geogebra-sans-serif, sans-serif" font-size="16px" font-style="normal" font-weight="normal" text-decoration="normal" x="288" y="641" text-anchor="start" dominant-baseline="alphabetic" fill-opacity="1">X1</text><path fill="rgb(51,51,255)" stroke="none" paint-order="stroke fill markers" d=" M 161.5414576889611 461.92832812686936 C 161.5414576889611 464.1374671261925 159.75059668828425 465.92832812686936 157.5414576889611 465.92832812686936 C 155.3323186896379 465.92832812686936 153.5414576889611 464.1374671261925 153.5414576889611 461.92832812686936 C 153.5414576889611 459.7191891275462 155.3323186896379 457.92832812686936 157.5414576889611 457.92832812686936 C 159.75059668828425 457.92832812686936 161.5414576889611 459.7191891275462 161.5414576889611 461.92832812686936 Z" fill-opacity="1"/><path fill="none" stroke="rgb(0,0,0)" paint-order="fill stroke markers" d=" M 161.5414576889611 461.92832812686936 C 161.5414576889611 464.1374671261925 159.75059668828425 465.92832812686936 157.5414576889611 465.92832812686936 C 155.3323186896379 465.92832812686936 153.5414576889611 464.1374671261925 153.5414576889611 461.92832812686936 C 153.5414576889611 459.7191891275462 155.3323186896379 457.92832812686936 157.5414576889611 457.92832812686936 C 159.75059668828425 457.92832812686936 161.5414576889611 459.7191891275462 161.5414576889611 461.92832812686936 Z" stroke-opacity="1" stroke-linecap="round" stroke-linejoin="round" stroke-miterlimit="10"/><text fill="rgb(51,51,255)" stroke="none" font-family="geogebra-sans-serif, sans-serif" font-size="16px" font-style="normal" font-weight="normal" text-decoration="normal" x="162" y="454" text-anchor="start" dominant-baseline="alphabetic" fill-opacity="1">Y1</text><text fill="none" stroke="rgb(255,255,255)" font-family="geogebra-sans-serif, sans-serif" font-size="16px" font-style="normal" font-weight="normal" text-decoration="normal" x="162" y="454" text-anchor="start" dominant-baseline="alphabetic" stroke-opacity="1" stroke-linejoin="bevel" stroke-miterlimit="10" stroke-width="3">Y1</text><text fill="rgb(51,51,255)" stroke="none" font-family="geogebra-sans-serif, sans-serif" font-size="16px" font-style="normal" font-weight="normal" text-decoration="normal" x="162" y="454" text-anchor="start" dominant-baseline="alphabetic" fill-opacity="1">Y1</text><path fill="rgb(125,125,255)" stroke="none" paint-order="stroke fill markers" d=" M 162.5414576889611 209.35377106945327 C 162.5414576889611 212.11519481860725 160.30288143811507 214.35377106945327 157.5414576889611 214.35377106945327 C 154.7800339398071 214.35377106945327 152.5414576889611 212.11519481860725 152.5414576889611 209.35377106945327 C 152.5414576889611 206.5923473202993 154.7800339398071 204.35377106945327 157.5414576889611 204.35377106945327 C 160.30288143811507 204.35377106945327 162.5414576889611 206.5923473202993 162.5414576889611 209.35377106945327 Z" fill-opacity="1"/><path fill="none" stroke="rgb(0,0,0)" paint-order="fill stroke markers" d=" M 162.5414576889611 209.35377106945327 C 162.5414576889611 212.11519481860725 160.30288143811507 214.35377106945327 157.5414576889611 214.35377106945327 C 154.7800339398071 214.35377106945327 152.5414576889611 212.11519481860725 152.5414576889611 209.35377106945327 C 152.5414576889611 206.5923473202993 154.7800339398071 204.35377106945327 157.5414576889611 204.35377106945327 C 160.30288143811507 204.35377106945327 162.5414576889611 206.5923473202993 162.5414576889611 209.35377106945327 Z" stroke-opacity="1" stroke-linecap="round" stroke-linejoin="round" stroke-miterlimit="10"/><text fill="rgb(125,125,255)" stroke="none" font-family="geogebra-sans-serif, sans-serif" font-size="16px" font-style="normal" font-weight="normal" text-decoration="normal" x="162" y="199" text-anchor="start" dominant-baseline="alphabetic" fill-opacity="1">Y2</text><text fill="none" stroke="rgb(255,255,255)" font-family="geogebra-sans-serif, sans-serif" font-size="16px" font-style="normal" font-weight="normal" text-decoration="normal" x="162" y="199" text-anchor="start" dominant-baseline="alphabetic" stroke-opacity="1" stroke-linejoin="bevel" stroke-miterlimit="10" stroke-width="3">Y2</text><text fill="rgb(125,125,255)" stroke="none" font-family="geogebra-sans-serif, sans-serif" font-size="16px" font-style="normal" font-weight="normal" text-decoration="normal" x="162" y="199" text-anchor="start" dominant-baseline="alphabetic" fill-opacity="1">Y2</text><path fill="rgb(125,125,255)" stroke="none" paint-order="stroke fill markers" d=" M 541.4032932750828 461.92832812686936 C 541.4032932750828 464.6897518760233 539.1647170242368 466.92832812686936 536.4032932750828 466.92832812686936 C 533.6418695259288 466.92832812686936 531.4032932750828 464.6897518760233 531.4032932750828 461.92832812686936 C 531.4032932750828 459.1669043777154 533.6418695259288 456.92832812686936 536.4032932750828 456.92832812686936 C 539.1647170242368 456.92832812686936 541.4032932750828 459.1669043777154 541.4032932750828 461.92832812686936 Z" fill-opacity="1"/><path fill="none" stroke="rgb(0,0,0)" paint-order="fill stroke markers" d=" M 541.4032932750828 461.92832812686936 C 541.4032932750828 464.6897518760233 539.1647170242368 466.92832812686936 536.4032932750828 466.92832812686936 C 533.6418695259288 466.92832812686936 531.4032932750828 464.6897518760233 531.4032932750828 461.92832812686936 C 531.4032932750828 459.1669043777154 533.6418695259288 456.92832812686936 536.4032932750828 456.92832812686936 C 539.1647170242368 456.92832812686936 541.4032932750828 459.1669043777154 541.4032932750828 461.92832812686936 Z" stroke-opacity="1" stroke-linecap="round" stroke-linejoin="round" stroke-miterlimit="10"/><text fill="rgb(125,125,255)" stroke="none" font-family="geogebra-sans-serif, sans-serif" font-size="16px" font-style="normal" font-weight="normal" text-decoration="normal" x="540" y="452" text-anchor="start" dominant-baseline="alphabetic" fill-opacity="1">I</text><text fill="none" stroke="rgb(255,255,255)" font-family="geogebra-sans-serif, sans-serif" font-size="16px" font-style="normal" font-weight="normal" text-decoration="normal" x="540" y="452" text-anchor="start" dominant-baseline="alphabetic" stroke-opacity="1" stroke-linejoin="bevel" stroke-miterlimit="10" stroke-width="3">I</text><text fill="rgb(125,125,255)" stroke="none" font-family="geogebra-sans-serif, sans-serif" font-size="16px" font-style="normal" font-weight="normal" text-decoration="normal" x="540" y="452" text-anchor="start" dominant-baseline="alphabetic" fill-opacity="1">I</text></g></g></svg>