<svg version="1.1" xmlns="http://www.w3.org/2000/svg" xmlns:xlink="http://www.w3.org/1999/xlink" width="764" height="700"><defs><clipPath id="lcSqJunwsvaa"><path fill="none" stroke="none" d=" M 0 0 L 764 0 L 764 700 L 0 700 L 0 0 Z"/></clipPath></defs><g transform="scale(1,1)" clip-path="url(#lcSqJunwsvaa)"><g><rect fill="rgb(255,255,255)" stroke="none" x="0" y="0" width="764" height="700" fill-opacity="1"/><path fill="none" stroke="rgb(192,192,192)" paint-order="fill stroke markers" d=" M 15.5 0.5 L 15.5 700.5 M 15.5 0.5 L 15.5 700.5 M 141.5 0.5 L 141.5 700.5 M 204.5 0.5 L 204.5 700.5 M 267.5 0.5 L 267.5 700.5 M 331.5 0.5 L 331.5 700.5 M 394.5 0.5 L 394.5 700.5 M 457.5 0.5 L 457.5 700.5 M 520.5 0.5 L 520.5 700.5 M 583.5 0.5 L 583.5 700.5 M 646.5 0.5 L 646.5 700.5 M 709.5 0.5 L 709.5 700.5" stroke-opacity="1" stroke-linecap="round" stroke-linejoin="round" stroke-miterlimit="10"/><path fill="none" stroke="rgb(192,192,192)" paint-order="fill stroke markers" d=" M 2.5 0.5 L 2.5 700.5 M 28.5 0.5 L 28.5 700.5 M 40.5 0.5 L 40.5 700.5 M 53.5 0.5 L 53.5 700.5 M 65.5 0.5 L 65.5 700.5 M 91.5 0.5 L 91.5 700.5 M 103.5 0.5 L 103.5 700.5 M 116.5 0.5 L 116.5 700.5 M 129.5 0.5 L 129.5 700.5 M 154.5 0.5 L 154.5 700.5 M 166.5 0.5 L 166.5 700.5 M 179.5 0.5 L 179.5 700.5 M 192.5 0.5 L 192.5 700.5 M 217.5 0.5 L 217.5 700.5 M 230.5 0.5 L 230.5 700.5 M 242.5 0.5 L 242.5 700.5 M 255.5 0.5 L 255.5 700.5 M 280.5 0.5 L 280.5 700.5 M 293.5 0.5 L 293.5 700.5 M 305.5 0.5 L 305.5 700.5 M 318.5 0.5 L 318.5 700.5 M 343.5 0.5 L 343.5 700.5 M 356.5 0.5 L 356.5 700.5 M 369.5 0.5 L 369.5 700.5 M 381.5 0.5 L 381.5 700.5 M 406.5 0.5 L 406.5 700.5 M 419.5 0.5 L 419.5 700.5 M 432.5 0.5 L 432.5 700.5 M 444.5 0.5 L 444.5 700.5 M 470.5 0.5 L 470.5 700.5 M 482.5 0.5 L 482.5 700.5 M 495.5 0.5 L 495.5 700.5 M 507.5 0.5 L 507.5 700.5 M 533.5 0.5 L 533.5 700.5 M 545.5 0.5 L 545.5 700.5 M 558.5 0.5 L 558.5 700.5 M 571.5 0.5 L 571.5 700.5 M 596.5 0.5 L 596.5 700.5 M 608.5 0.5 L 608.5 700.5 M 621.5 0.5 L 621.5 700.5 M 634.5 0.5 L 634.5 700.5 M 659.5 0.5 L 659.5 700.5 M 672.5 0.5 L 672.5 700.5 M 684.5 0.5 L 684.5 700.5 M 697.5 0.5 L 697.5 700.5 M 722.5 0.5 L 722.5 700.5 M 735.5 0.5 L 735.5 700.5 M 747.5 0.5 L 747.5 700.5 M 760.5 0.5 L 760.5 700.5" stroke-opacity="0.23529411764705882" stroke-linecap="round" stroke-linejoin="round" stroke-miterlimit="10"/><path fill="none" stroke="rgb(192,192,192)" paint-order="fill stroke markers" d=" M 0.5 22.5 L 764.5 22.5 M 0.5 22.5 L 764.5 22.5 M 0.5 86.5 L 764.5 86.5 M 0.5 149.5 L 764.5 149.5 M 0.5 212.5 L 764.5 212.5 M 0.5 275.5 L 764.5 275.5 M 0.5 338.5 L 764.5 338.5 M 0.5 401.5 L 764.5 401.5 M 0.5 464.5 L 764.5 464.5 M 0.5 528.5 L 764.5 528.5 M 0.5 591.5 L 764.5 591.5" stroke-opacity="1" stroke-linecap="round" stroke-linejoin="round" stroke-miterlimit="10"/><path fill="none" stroke="rgb(192,192,192)" paint-order="fill stroke markers" d=" M 0.5 10.5 L 764.5 10.5 M 0.5 10.5 L 764.5 10.5 M 0.5 35.5 L 764.5 35.5 M 0.5 48.5 L 764.5 48.5 M 0.5 60.5 L 764.5 60.5 M 0.5 73.5 L 764.5 73.5 M 0.5 98.5 L 764.5 98.5 M 0.5 111.5 L 764.5 111.5 M 0.5 123.5 L 764.5 123.5 M 0.5 136.5 L 764.5 136.5 M 0.5 161.5 L 764.5 161.5 M 0.5 174.5 L 764.5 174.5 M 0.5 187.5 L 764.5 187.5 M 0.5 199.5 L 764.5 199.5 M 0.5 224.5 L 764.5 224.5 M 0.5 237.5 L 764.5 237.5 M 0.5 250.5 L 764.5 250.5 M 0.5 262.5 L 764.5 262.5 M 0.5 288.5 L 764.5 288.5 M 0.5 300.5 L 764.5 300.5 M 0.5 313.5 L 764.5 313.5 M 0.5 326.5 L 764.5 326.5 M 0.5 351.5 L 764.5 351.5 M 0.5 363.5 L 764.5 363.5 M 0.5 376.5 L 764.5 376.5 M 0.5 389.5 L 764.5 389.5 M 0.5 414.5 L 764.5 414.5 M 0.5 427.5 L 764.5 427.5 M 0.5 439.5 L 764.5 439.5 M 0.5 452.5 L 764.5 452.5 M 0.5 477.5 L 764.5 477.5 M 0.5 490.5 L 764.5 490.5 M 0.5 502.5 L 764.5 502.5 M 0.5 515.5 L 764.5 515.5 M 0.5 540.5 L 764.5 540.5 M 0.5 553.5 L 764.5 553.5 M 0.5 565.5 L 764.5 565.5 M 0.5 578.5 L 764.5 578.5 M 0.5 603.5 L 764.5 603.5 M 0.5 616.5 L 764.5 616.5 M 0.5 629.5 L 764.5 629.5 M 0.5 641.5 L 764.5 641.5 M 0.5 666.5 L 764.5 666.5 M 0.5 679.5 L 764.5 679.5 M 0.5 692.5 L 764.5 692.5" stroke-opacity="0.23529411764705882" stroke-linecap="round" stroke-linejoin="round" stroke-miterlimit="10"/><path fill="none" stroke="rgb(0,0,0)" paint-order="fill stroke markers" d=" M 78.5 2.5 L 78.5 700.5" stroke-opacity="1" stroke-miterlimit="10"/><path fill="none" stroke="rgb(0,0,0)" paint-order="fill stroke markers" d=" M 78.5 1.5 L 74.5 5.5" stroke-opacity="1" stroke-miterlimit="10"/><path fill="none" stroke="rgb(0,0,0)" paint-order="fill stroke markers" d=" M 78.5 1.5 L 82.5 5.5" stroke-opacity="1" stroke-miterlimit="10"/><path fill="none" stroke="rgb(0,0,0)" paint-order="fill stroke markers" d=" M 0.5 654.5 L 762.5 654.5" stroke-opacity="1" stroke-miterlimit="10"/><path fill="none" stroke="rgb(0,0,0)" paint-order="fill stroke markers" d=" M 763.5 654.5 L 759.5 650.5" stroke-opacity="1" stroke-miterlimit="10"/><path fill="none" stroke="rgb(0,0,0)" paint-order="fill stroke markers" d=" M 763.5 654.5 L 759.5 658.5" stroke-opacity="1" stroke-miterlimit="10"/><text fill="rgb(0,0,0)" stroke="none" font-family="geogebra-sans-serif, sans-serif" font-size="12px" font-style="normal" font-weight="normal" text-decoration="normal" x="4" y="670" text-anchor="start" dominant-baseline="alphabetic" fill-opacity="1">–0.5</text><text fill="none" stroke="rgb(255,255,255)" font-family="geogebra-sans-serif, sans-serif" font-size="12px" font-style="normal" font-weight="normal" text-decoration="normal" x="4" y="670" text-anchor="start" dominant-baseline="alphabetic" stroke-opacity="1" stroke-linejoin="bevel" stroke-miterlimit="10" stroke-width="3">–0.5</text><text fill="rgb(0,0,0)" stroke="none" font-family="geogebra-sans-serif, sans-serif" font-size="12px" font-style="normal" font-weight="normal" text-decoration="normal" x="4" y="670" text-anchor="start" dominant-baseline="alphabetic" fill-opacity="1">–0.5</text><text fill="rgb(0,0,0)" stroke="none" font-family="geogebra-sans-serif, sans-serif" font-size="12px" font-style="normal" font-weight="normal" text-decoration="normal" x="133" y="670" text-anchor="start" dominant-baseline="alphabetic" fill-opacity="1">0.5</text><text fill="none" stroke="rgb(255,255,255)" font-family="geogebra-sans-serif, sans-serif" font-size="12px" font-style="normal" font-weight="normal" text-decoration="normal" x="133" y="670" text-anchor="start" dominant-baseline="alphabetic" stroke-opacity="1" stroke-linejoin="bevel" stroke-miterlimit="10" stroke-width="3">0.5</text><text fill="rgb(0,0,0)" stroke="none" font-family="geogebra-sans-serif, sans-serif" font-size="12px" font-style="normal" font-weight="normal" text-decoration="normal" x="133" y="670" text-anchor="start" dominant-baseline="alphabetic" fill-opacity="1">0.5</text><text fill="rgb(0,0,0)" stroke="none" font-family="geogebra-sans-serif, sans-serif" font-size="12px" font-style="normal" font-weight="normal" text-decoration="normal" x="202" y="670" text-anchor="start" dominant-baseline="alphabetic" fill-opacity="1">1</text><text fill="none" stroke="rgb(255,255,255)" font-family="geogebra-sans-serif, sans-serif" font-size="12px" font-style="normal" font-weight="normal" text-decoration="normal" x="202" y="670" text-anchor="start" dominant-baseline="alphabetic" stroke-opacity="1" stroke-linejoin="bevel" stroke-miterlimit="10" stroke-width="3">1</text><text fill="rgb(0,0,0)" stroke="none" font-family="geogebra-sans-serif, sans-serif" font-size="12px" font-style="normal" font-weight="normal" text-decoration="normal" x="202" y="670" text-anchor="start" dominant-baseline="alphabetic" fill-opacity="1">1</text><text fill="rgb(0,0,0)" stroke="none" font-family="geogebra-sans-serif, sans-serif" font-size="12px" font-style="normal" font-weight="normal" text-decoration="normal" x="259" y="670" text-anchor="start" dominant-baseline="alphabetic" fill-opacity="1">1.5</text><text fill="none" stroke="rgb(255,255,255)" font-family="geogebra-sans-serif, sans-serif" font-size="12px" font-style="normal" font-weight="normal" text-decoration="normal" x="259" y="670" text-anchor="start" dominant-baseline="alphabetic" stroke-opacity="1" stroke-linejoin="bevel" stroke-miterlimit="10" stroke-width="3">1.5</text><text fill="rgb(0,0,0)" stroke="none" font-family="geogebra-sans-serif, sans-serif" font-size="12px" font-style="normal" font-weight="normal" text-decoration="normal" x="259" y="670" text-anchor="start" dominant-baseline="alphabetic" fill-opacity="1">1.5</text><text fill="rgb(0,0,0)" stroke="none" font-family="geogebra-sans-serif, sans-serif" font-size="12px" font-style="normal" font-weight="normal" text-decoration="normal" x="329" y="670" text-anchor="start" dominant-baseline="alphabetic" fill-opacity="1">2</text><text fill="none" stroke="rgb(255,255,255)" font-family="geogebra-sans-serif, sans-serif" font-size="12px" font-style="normal" font-weight="normal" text-decoration="normal" x="329" y="670" text-anchor="start" dominant-baseline="alphabetic" stroke-opacity="1" stroke-linejoin="bevel" stroke-miterlimit="10" stroke-width="3">2</text><text fill="rgb(0,0,0)" stroke="none" font-family="geogebra-sans-serif, sans-serif" font-size="12px" font-style="normal" font-weight="normal" text-decoration="normal" x="329" y="670" text-anchor="start" dominant-baseline="alphabetic" fill-opacity="1">2</text><text fill="rgb(0,0,0)" stroke="none" font-family="geogebra-sans-serif, sans-serif" font-size="12px" font-style="normal" font-weight="normal" text-decoration="normal" x="386" y="670" text-anchor="start" dominant-baseline="alphabetic" fill-opacity="1">2.5</text><text fill="none" stroke="rgb(255,255,255)" font-family="geogebra-sans-serif, sans-serif" font-size="12px" font-style="normal" font-weight="normal" text-decoration="normal" x="386" y="670" text-anchor="start" dominant-baseline="alphabetic" stroke-opacity="1" stroke-linejoin="bevel" stroke-miterlimit="10" stroke-width="3">2.5</text><text fill="rgb(0,0,0)" stroke="none" font-family="geogebra-sans-serif, sans-serif" font-size="12px" font-style="normal" font-weight="normal" text-decoration="normal" x="386" y="670" text-anchor="start" dominant-baseline="alphabetic" fill-opacity="1">2.5</text><text fill="rgb(0,0,0)" stroke="none" font-family="geogebra-sans-serif, sans-serif" font-size="12px" font-style="normal" font-weight="normal" text-decoration="normal" x="455" y="670" text-anchor="start" dominant-baseline="alphabetic" fill-opacity="1">3</text><text fill="none" stroke="rgb(255,255,255)" font-family="geogebra-sans-serif, sans-serif" font-size="12px" font-style="normal" font-weight="normal" text-decoration="normal" x="455" y="670" text-anchor="start" dominant-baseline="alphabetic" stroke-opacity="1" stroke-linejoin="bevel" stroke-miterlimit="10" stroke-width="3">3</text><text fill="rgb(0,0,0)" stroke="none" font-family="geogebra-sans-serif, sans-serif" font-size="12px" font-style="normal" font-weight="normal" text-decoration="normal" x="455" y="670" text-anchor="start" dominant-baseline="alphabetic" fill-opacity="1">3</text><text fill="rgb(0,0,0)" stroke="none" font-family="geogebra-sans-serif, sans-serif" font-size="12px" font-style="normal" font-weight="normal" text-decoration="normal" x="512" y="670" text-anchor="start" dominant-baseline="alphabetic" fill-opacity="1">3.5</text><text fill="none" stroke="rgb(255,255,255)" font-family="geogebra-sans-serif, sans-serif" font-size="12px" font-style="normal" font-weight="normal" text-decoration="normal" x="512" y="670" text-anchor="start" dominant-baseline="alphabetic" stroke-opacity="1" stroke-linejoin="bevel" stroke-miterlimit="10" stroke-width="3">3.5</text><text fill="rgb(0,0,0)" stroke="none" font-family="geogebra-sans-serif, sans-serif" font-size="12px" font-style="normal" font-weight="normal" text-decoration="normal" x="512" y="670" text-anchor="start" dominant-baseline="alphabetic" fill-opacity="1">3.5</text><text fill="rgb(0,0,0)" stroke="none" font-family="geogebra-sans-serif, sans-serif" font-size="12px" font-style="normal" font-weight="normal" text-decoration="normal" x="581" y="670" text-anchor="start" dominant-baseline="alphabetic" fill-opacity="1">4</text><text fill="none" stroke="rgb(255,255,255)" font-family="geogebra-sans-serif, sans-serif" font-size="12px" font-style="normal" font-weight="normal" text-decoration="normal" x="581" y="670" text-anchor="start" dominant-baseline="alphabetic" stroke-opacity="1" stroke-linejoin="bevel" stroke-miterlimit="10" stroke-width="3">4</text><text fill="rgb(0,0,0)" stroke="none" font-family="geogebra-sans-serif, sans-serif" font-size="12px" font-style="normal" font-weight="normal" text-decoration="normal" x="581" y="670" text-anchor="start" dominant-baseline="alphabetic" fill-opacity="1">4</text><text fill="rgb(0,0,0)" stroke="none" font-family="geogebra-sans-serif, sans-serif" font-size="12px" font-style="normal" font-weight="normal" text-decoration="normal" x="638" y="670" text-anchor="start" dominant-baseline="alphabetic" fill-opacity="1">4.5</text><text fill="none" stroke="rgb(255,255,255)" font-family="geogebra-sans-serif, sans-serif" font-size="12px" font-style="normal" font-weight="normal" text-decoration="normal" x="638" y="670" text-anchor="start" dominant-baseline="alphabetic" stroke-opacity="1" stroke-linejoin="bevel" stroke-miterlimit="10" stroke-width="3">4.5</text><text fill="rgb(0,0,0)" stroke="none" font-family="geogebra-sans-serif, sans-serif" font-size="12px" font-style="normal" font-weight="normal" text-decoration="normal" x="638" y="670" text-anchor="start" dominant-baseline="alphabetic" fill-opacity="1">4.5</text><text fill="rgb(0,0,0)" stroke="none" font-family="geogebra-sans-serif, sans-serif" font-size="12px" font-style="normal" font-weight="normal" text-decoration="normal" x="707" y="670" text-anchor="start" dominant-baseline="alphabetic" fill-opacity="1">5</text><text fill="none" stroke="rgb(255,255,255)" font-family="geogebra-sans-serif, sans-serif" font-size="12px" font-style="normal" font-weight="normal" text-decoration="normal" x="707" y="670" text-anchor="start" dominant-baseline="alphabetic" stroke-opacity="1" stroke-linejoin="bevel" stroke-miterlimit="10" stroke-width="3">5</text><text fill="rgb(0,0,0)" stroke="none" font-family="geogebra-sans-serif, sans-serif" font-size="12px" font-style="normal" font-weight="normal" text-decoration="normal" x="707" y="670" text-anchor="start" dominant-baseline="alphabetic" fill-opacity="1">5</text><text fill="rgb(0,0,0)" stroke="none" font-family="geogebra-sans-serif, sans-serif" font-size="12px" font-style="normal" font-weight="normal" text-decoration="normal" x="54" y="596" text-anchor="start" dominant-baseline="alphabetic" fill-opacity="1">0.5</text><text fill="none" stroke="rgb(255,255,255)" font-family="geogebra-sans-serif, sans-serif" font-size="12px" font-style="normal" font-weight="normal" text-decoration="normal" x="54" y="596" text-anchor="start" dominant-baseline="alphabetic" stroke-opacity="1" stroke-linejoin="bevel" stroke-miterlimit="10" stroke-width="3">0.5</text><text fill="rgb(0,0,0)" stroke="none" font-family="geogebra-sans-serif, sans-serif" font-size="12px" font-style="normal" font-weight="normal" text-decoration="normal" x="54" y="596" text-anchor="start" dominant-baseline="alphabetic" fill-opacity="1">0.5</text><text fill="rgb(0,0,0)" stroke="none" font-family="geogebra-sans-serif, sans-serif" font-size="12px" font-style="normal" font-weight="normal" text-decoration="normal" x="64" y="533" text-anchor="start" dominant-baseline="alphabetic" fill-opacity="1">1</text><text fill="none" stroke="rgb(255,255,255)" font-family="geogebra-sans-serif, sans-serif" font-size="12px" font-style="normal" font-weight="normal" text-decoration="normal" x="64" y="533" text-anchor="start" dominant-baseline="alphabetic" stroke-opacity="1" stroke-linejoin="bevel" stroke-miterlimit="10" stroke-width="3">1</text><text fill="rgb(0,0,0)" stroke="none" font-family="geogebra-sans-serif, sans-serif" font-size="12px" font-style="normal" font-weight="normal" text-decoration="normal" x="64" y="533" text-anchor="start" dominant-baseline="alphabetic" fill-opacity="1">1</text><text fill="rgb(0,0,0)" stroke="none" font-family="geogebra-sans-serif, sans-serif" font-size="12px" font-style="normal" font-weight="normal" text-decoration="normal" x="54" y="469" text-anchor="start" dominant-baseline="alphabetic" fill-opacity="1">1.5</text><text fill="none" stroke="rgb(255,255,255)" font-family="geogebra-sans-serif, sans-serif" font-size="12px" font-style="normal" font-weight="normal" text-decoration="normal" x="54" y="469" text-anchor="start" dominant-baseline="alphabetic" stroke-opacity="1" stroke-linejoin="bevel" stroke-miterlimit="10" stroke-width="3">1.5</text><text fill="rgb(0,0,0)" stroke="none" font-family="geogebra-sans-serif, sans-serif" font-size="12px" font-style="normal" font-weight="normal" text-decoration="normal" x="54" y="469" text-anchor="start" dominant-baseline="alphabetic" fill-opacity="1">1.5</text><text fill="rgb(0,0,0)" stroke="none" font-family="geogebra-sans-serif, sans-serif" font-size="12px" font-style="normal" font-weight="normal" text-decoration="normal" x="64" y="406" text-anchor="start" dominant-baseline="alphabetic" fill-opacity="1">2</text><text fill="none" stroke="rgb(255,255,255)" font-family="geogebra-sans-serif, sans-serif" font-size="12px" font-style="normal" font-weight="normal" text-decoration="normal" x="64" y="406" text-anchor="start" dominant-baseline="alphabetic" stroke-opacity="1" stroke-linejoin="bevel" stroke-miterlimit="10" stroke-width="3">2</text><text fill="rgb(0,0,0)" stroke="none" font-family="geogebra-sans-serif, sans-serif" font-size="12px" font-style="normal" font-weight="normal" text-decoration="normal" x="64" y="406" text-anchor="start" dominant-baseline="alphabetic" fill-opacity="1">2</text><text fill="rgb(0,0,0)" stroke="none" font-family="geogebra-sans-serif, sans-serif" font-size="12px" font-style="normal" font-weight="normal" text-decoration="normal" x="54" y="343" text-anchor="start" dominant-baseline="alphabetic" fill-opacity="1">2.5</text><text fill="none" stroke="rgb(255,255,255)" font-family="geogebra-sans-serif, sans-serif" font-size="12px" font-style="normal" font-weight="normal" text-decoration="normal" x="54" y="343" text-anchor="start" dominant-baseline="alphabetic" stroke-opacity="1" stroke-linejoin="bevel" stroke-miterlimit="10" stroke-width="3">2.5</text><text fill="rgb(0,0,0)" stroke="none" font-family="geogebra-sans-serif, sans-serif" font-size="12px" font-style="normal" font-weight="normal" text-decoration="normal" x="54" y="343" text-anchor="start" dominant-baseline="alphabetic" fill-opacity="1">2.5</text><text fill="rgb(0,0,0)" stroke="none" font-family="geogebra-sans-serif, sans-serif" font-size="12px" font-style="normal" font-weight="normal" text-decoration="normal" x="64" y="280" text-anchor="start" dominant-baseline="alphabetic" fill-opacity="1">3</text><text fill="none" stroke="rgb(255,255,255)" font-family="geogebra-sans-serif, sans-serif" font-size="12px" font-style="normal" font-weight="normal" text-decoration="normal" x="64" y="280" text-anchor="start" dominant-baseline="alphabetic" stroke-opacity="1" stroke-linejoin="bevel" stroke-miterlimit="10" stroke-width="3">3</text><text fill="rgb(0,0,0)" stroke="none" font-family="geogebra-sans-serif, sans-serif" font-size="12px" font-style="normal" font-weight="normal" text-decoration="normal" x="64" y="280" text-anchor="start" dominant-baseline="alphabetic" fill-opacity="1">3</text><text fill="rgb(0,0,0)" stroke="none" font-family="geogebra-sans-serif, sans-serif" font-size="12px" font-style="normal" font-weight="normal" text-decoration="normal" x="54" y="217" text-anchor="start" dominant-baseline="alphabetic" fill-opacity="1">3.5</text><text fill="none" stroke="rgb(255,255,255)" font-family="geogebra-sans-serif, sans-serif" font-size="12px" font-style="normal" font-weight="normal" text-decoration="normal" x="54" y="217" text-anchor="start" dominant-baseline="alphabetic" stroke-opacity="1" stroke-linejoin="bevel" stroke-miterlimit="10" stroke-width="3">3.5</text><text fill="rgb(0,0,0)" stroke="none" font-family="geogebra-sans-serif, sans-serif" font-size="12px" font-style="normal" font-weight="normal" text-decoration="normal" x="54" y="217" text-anchor="start" dominant-baseline="alphabetic" fill-opacity="1">3.5</text><text fill="rgb(0,0,0)" stroke="none" font-family="geogebra-sans-serif, sans-serif" font-size="12px" font-style="normal" font-weight="normal" text-decoration="normal" x="64" y="154" text-anchor="start" dominant-baseline="alphabetic" fill-opacity="1">4</text><text fill="none" stroke="rgb(255,255,255)" font-family="geogebra-sans-serif, sans-serif" font-size="12px" font-style="normal" font-weight="normal" text-decoration="normal" x="64" y="154" text-anchor="start" dominant-baseline="alphabetic" stroke-opacity="1" stroke-linejoin="bevel" stroke-miterlimit="10" stroke-width="3">4</text><text fill="rgb(0,0,0)" stroke="none" font-family="geogebra-sans-serif, sans-serif" font-size="12px" font-style="normal" font-weight="normal" text-decoration="normal" x="64" y="154" text-anchor="start" dominant-baseline="alphabetic" fill-opacity="1">4</text><text fill="rgb(0,0,0)" stroke="none" font-family="geogebra-sans-serif, sans-serif" font-size="12px" font-style="normal" font-weight="normal" text-decoration="normal" x="54" y="91" text-anchor="start" dominant-baseline="alphabetic" fill-opacity="1">4.5</text><text fill="none" stroke="rgb(255,255,255)" font-family="geogebra-sans-serif, sans-serif" font-size="12px" font-style="normal" font-weight="normal" text-decoration="normal" x="54" y="91" text-anchor="start" dominant-baseline="alphabetic" stroke-opacity="1" stroke-linejoin="bevel" stroke-miterlimit="10" stroke-width="3">4.5</text><text fill="rgb(0,0,0)" stroke="none" font-family="geogebra-sans-serif, sans-serif" font-size="12px" font-style="normal" font-weight="normal" text-decoration="normal" x="54" y="91" text-anchor="start" dominant-baseline="alphabetic" fill-opacity="1">4.5</text><text fill="rgb(0,0,0)" stroke="none" font-family="geogebra-sans-serif, sans-serif" font-size="12px" font-style="normal" font-weight="normal" text-decoration="normal" x="64" y="27" text-anchor="start" dominant-baseline="alphabetic" fill-opacity="1">5</text><text fill="none" stroke="rgb(255,255,255)" font-family="geogebra-sans-serif, sans-serif" font-size="12px" font-style="normal" font-weight="normal" text-decoration="normal" x="64" y="27" text-anchor="start" dominant-baseline="alphabetic" stroke-opacity="1" stroke-linejoin="bevel" stroke-miterlimit="10" stroke-width="3">5</text><text fill="rgb(0,0,0)" stroke="none" font-family="geogebra-sans-serif, sans-serif" font-size="12px" font-style="normal" font-weight="normal" text-decoration="normal" x="64" y="27" text-anchor="start" dominant-baseline="alphabetic" fill-opacity="1">5</text><text fill="rgb(0,0,0)" stroke="none" font-family="geogebra-sans-serif, sans-serif" font-size="12px" font-style="normal" font-weight="normal" text-decoration="normal" x="64" y="670" text-anchor="start" dominant-baseline="alphabetic" fill-opacity="1">0</text><text fill="none" stroke="rgb(255,255,255)" font-family="geogebra-sans-serif, sans-serif" font-size="12px" font-style="normal" font-weight="normal" text-decoration="normal" x="64" y="670" text-anchor="start" dominant-baseline="alphabetic" stroke-opacity="1" stroke-linejoin="bevel" stroke-miterlimit="10" stroke-width="3">0</text><text fill="rgb(0,0,0)" stroke="none" font-family="geogebra-sans-serif, sans-serif" font-size="12px" font-style="normal" font-weight="normal" text-decoration="normal" x="64" y="670" text-anchor="start" dominant-baseline="alphabetic" fill-opacity="1">0</text><path fill="none" stroke="rgb(0,0,0)" paint-order="fill stroke markers" d=" M 331.1160147463759 464.92832812686936 C 331.1160147463759 534.6748661559086 274.5752742467074 591.2156066555774 204.8287362176685 591.2156066555774 C 135.0821981886296 591.2156066555774 78.5414576889611 534.6748661559086 78.5414576889611 464.92832812686936 C 78.5414576889611 395.1817900978301 135.0821981886296 338.6410495981613 204.8287362176685 338.6410495981613 C 274.5752742467074 338.6410495981613 331.1160147463759 395.1817900978301 331.1160147463759 464.92832812686936 Z" stroke-opacity="0.6980392156862745" stroke-linecap="round" stroke-linejoin="round" stroke-miterlimit="10" stroke-width="2.5"/><path fill="none" stroke="rgb(0,0,0)" paint-order="fill stroke markers" d=" M 636.0004753255698 212.35377106945327 C 636.0004753255698 310.9902710786914 556.0397932843209 390.9509531199408 457.4032932750833 390.9509531199408 C 358.76679326584565 390.9509531199408 278.8061112245967 310.9902710786914 278.8061112245967 212.35377106945327 C 278.8061112245967 113.71727106021513 358.76679326584565 33.75658901896577 457.4032932750833 33.75658901896577 C 556.0397932843209 33.75658901896577 636.0004753255698 113.71727106021513 636.0004753255698 212.35377106945327 Z" stroke-opacity="0.6980392156862745" stroke-linecap="round" stroke-linejoin="round" stroke-miterlimit="10" stroke-width="2.5"/><path fill="none" stroke="rgb(255,51,102)" paint-order="fill stroke markers" d=" M 204.8287362176685 464.92832812686936 L 457.4032932750833 212.35377106945327" stroke-opacity="0.6980392156862745" stroke-linecap="round" stroke-linejoin="round" stroke-miterlimit="10" stroke-width="2.5"/><text fill="rgb(255,51,102)" stroke="none" font-family="geogebra-sans-serif, sans-serif" font-size="16px" font-style="normal" font-weight="normal" text-decoration="normal" x="342" y="349" text-anchor="start" dominant-baseline="alphabetic" fill-opacity="1">c</text><text fill="none" stroke="rgb(255,255,255)" font-family="geogebra-sans-serif, sans-serif" font-size="16px" font-style="normal" font-weight="normal" text-decoration="normal" x="342" y="349" text-anchor="start" dominant-baseline="alphabetic" stroke-opacity="1" stroke-linejoin="bevel" stroke-miterlimit="10" stroke-width="3">c</text><text fill="rgb(255,51,102)" stroke="none" font-family="geogebra-sans-serif, sans-serif" font-size="16px" font-style="normal" font-weight="normal" text-decoration="normal" x="342" y="349" text-anchor="start" dominant-baseline="alphabetic" fill-opacity="1">c</text><path fill="none" stroke="rgb(0,0,0)" paint-order="fill stroke markers" d=" M 457.4032932750833 212.35377106945327 L 457.4032932750833 654.3592459199315" stroke-opacity="0.6980392156862745" stroke-linejoin="round" stroke-miterlimit="10" stroke-width="2.5" stroke-dasharray="6.5,4"/><path fill="none" stroke="rgb(0,0,0)" paint-order="fill stroke markers" d=" M 204.8287362176685 464.92832812686936 L 204.8287362176685 654.3592459199315" stroke-opacity="0.6980392156862745" stroke-linejoin="round" stroke-miterlimit="10" stroke-width="2.5" stroke-dasharray="6.5,4"/><path fill="none" stroke="rgb(0,0,0)" paint-order="fill stroke markers" d=" M 204.8287362176685 464.92832812686936 L 78.54145768896109 464.92832812686936" stroke-opacity="0.6980392156862745" stroke-linejoin="round" stroke-miterlimit="10" stroke-width="2.5" stroke-dasharray="6.5,4"/><path fill="none" stroke="rgb(0,0,0)" paint-order="fill stroke markers" d=" M 457.4032932750833 212.35377106945327 L 78.54145768896109 212.35377106945327" stroke-opacity="0.6980392156862745" stroke-linejoin="round" stroke-miterlimit="10" stroke-width="2.5" stroke-dasharray="6.5,4"/><path fill="rgb(77,77,255)" stroke="none" paint-order="stroke fill markers" d=" M 209.8287362176685 464.92832812686936 C 209.8287362176685 467.6897518760233 207.59015996682248 469.92832812686936 204.8287362176685 469.92832812686936 C 202.06731246851453 469.92832812686936 199.8287362176685 467.6897518760233 199.8287362176685 464.92832812686936 C 199.8287362176685 462.1669043777154 202.06731246851453 459.92832812686936 204.8287362176685 459.92832812686936 C 207.59015996682248 459.92832812686936 209.8287362176685 462.1669043777154 209.8287362176685 464.92832812686936 Z" fill-opacity="1"/><path fill="none" stroke="rgb(0,0,0)" paint-order="fill stroke markers" d=" M 209.8287362176685 464.92832812686936 C 209.8287362176685 467.6897518760233 207.59015996682248 469.92832812686936 204.8287362176685 469.92832812686936 C 202.06731246851453 469.92832812686936 199.8287362176685 467.6897518760233 199.8287362176685 464.92832812686936 C 199.8287362176685 462.1669043777154 202.06731246851453 459.92832812686936 204.8287362176685 459.92832812686936 C 207.59015996682248 459.92832812686936 209.8287362176685 462.1669043777154 209.8287362176685 464.92832812686936 Z" stroke-opacity="1" stroke-linecap="round" stroke-linejoin="round" stroke-miterlimit="10"/><text fill="rgb(77,77,255)" stroke="none" font-family="geogebra-sans-serif, sans-serif" font-size="16px" font-style="normal" font-weight="normal" text-decoration="normal" x="209" y="455" text-anchor="start" dominant-baseline="alphabetic" fill-opacity="1">O1</text><text fill="none" stroke="rgb(255,255,255)" font-family="geogebra-sans-serif, sans-serif" font-size="16px" font-style="normal" font-weight="normal" text-decoration="normal" x="209" y="455" text-anchor="start" dominant-baseline="alphabetic" stroke-opacity="1" stroke-linejoin="bevel" stroke-miterlimit="10" stroke-width="3">O1</text><text fill="rgb(77,77,255)" stroke="none" font-family="geogebra-sans-serif, sans-serif" font-size="16px" font-style="normal" font-weight="normal" text-decoration="normal" x="209" y="455" text-anchor="start" dominant-baseline="alphabetic" fill-opacity="1">O1</text><path fill="rgb(77,77,255)" stroke="none" paint-order="stroke fill markers" d=" M 462.4032932750833 212.35377106945327 C 462.4032932750833 215.11519481860725 460.16471702423723 217.35377106945327 457.4032932750833 217.35377106945327 C 454.64186952592934 217.35377106945327 452.4032932750833 215.11519481860725 452.4032932750833 212.35377106945327 C 452.4032932750833 209.5923473202993 454.64186952592934 207.35377106945327 457.4032932750833 207.35377106945327 C 460.16471702423723 207.35377106945327 462.4032932750833 209.5923473202993 462.4032932750833 212.35377106945327 Z" fill-opacity="1"/><path fill="none" stroke="rgb(0,0,0)" paint-order="fill stroke markers" d=" M 462.4032932750833 212.35377106945327 C 462.4032932750833 215.11519481860725 460.16471702423723 217.35377106945327 457.4032932750833 217.35377106945327 C 454.64186952592934 217.35377106945327 452.4032932750833 215.11519481860725 452.4032932750833 212.35377106945327 C 452.4032932750833 209.5923473202993 454.64186952592934 207.35377106945327 457.4032932750833 207.35377106945327 C 460.16471702423723 207.35377106945327 462.4032932750833 209.5923473202993 462.4032932750833 212.35377106945327 Z" stroke-opacity="1" stroke-linecap="round" stroke-linejoin="round" stroke-miterlimit="10"/><text fill="rgb(77,77,255)" stroke="none" font-family="geogebra-sans-serif, sans-serif" font-size="16px" font-style="normal" font-weight="normal" text-decoration="normal" x="461" y="202" text-anchor="start" dominant-baseline="alphabetic" fill-opacity="1">O2</text><text fill="none" stroke="rgb(255,255,255)" font-family="geogebra-sans-serif, sans-serif" font-size="16px" font-style="normal" font-weight="normal" text-decoration="normal" x="461" y="202" text-anchor="start" dominant-baseline="alphabetic" stroke-opacity="1" stroke-linejoin="bevel" stroke-miterlimit="10" stroke-width="3">O2</text><text fill="rgb(77,77,255)" stroke="none" font-family="geogebra-sans-serif, sans-serif" font-size="16px" font-style="normal" font-weight="normal" text-decoration="normal" x="461" y="202" text-anchor="start" dominant-baseline="alphabetic" fill-opacity="1">O2</text><path fill="rgb(125,125,255)" stroke="none" paint-order="stroke fill markers" d=" M 462.4032932750833 654.3592459199315 C 462.4032932750833 657.1206696690855 460.16471702423723 659.3592459199315 457.4032932750833 659.3592459199315 C 454.64186952592934 659.3592459199315 452.4032932750833 657.1206696690855 452.4032932750833 654.3592459199315 C 452.4032932750833 651.5978221707775 454.64186952592934 649.3592459199315 457.4032932750833 649.3592459199315 C 460.16471702423723 649.3592459199315 462.4032932750833 651.5978221707775 462.4032932750833 654.3592459199315 Z" fill-opacity="1"/><path fill="none" stroke="rgb(0,0,0)" paint-order="fill stroke markers" d=" M 462.4032932750833 654.3592459199315 C 462.4032932750833 657.1206696690855 460.16471702423723 659.3592459199315 457.4032932750833 659.3592459199315 C 454.64186952592934 659.3592459199315 452.4032932750833 657.1206696690855 452.4032932750833 654.3592459199315 C 452.4032932750833 651.5978221707775 454.64186952592934 649.3592459199315 457.4032932750833 649.3592459199315 C 460.16471702423723 649.3592459199315 462.4032932750833 651.5978221707775 462.4032932750833 654.3592459199315 Z" stroke-opacity="1" stroke-linecap="round" stroke-linejoin="round" stroke-miterlimit="10"/><text fill="rgb(125,125,255)" stroke="none" font-family="geogebra-sans-serif, sans-serif" font-size="16px" font-style="normal" font-weight="normal" text-decoration="normal" x="461" y="644" text-anchor="start" dominant-baseline="alphabetic" fill-opacity="1">X2</text><text fill="none" stroke="rgb(255,255,255)" font-family="geogebra-sans-serif, sans-serif" font-size="16px" font-style="normal" font-weight="normal" text-decoration="normal" x="461" y="644" text-anchor="start" dominant-baseline="alphabetic" stroke-opacity="1" stroke-linejoin="bevel" stroke-miterlimit="10" stroke-width="3">X2</text><text fill="rgb(125,125,255)" stroke="none" font-family="geogebra-sans-serif, sans-serif" font-size="16px" font-style="normal" font-weight="normal" text-decoration="normal" x="461" y="644" text-anchor="start" dominant-baseline="alphabetic" fill-opacity="1">X2</text><path fill="rgb(77,77,255)" stroke="none" paint-order="stroke fill markers" d=" M 209.8287362176685 654.3592459199315 C 209.8287362176685 657.1206696690855 207.59015996682248 659.3592459199315 204.8287362176685 659.3592459199315 C 202.06731246851453 659.3592459199315 199.8287362176685 657.1206696690855 199.8287362176685 654.3592459199315 C 199.8287362176685 651.5978221707775 202.06731246851453 649.3592459199315 204.8287362176685 649.3592459199315 C 207.59015996682248 649.3592459199315 209.8287362176685 651.5978221707775 209.8287362176685 654.3592459199315 Z" fill-opacity="1"/><path fill="none" stroke="rgb(0,0,0)" paint-order="fill stroke markers" d=" M 209.8287362176685 654.3592459199315 C 209.8287362176685 657.1206696690855 207.59015996682248 659.3592459199315 204.8287362176685 659.3592459199315 C 202.06731246851453 659.3592459199315 199.8287362176685 657.1206696690855 199.8287362176685 654.3592459199315 C 199.8287362176685 651.5978221707775 202.06731246851453 649.3592459199315 204.8287362176685 649.3592459199315 C 207.59015996682248 649.3592459199315 209.8287362176685 651.5978221707775 209.8287362176685 654.3592459199315 Z" stroke-opacity="1" stroke-linecap="round" stroke-linejoin="round" stroke-miterlimit="10"/><text fill="rgb(77,77,255)" stroke="none" font-family="geogebra-sans-serif, sans-serif" font-size="16px" font-style="normal" font-weight="normal" text-decoration="normal" x="209" y="644" text-anchor="start" dominant-baseline="alphabetic" fill-opacity="1">X1</text><text fill="none" stroke="rgb(255,255,255)" font-family="geogebra-sans-serif, sans-serif" font-size="16px" font-style="normal" font-weight="normal" text-decoration="normal" x="209" y="644" text-anchor="start" dominant-baseline="alphabetic" stroke-opacity="1" stroke-linejoin="bevel" stroke-miterlimit="10" stroke-width="3">X1</text><text fill="rgb(77,77,255)" stroke="none" font-family="geogebra-sans-serif, sans-serif" font-size="16px" font-style="normal" font-weight="normal" text-decoration="normal" x="209" y="644" text-anchor="start" dominant-baseline="alphabetic" fill-opacity="1">X1</text><path fill="rgb(51,51,255)" stroke="none" paint-order="stroke fill markers" d=" M 82.54145768896109 464.92832812686936 C 82.54145768896109 467.1374671261925 80.75059668828426 468.92832812686936 78.54145768896109 468.92832812686936 C 76.33231868963792 468.92832812686936 74.54145768896109 467.1374671261925 74.54145768896109 464.92832812686936 C 74.54145768896109 462.7191891275462 76.33231868963792 460.92832812686936 78.54145768896109 460.92832812686936 C 80.75059668828426 460.92832812686936 82.54145768896109 462.7191891275462 82.54145768896109 464.92832812686936 Z" fill-opacity="1"/><path fill="none" stroke="rgb(0,0,0)" paint-order="fill stroke markers" d=" M 82.54145768896109 464.92832812686936 C 82.54145768896109 467.1374671261925 80.75059668828426 468.92832812686936 78.54145768896109 468.92832812686936 C 76.33231868963792 468.92832812686936 74.54145768896109 467.1374671261925 74.54145768896109 464.92832812686936 C 74.54145768896109 462.7191891275462 76.33231868963792 460.92832812686936 78.54145768896109 460.92832812686936 C 80.75059668828426 460.92832812686936 82.54145768896109 462.7191891275462 82.54145768896109 464.92832812686936 Z" stroke-opacity="1" stroke-linecap="round" stroke-linejoin="round" stroke-miterlimit="10"/><text fill="rgb(51,51,255)" stroke="none" font-family="geogebra-sans-serif, sans-serif" font-size="16px" font-style="normal" font-weight="normal" text-decoration="normal" x="83" y="457" text-anchor="start" dominant-baseline="alphabetic" fill-opacity="1">Y1</text><text fill="none" stroke="rgb(255,255,255)" font-family="geogebra-sans-serif, sans-serif" font-size="16px" font-style="normal" font-weight="normal" text-decoration="normal" x="83" y="457" text-anchor="start" dominant-baseline="alphabetic" stroke-opacity="1" stroke-linejoin="bevel" stroke-miterlimit="10" stroke-width="3">Y1</text><text fill="rgb(51,51,255)" stroke="none" font-family="geogebra-sans-serif, sans-serif" font-size="16px" font-style="normal" font-weight="normal" text-decoration="normal" x="83" y="457" text-anchor="start" dominant-baseline="alphabetic" fill-opacity="1">Y1</text><path fill="rgb(125,125,255)" stroke="none" paint-order="stroke fill markers" d=" M 83.54145768896109 212.35377106945327 C 83.54145768896109 215.11519481860725 81.30288143811505 217.35377106945327 78.54145768896109 217.35377106945327 C 75.78003393980713 217.35377106945327 73.54145768896109 215.11519481860725 73.54145768896109 212.35377106945327 C 73.54145768896109 209.5923473202993 75.78003393980713 207.35377106945327 78.54145768896109 207.35377106945327 C 81.30288143811505 207.35377106945327 83.54145768896109 209.5923473202993 83.54145768896109 212.35377106945327 Z" fill-opacity="1"/><path fill="none" stroke="rgb(0,0,0)" paint-order="fill stroke markers" d=" M 83.54145768896109 212.35377106945327 C 83.54145768896109 215.11519481860725 81.30288143811505 217.35377106945327 78.54145768896109 217.35377106945327 C 75.78003393980713 217.35377106945327 73.54145768896109 215.11519481860725 73.54145768896109 212.35377106945327 C 73.54145768896109 209.5923473202993 75.78003393980713 207.35377106945327 78.54145768896109 207.35377106945327 C 81.30288143811505 207.35377106945327 83.54145768896109 209.5923473202993 83.54145768896109 212.35377106945327 Z" stroke-opacity="1" stroke-linecap="round" stroke-linejoin="round" stroke-miterlimit="10"/><text fill="rgb(125,125,255)" stroke="none" font-family="geogebra-sans-serif, sans-serif" font-size="16px" font-style="normal" font-weight="normal" text-decoration="normal" x="83" y="202" text-anchor="start" dominant-baseline="alphabetic" fill-opacity="1">Y2</text><text fill="none" stroke="rgb(255,255,255)" font-family="geogebra-sans-serif, sans-serif" font-size="16px" font-style="normal" font-weight="normal" text-decoration="normal" x="83" y="202" text-anchor="start" dominant-baseline="alphabetic" stroke-opacity="1" stroke-linejoin="bevel" stroke-miterlimit="10" stroke-width="3">Y2</text><text fill="rgb(125,125,255)" stroke="none" font-family="geogebra-sans-serif, sans-serif" font-size="16px" font-style="normal" font-weight="normal" text-decoration="normal" x="83" y="202" text-anchor="start" dominant-baseline="alphabetic" fill-opacity="1">Y2</text></g></g></svg>