<svg version="1.1" xmlns="http://www.w3.org/2000/svg" xmlns:xlink="http://www.w3.org/1999/xlink" width="748" height="700"><defs><clipPath id="WCHxVTeGoOwT"><path fill="none" stroke="none" d=" M 0 0 L 748 0 L 748 700 L 0 700 L 0 0 Z"/></clipPath></defs><g transform="scale(1,1)" clip-path="url(#WCHxVTeGoOwT)"><g><rect fill="rgb(255,255,255)" stroke="none" x="0" y="0" width="748" height="700" fill-opacity="1"/><path fill="none" stroke="rgb(192,192,192)" paint-order="fill stroke markers" d=" M 136.5 0.5 L 136.5 700.5 M 221.5 0.5 L 221.5 700.5 M 306.5 0.5 L 306.5 700.5 M 392.5 0.5 L 392.5 700.5 M 477.5 0.5 L 477.5 700.5 M 562.5 0.5 L 562.5 700.5 M 647.5 0.5 L 647.5 700.5 M 732.5 0.5 L 732.5 700.5" stroke-opacity="1" stroke-linecap="round" stroke-linejoin="round" stroke-miterlimit="10"/><path fill="none" stroke="rgb(192,192,192)" paint-order="fill stroke markers" d=" M 0.5 0.5 L 0.5 700.5 M 17.5 0.5 L 17.5 700.5 M 34.5 0.5 L 34.5 700.5 M 68.5 0.5 L 68.5 700.5 M 85.5 0.5 L 85.5 700.5 M 102.5 0.5 L 102.5 700.5 M 119.5 0.5 L 119.5 700.5 M 153.5 0.5 L 153.5 700.5 M 170.5 0.5 L 170.5 700.5 M 187.5 0.5 L 187.5 700.5 M 204.5 0.5 L 204.5 700.5 M 238.5 0.5 L 238.5 700.5 M 255.5 0.5 L 255.5 700.5 M 272.5 0.5 L 272.5 700.5 M 289.5 0.5 L 289.5 700.5 M 323.5 0.5 L 323.5 700.5 M 340.5 0.5 L 340.5 700.5 M 358.5 0.5 L 358.5 700.5 M 375.5 0.5 L 375.5 700.5 M 409.5 0.5 L 409.5 700.5 M 426.5 0.5 L 426.5 700.5 M 443.5 0.5 L 443.5 700.5 M 460.5 0.5 L 460.5 700.5 M 494.5 0.5 L 494.5 700.5 M 511.5 0.5 L 511.5 700.5 M 528.5 0.5 L 528.5 700.5 M 545.5 0.5 L 545.5 700.5 M 579.5 0.5 L 579.5 700.5 M 596.5 0.5 L 596.5 700.5 M 613.5 0.5 L 613.5 700.5 M 630.5 0.5 L 630.5 700.5 M 664.5 0.5 L 664.5 700.5 M 681.5 0.5 L 681.5 700.5 M 698.5 0.5 L 698.5 700.5 M 715.5 0.5 L 715.5 700.5" stroke-opacity="0.23529411764705882" stroke-linecap="round" stroke-linejoin="round" stroke-miterlimit="10"/><path fill="none" stroke="rgb(192,192,192)" paint-order="fill stroke markers" d=" M 0.5 36.5 L 748.5 36.5 M 0.5 36.5 L 748.5 36.5 M 0.5 121.5 L 748.5 121.5 M 0.5 206.5 L 748.5 206.5 M 0.5 291.5 L 748.5 291.5 M 0.5 376.5 L 748.5 376.5 M 0.5 462.5 L 748.5 462.5 M 0.5 547.5 L 748.5 547.5" stroke-opacity="1" stroke-linecap="round" stroke-linejoin="round" stroke-miterlimit="10"/><path fill="none" stroke="rgb(192,192,192)" paint-order="fill stroke markers" d=" M 0.5 2.5 L 748.5 2.5 M 0.5 2.5 L 748.5 2.5 M 0.5 19.5 L 748.5 19.5 M 0.5 53.5 L 748.5 53.5 M 0.5 70.5 L 748.5 70.5 M 0.5 87.5 L 748.5 87.5 M 0.5 104.5 L 748.5 104.5 M 0.5 138.5 L 748.5 138.5 M 0.5 155.5 L 748.5 155.5 M 0.5 172.5 L 748.5 172.5 M 0.5 189.5 L 748.5 189.5 M 0.5 223.5 L 748.5 223.5 M 0.5 240.5 L 748.5 240.5 M 0.5 257.5 L 748.5 257.5 M 0.5 274.5 L 748.5 274.5 M 0.5 308.5 L 748.5 308.5 M 0.5 325.5 L 748.5 325.5 M 0.5 342.5 L 748.5 342.5 M 0.5 359.5 L 748.5 359.5 M 0.5 393.5 L 748.5 393.5 M 0.5 410.5 L 748.5 410.5 M 0.5 427.5 L 748.5 427.5 M 0.5 445.5 L 748.5 445.5 M 0.5 479.5 L 748.5 479.5 M 0.5 496.5 L 748.5 496.5 M 0.5 513.5 L 748.5 513.5 M 0.5 530.5 L 748.5 530.5 M 0.5 564.5 L 748.5 564.5 M 0.5 581.5 L 748.5 581.5 M 0.5 598.5 L 748.5 598.5 M 0.5 615.5 L 748.5 615.5 M 0.5 649.5 L 748.5 649.5 M 0.5 666.5 L 748.5 666.5 M 0.5 683.5 L 748.5 683.5" stroke-opacity="0.23529411764705882" stroke-linecap="round" stroke-linejoin="round" stroke-miterlimit="10"/><path fill="none" stroke="rgb(0,0,0)" paint-order="fill stroke markers" d=" M 51.5 2.5 L 51.5 700.5" stroke-opacity="1" stroke-miterlimit="10"/><path fill="none" stroke="rgb(0,0,0)" paint-order="fill stroke markers" d=" M 51.5 1.5 L 47.5 5.5" stroke-opacity="1" stroke-miterlimit="10"/><path fill="none" stroke="rgb(0,0,0)" paint-order="fill stroke markers" d=" M 51.5 1.5 L 55.5 5.5" stroke-opacity="1" stroke-miterlimit="10"/><path fill="none" stroke="rgb(0,0,0)" paint-order="fill stroke markers" d=" M 0.5 632.5 L 746.5 632.5" stroke-opacity="1" stroke-miterlimit="10"/><path fill="none" stroke="rgb(0,0,0)" paint-order="fill stroke markers" d=" M 747.5 632.5 L 743.5 628.5" stroke-opacity="1" stroke-miterlimit="10"/><path fill="none" stroke="rgb(0,0,0)" paint-order="fill stroke markers" d=" M 747.5 632.5 L 743.5 636.5" stroke-opacity="1" stroke-miterlimit="10"/><text fill="rgb(0,0,0)" stroke="none" font-family="geogebra-sans-serif, sans-serif" font-size="12px" font-style="normal" font-weight="normal" text-decoration="normal" x="134" y="648" text-anchor="start" dominant-baseline="alphabetic" fill-opacity="1">1</text><text fill="none" stroke="rgb(255,255,255)" font-family="geogebra-sans-serif, sans-serif" font-size="12px" font-style="normal" font-weight="normal" text-decoration="normal" x="134" y="648" text-anchor="start" dominant-baseline="alphabetic" stroke-opacity="1" stroke-linejoin="bevel" stroke-miterlimit="10" stroke-width="3">1</text><text fill="rgb(0,0,0)" stroke="none" font-family="geogebra-sans-serif, sans-serif" font-size="12px" font-style="normal" font-weight="normal" text-decoration="normal" x="134" y="648" text-anchor="start" dominant-baseline="alphabetic" fill-opacity="1">1</text><text fill="rgb(0,0,0)" stroke="none" font-family="geogebra-sans-serif, sans-serif" font-size="12px" font-style="normal" font-weight="normal" text-decoration="normal" x="219" y="648" text-anchor="start" dominant-baseline="alphabetic" fill-opacity="1">2</text><text fill="none" stroke="rgb(255,255,255)" font-family="geogebra-sans-serif, sans-serif" font-size="12px" font-style="normal" font-weight="normal" text-decoration="normal" x="219" y="648" text-anchor="start" dominant-baseline="alphabetic" stroke-opacity="1" stroke-linejoin="bevel" stroke-miterlimit="10" stroke-width="3">2</text><text fill="rgb(0,0,0)" stroke="none" font-family="geogebra-sans-serif, sans-serif" font-size="12px" font-style="normal" font-weight="normal" text-decoration="normal" x="219" y="648" text-anchor="start" dominant-baseline="alphabetic" fill-opacity="1">2</text><text fill="rgb(0,0,0)" stroke="none" font-family="geogebra-sans-serif, sans-serif" font-size="12px" font-style="normal" font-weight="normal" text-decoration="normal" x="304" y="648" text-anchor="start" dominant-baseline="alphabetic" fill-opacity="1">3</text><text fill="none" stroke="rgb(255,255,255)" font-family="geogebra-sans-serif, sans-serif" font-size="12px" font-style="normal" font-weight="normal" text-decoration="normal" x="304" y="648" text-anchor="start" dominant-baseline="alphabetic" stroke-opacity="1" stroke-linejoin="bevel" stroke-miterlimit="10" stroke-width="3">3</text><text fill="rgb(0,0,0)" stroke="none" font-family="geogebra-sans-serif, sans-serif" font-size="12px" font-style="normal" font-weight="normal" text-decoration="normal" x="304" y="648" text-anchor="start" dominant-baseline="alphabetic" fill-opacity="1">3</text><text fill="rgb(0,0,0)" stroke="none" font-family="geogebra-sans-serif, sans-serif" font-size="12px" font-style="normal" font-weight="normal" text-decoration="normal" x="390" y="648" text-anchor="start" dominant-baseline="alphabetic" fill-opacity="1">4</text><text fill="none" stroke="rgb(255,255,255)" font-family="geogebra-sans-serif, sans-serif" font-size="12px" font-style="normal" font-weight="normal" text-decoration="normal" x="390" y="648" text-anchor="start" dominant-baseline="alphabetic" stroke-opacity="1" stroke-linejoin="bevel" stroke-miterlimit="10" stroke-width="3">4</text><text fill="rgb(0,0,0)" stroke="none" font-family="geogebra-sans-serif, sans-serif" font-size="12px" font-style="normal" font-weight="normal" text-decoration="normal" x="390" y="648" text-anchor="start" dominant-baseline="alphabetic" fill-opacity="1">4</text><text fill="rgb(0,0,0)" stroke="none" font-family="geogebra-sans-serif, sans-serif" font-size="12px" font-style="normal" font-weight="normal" text-decoration="normal" x="475" y="648" text-anchor="start" dominant-baseline="alphabetic" fill-opacity="1">5</text><text fill="none" stroke="rgb(255,255,255)" font-family="geogebra-sans-serif, sans-serif" font-size="12px" font-style="normal" font-weight="normal" text-decoration="normal" x="475" y="648" text-anchor="start" dominant-baseline="alphabetic" stroke-opacity="1" stroke-linejoin="bevel" stroke-miterlimit="10" stroke-width="3">5</text><text fill="rgb(0,0,0)" stroke="none" font-family="geogebra-sans-serif, sans-serif" font-size="12px" font-style="normal" font-weight="normal" text-decoration="normal" x="475" y="648" text-anchor="start" dominant-baseline="alphabetic" fill-opacity="1">5</text><text fill="rgb(0,0,0)" stroke="none" font-family="geogebra-sans-serif, sans-serif" font-size="12px" font-style="normal" font-weight="normal" text-decoration="normal" x="560" y="648" text-anchor="start" dominant-baseline="alphabetic" fill-opacity="1">6</text><text fill="none" stroke="rgb(255,255,255)" font-family="geogebra-sans-serif, sans-serif" font-size="12px" font-style="normal" font-weight="normal" text-decoration="normal" x="560" y="648" text-anchor="start" dominant-baseline="alphabetic" stroke-opacity="1" stroke-linejoin="bevel" stroke-miterlimit="10" stroke-width="3">6</text><text fill="rgb(0,0,0)" stroke="none" font-family="geogebra-sans-serif, sans-serif" font-size="12px" font-style="normal" font-weight="normal" text-decoration="normal" x="560" y="648" text-anchor="start" dominant-baseline="alphabetic" fill-opacity="1">6</text><text fill="rgb(0,0,0)" stroke="none" font-family="geogebra-sans-serif, sans-serif" font-size="12px" font-style="normal" font-weight="normal" text-decoration="normal" x="645" y="648" text-anchor="start" dominant-baseline="alphabetic" fill-opacity="1">7</text><text fill="none" stroke="rgb(255,255,255)" font-family="geogebra-sans-serif, sans-serif" font-size="12px" font-style="normal" font-weight="normal" text-decoration="normal" x="645" y="648" text-anchor="start" dominant-baseline="alphabetic" stroke-opacity="1" stroke-linejoin="bevel" stroke-miterlimit="10" stroke-width="3">7</text><text fill="rgb(0,0,0)" stroke="none" font-family="geogebra-sans-serif, sans-serif" font-size="12px" font-style="normal" font-weight="normal" text-decoration="normal" x="645" y="648" text-anchor="start" dominant-baseline="alphabetic" fill-opacity="1">7</text><text fill="rgb(0,0,0)" stroke="none" font-family="geogebra-sans-serif, sans-serif" font-size="12px" font-style="normal" font-weight="normal" text-decoration="normal" x="730" y="648" text-anchor="start" dominant-baseline="alphabetic" fill-opacity="1">8</text><text fill="none" stroke="rgb(255,255,255)" font-family="geogebra-sans-serif, sans-serif" font-size="12px" font-style="normal" font-weight="normal" text-decoration="normal" x="730" y="648" text-anchor="start" dominant-baseline="alphabetic" stroke-opacity="1" stroke-linejoin="bevel" stroke-miterlimit="10" stroke-width="3">8</text><text fill="rgb(0,0,0)" stroke="none" font-family="geogebra-sans-serif, sans-serif" font-size="12px" font-style="normal" font-weight="normal" text-decoration="normal" x="730" y="648" text-anchor="start" dominant-baseline="alphabetic" fill-opacity="1">8</text><text fill="rgb(0,0,0)" stroke="none" font-family="geogebra-sans-serif, sans-serif" font-size="12px" font-style="normal" font-weight="normal" text-decoration="normal" x="37" y="552" text-anchor="start" dominant-baseline="alphabetic" fill-opacity="1">1</text><text fill="none" stroke="rgb(255,255,255)" font-family="geogebra-sans-serif, sans-serif" font-size="12px" font-style="normal" font-weight="normal" text-decoration="normal" x="37" y="552" text-anchor="start" dominant-baseline="alphabetic" stroke-opacity="1" stroke-linejoin="bevel" stroke-miterlimit="10" stroke-width="3">1</text><text fill="rgb(0,0,0)" stroke="none" font-family="geogebra-sans-serif, sans-serif" font-size="12px" font-style="normal" font-weight="normal" text-decoration="normal" x="37" y="552" text-anchor="start" dominant-baseline="alphabetic" fill-opacity="1">1</text><text fill="rgb(0,0,0)" stroke="none" font-family="geogebra-sans-serif, sans-serif" font-size="12px" font-style="normal" font-weight="normal" text-decoration="normal" x="37" y="467" text-anchor="start" dominant-baseline="alphabetic" fill-opacity="1">2</text><text fill="none" stroke="rgb(255,255,255)" font-family="geogebra-sans-serif, sans-serif" font-size="12px" font-style="normal" font-weight="normal" text-decoration="normal" x="37" y="467" text-anchor="start" dominant-baseline="alphabetic" stroke-opacity="1" stroke-linejoin="bevel" stroke-miterlimit="10" stroke-width="3">2</text><text fill="rgb(0,0,0)" stroke="none" font-family="geogebra-sans-serif, sans-serif" font-size="12px" font-style="normal" font-weight="normal" text-decoration="normal" x="37" y="467" text-anchor="start" dominant-baseline="alphabetic" fill-opacity="1">2</text><text fill="rgb(0,0,0)" stroke="none" font-family="geogebra-sans-serif, sans-serif" font-size="12px" font-style="normal" font-weight="normal" text-decoration="normal" x="37" y="381" text-anchor="start" dominant-baseline="alphabetic" fill-opacity="1">3</text><text fill="none" stroke="rgb(255,255,255)" font-family="geogebra-sans-serif, sans-serif" font-size="12px" font-style="normal" font-weight="normal" text-decoration="normal" x="37" y="381" text-anchor="start" dominant-baseline="alphabetic" stroke-opacity="1" stroke-linejoin="bevel" stroke-miterlimit="10" stroke-width="3">3</text><text fill="rgb(0,0,0)" stroke="none" font-family="geogebra-sans-serif, sans-serif" font-size="12px" font-style="normal" font-weight="normal" text-decoration="normal" x="37" y="381" text-anchor="start" dominant-baseline="alphabetic" fill-opacity="1">3</text><text fill="rgb(0,0,0)" stroke="none" font-family="geogebra-sans-serif, sans-serif" font-size="12px" font-style="normal" font-weight="normal" text-decoration="normal" x="37" y="296" text-anchor="start" dominant-baseline="alphabetic" fill-opacity="1">4</text><text fill="none" stroke="rgb(255,255,255)" font-family="geogebra-sans-serif, sans-serif" font-size="12px" font-style="normal" font-weight="normal" text-decoration="normal" x="37" y="296" text-anchor="start" dominant-baseline="alphabetic" stroke-opacity="1" stroke-linejoin="bevel" stroke-miterlimit="10" stroke-width="3">4</text><text fill="rgb(0,0,0)" stroke="none" font-family="geogebra-sans-serif, sans-serif" font-size="12px" font-style="normal" font-weight="normal" text-decoration="normal" x="37" y="296" text-anchor="start" dominant-baseline="alphabetic" fill-opacity="1">4</text><text fill="rgb(0,0,0)" stroke="none" font-family="geogebra-sans-serif, sans-serif" font-size="12px" font-style="normal" font-weight="normal" text-decoration="normal" x="37" y="211" text-anchor="start" dominant-baseline="alphabetic" fill-opacity="1">5</text><text fill="none" stroke="rgb(255,255,255)" font-family="geogebra-sans-serif, sans-serif" font-size="12px" font-style="normal" font-weight="normal" text-decoration="normal" x="37" y="211" text-anchor="start" dominant-baseline="alphabetic" stroke-opacity="1" stroke-linejoin="bevel" stroke-miterlimit="10" stroke-width="3">5</text><text fill="rgb(0,0,0)" stroke="none" font-family="geogebra-sans-serif, sans-serif" font-size="12px" font-style="normal" font-weight="normal" text-decoration="normal" x="37" y="211" text-anchor="start" dominant-baseline="alphabetic" fill-opacity="1">5</text><text fill="rgb(0,0,0)" stroke="none" font-family="geogebra-sans-serif, sans-serif" font-size="12px" font-style="normal" font-weight="normal" text-decoration="normal" x="37" y="126" text-anchor="start" dominant-baseline="alphabetic" fill-opacity="1">6</text><text fill="none" stroke="rgb(255,255,255)" font-family="geogebra-sans-serif, sans-serif" font-size="12px" font-style="normal" font-weight="normal" text-decoration="normal" x="37" y="126" text-anchor="start" dominant-baseline="alphabetic" stroke-opacity="1" stroke-linejoin="bevel" stroke-miterlimit="10" stroke-width="3">6</text><text fill="rgb(0,0,0)" stroke="none" font-family="geogebra-sans-serif, sans-serif" font-size="12px" font-style="normal" font-weight="normal" text-decoration="normal" x="37" y="126" text-anchor="start" dominant-baseline="alphabetic" fill-opacity="1">6</text><text fill="rgb(0,0,0)" stroke="none" font-family="geogebra-sans-serif, sans-serif" font-size="12px" font-style="normal" font-weight="normal" text-decoration="normal" x="37" y="41" text-anchor="start" dominant-baseline="alphabetic" fill-opacity="1">7</text><text fill="none" stroke="rgb(255,255,255)" font-family="geogebra-sans-serif, sans-serif" font-size="12px" font-style="normal" font-weight="normal" text-decoration="normal" x="37" y="41" text-anchor="start" dominant-baseline="alphabetic" stroke-opacity="1" stroke-linejoin="bevel" stroke-miterlimit="10" stroke-width="3">7</text><text fill="rgb(0,0,0)" stroke="none" font-family="geogebra-sans-serif, sans-serif" font-size="12px" font-style="normal" font-weight="normal" text-decoration="normal" x="37" y="41" text-anchor="start" dominant-baseline="alphabetic" fill-opacity="1">7</text><text fill="rgb(0,0,0)" stroke="none" font-family="geogebra-sans-serif, sans-serif" font-size="12px" font-style="normal" font-weight="normal" text-decoration="normal" x="37" y="648" text-anchor="start" dominant-baseline="alphabetic" fill-opacity="1">0</text><text fill="none" stroke="rgb(255,255,255)" font-family="geogebra-sans-serif, sans-serif" font-size="12px" font-style="normal" font-weight="normal" text-decoration="normal" x="37" y="648" text-anchor="start" dominant-baseline="alphabetic" stroke-opacity="1" stroke-linejoin="bevel" stroke-miterlimit="10" stroke-width="3">0</text><text fill="rgb(0,0,0)" stroke="none" font-family="geogebra-sans-serif, sans-serif" font-size="12px" font-style="normal" font-weight="normal" text-decoration="normal" x="37" y="648" text-anchor="start" dominant-baseline="alphabetic" fill-opacity="1">0</text><path fill="none" stroke="rgb(0,0,0)" paint-order="fill stroke markers" d=" M 562.1956623418519 376.9357903722049 C 562.1956623418519 517.9031306277022 447.91905407498575 632.1797388945683 306.9517138194884 632.1797388945683 C 165.98437356399103 632.1797388945683 51.70776529712498 517.9031306277022 51.70776529712498 376.9357903722049 C 51.70776529712498 235.96845011670752 165.98437356399103 121.69184184984144 306.9517138194884 121.69184184984144 C 447.91905407498575 121.69184184984144 562.1956623418519 235.96845011670752 562.1956623418519 376.9357903722049 Z" stroke-opacity="0.6980392156862745" stroke-linecap="round" stroke-linejoin="round" stroke-miterlimit="10" stroke-width="2.5"/><path fill="none" stroke="rgb(0,0,0)" paint-order="fill stroke markers" d=" M 471.74801685131115 291.8544741980837 C 471.74801685131115 335.8798457725544 436.0584015680802 371.56946105578527 392.03302999360955 371.56946105578527 C 348.00765841913886 371.56946105578527 312.318043135908 335.8798457725544 312.318043135908 291.8544741980837 C 312.318043135908 247.82910262361304 348.00765841913886 212.13948734038215 392.03302999360955 212.13948734038215 C 436.0584015680802 212.13948734038215 471.74801685131115 247.82910262361304 471.74801685131115 291.8544741980837 Z" stroke-opacity="0.6980392156862745" stroke-linecap="round" stroke-linejoin="round" stroke-miterlimit="10" stroke-width="2.5"/><path fill="none" stroke="rgb(255,51,102)" paint-order="fill stroke markers" d=" M 306.9517138194884 376.9357903722049 L 392.03302999360955 291.8544741980837" stroke-opacity="0.6980392156862745" stroke-linecap="round" stroke-linejoin="round" stroke-miterlimit="10" stroke-width="2.5"/><text fill="rgb(255,51,102)" stroke="none" font-family="geogebra-sans-serif, sans-serif" font-size="16px" font-style="normal" font-weight="normal" text-decoration="normal" x="360" y="345" text-anchor="start" dominant-baseline="alphabetic" fill-opacity="1">c</text><text fill="none" stroke="rgb(255,255,255)" font-family="geogebra-sans-serif, sans-serif" font-size="16px" font-style="normal" font-weight="normal" text-decoration="normal" x="360" y="345" text-anchor="start" dominant-baseline="alphabetic" stroke-opacity="1" stroke-linejoin="bevel" stroke-miterlimit="10" stroke-width="3">c</text><text fill="rgb(255,51,102)" stroke="none" font-family="geogebra-sans-serif, sans-serif" font-size="16px" font-style="normal" font-weight="normal" text-decoration="normal" x="360" y="345" text-anchor="start" dominant-baseline="alphabetic" fill-opacity="1">c</text><path fill="none" stroke="rgb(0,0,0)" paint-order="fill stroke markers" d=" M 392.03302999360955 291.8544741980837 L 392.03302999360955 632.1797388945683" stroke-opacity="0.6980392156862745" stroke-linejoin="round" stroke-miterlimit="10" stroke-width="2.5" stroke-dasharray="6.5,4"/><path fill="none" stroke="rgb(0,0,0)" paint-order="fill stroke markers" d=" M 306.9517138194884 376.9357903722049 L 306.9517138194884 632.1797388945683" stroke-opacity="0.6980392156862745" stroke-linejoin="round" stroke-miterlimit="10" stroke-width="2.5" stroke-dasharray="6.5,4"/><path fill="none" stroke="rgb(0,0,0)" paint-order="fill stroke markers" d=" M 306.9517138194884 376.9357903722049 L 51.70776529712499 376.9357903722049" stroke-opacity="0.6980392156862745" stroke-linejoin="round" stroke-miterlimit="10" stroke-width="2.5" stroke-dasharray="6.5,4"/><path fill="none" stroke="rgb(0,0,0)" paint-order="fill stroke markers" d=" M 392.03302999360955 291.8544741980837 L 51.70776529712499 291.8544741980837" stroke-opacity="0.6980392156862745" stroke-linejoin="round" stroke-miterlimit="10" stroke-width="2.5" stroke-dasharray="6.5,4"/><path fill="rgb(77,77,255)" stroke="none" paint-order="stroke fill markers" d=" M 311.9517138194884 376.9357903722049 C 311.9517138194884 379.69721412135885 309.71313756864237 381.9357903722049 306.9517138194884 381.9357903722049 C 304.19029007033447 381.9357903722049 301.9517138194884 379.69721412135885 301.9517138194884 376.9357903722049 C 301.9517138194884 374.17436662305096 304.19029007033447 371.9357903722049 306.9517138194884 371.9357903722049 C 309.71313756864237 371.9357903722049 311.9517138194884 374.17436662305096 311.9517138194884 376.9357903722049 Z" fill-opacity="1"/><path fill="none" stroke="rgb(0,0,0)" paint-order="fill stroke markers" d=" M 311.9517138194884 376.9357903722049 C 311.9517138194884 379.69721412135885 309.71313756864237 381.9357903722049 306.9517138194884 381.9357903722049 C 304.19029007033447 381.9357903722049 301.9517138194884 379.69721412135885 301.9517138194884 376.9357903722049 C 301.9517138194884 374.17436662305096 304.19029007033447 371.9357903722049 306.9517138194884 371.9357903722049 C 309.71313756864237 371.9357903722049 311.9517138194884 374.17436662305096 311.9517138194884 376.9357903722049 Z" stroke-opacity="1" stroke-linecap="round" stroke-linejoin="round" stroke-miterlimit="10"/><text fill="rgb(77,77,255)" stroke="none" font-family="geogebra-sans-serif, sans-serif" font-size="16px" font-style="normal" font-weight="normal" text-decoration="normal" x="311" y="367" text-anchor="start" dominant-baseline="alphabetic" fill-opacity="1">O1</text><text fill="none" stroke="rgb(255,255,255)" font-family="geogebra-sans-serif, sans-serif" font-size="16px" font-style="normal" font-weight="normal" text-decoration="normal" x="311" y="367" text-anchor="start" dominant-baseline="alphabetic" stroke-opacity="1" stroke-linejoin="bevel" stroke-miterlimit="10" stroke-width="3">O1</text><text fill="rgb(77,77,255)" stroke="none" font-family="geogebra-sans-serif, sans-serif" font-size="16px" font-style="normal" font-weight="normal" text-decoration="normal" x="311" y="367" text-anchor="start" dominant-baseline="alphabetic" fill-opacity="1">O1</text><path fill="rgb(77,77,255)" stroke="none" paint-order="stroke fill markers" d=" M 311.9517138194884 632.1797388945683 C 311.9517138194884 634.9411626437224 309.71313756864237 637.1797388945683 306.9517138194884 637.1797388945683 C 304.19029007033447 637.1797388945683 301.9517138194884 634.9411626437224 301.9517138194884 632.1797388945683 C 301.9517138194884 629.4183151454143 304.19029007033447 627.1797388945683 306.9517138194884 627.1797388945683 C 309.71313756864237 627.1797388945683 311.9517138194884 629.4183151454143 311.9517138194884 632.1797388945683 Z" fill-opacity="1"/><path fill="none" stroke="rgb(0,0,0)" paint-order="fill stroke markers" d=" M 311.9517138194884 632.1797388945683 C 311.9517138194884 634.9411626437224 309.71313756864237 637.1797388945683 306.9517138194884 637.1797388945683 C 304.19029007033447 637.1797388945683 301.9517138194884 634.9411626437224 301.9517138194884 632.1797388945683 C 301.9517138194884 629.4183151454143 304.19029007033447 627.1797388945683 306.9517138194884 627.1797388945683 C 309.71313756864237 627.1797388945683 311.9517138194884 629.4183151454143 311.9517138194884 632.1797388945683 Z" stroke-opacity="1" stroke-linecap="round" stroke-linejoin="round" stroke-miterlimit="10"/><text fill="rgb(77,77,255)" stroke="none" font-family="geogebra-sans-serif, sans-serif" font-size="16px" font-style="normal" font-weight="normal" text-decoration="normal" x="311" y="622" text-anchor="start" dominant-baseline="alphabetic" fill-opacity="1">X1</text><text fill="none" stroke="rgb(255,255,255)" font-family="geogebra-sans-serif, sans-serif" font-size="16px" font-style="normal" font-weight="normal" text-decoration="normal" x="311" y="622" text-anchor="start" dominant-baseline="alphabetic" stroke-opacity="1" stroke-linejoin="bevel" stroke-miterlimit="10" stroke-width="3">X1</text><text fill="rgb(77,77,255)" stroke="none" font-family="geogebra-sans-serif, sans-serif" font-size="16px" font-style="normal" font-weight="normal" text-decoration="normal" x="311" y="622" text-anchor="start" dominant-baseline="alphabetic" fill-opacity="1">X1</text><path fill="rgb(77,77,255)" stroke="none" paint-order="stroke fill markers" d=" M 397.03302999360955 291.8544741980837 C 397.03302999360955 294.61589794723767 394.7944537427635 296.8544741980837 392.03302999360955 296.8544741980837 C 389.2716062444556 296.8544741980837 387.03302999360955 294.61589794723767 387.03302999360955 291.8544741980837 C 387.03302999360955 289.0930504489298 389.2716062444556 286.8544741980837 392.03302999360955 286.8544741980837 C 394.7944537427635 286.8544741980837 397.03302999360955 289.0930504489298 397.03302999360955 291.8544741980837 Z" fill-opacity="1"/><path fill="none" stroke="rgb(0,0,0)" paint-order="fill stroke markers" d=" M 397.03302999360955 291.8544741980837 C 397.03302999360955 294.61589794723767 394.7944537427635 296.8544741980837 392.03302999360955 296.8544741980837 C 389.2716062444556 296.8544741980837 387.03302999360955 294.61589794723767 387.03302999360955 291.8544741980837 C 387.03302999360955 289.0930504489298 389.2716062444556 286.8544741980837 392.03302999360955 286.8544741980837 C 394.7944537427635 286.8544741980837 397.03302999360955 289.0930504489298 397.03302999360955 291.8544741980837 Z" stroke-opacity="1" stroke-linecap="round" stroke-linejoin="round" stroke-miterlimit="10"/><text fill="rgb(77,77,255)" stroke="none" font-family="geogebra-sans-serif, sans-serif" font-size="16px" font-style="normal" font-weight="normal" text-decoration="normal" x="396" y="282" text-anchor="start" dominant-baseline="alphabetic" fill-opacity="1">O2</text><text fill="none" stroke="rgb(255,255,255)" font-family="geogebra-sans-serif, sans-serif" font-size="16px" font-style="normal" font-weight="normal" text-decoration="normal" x="396" y="282" text-anchor="start" dominant-baseline="alphabetic" stroke-opacity="1" stroke-linejoin="bevel" stroke-miterlimit="10" stroke-width="3">O2</text><text fill="rgb(77,77,255)" stroke="none" font-family="geogebra-sans-serif, sans-serif" font-size="16px" font-style="normal" font-weight="normal" text-decoration="normal" x="396" y="282" text-anchor="start" dominant-baseline="alphabetic" fill-opacity="1">O2</text><path fill="rgb(125,125,255)" stroke="none" paint-order="stroke fill markers" d=" M 397.03302999360955 632.1797388945683 C 397.03302999360955 634.9411626437224 394.7944537427635 637.1797388945683 392.03302999360955 637.1797388945683 C 389.2716062444556 637.1797388945683 387.03302999360955 634.9411626437224 387.03302999360955 632.1797388945683 C 387.03302999360955 629.4183151454143 389.2716062444556 627.1797388945683 392.03302999360955 627.1797388945683 C 394.7944537427635 627.1797388945683 397.03302999360955 629.4183151454143 397.03302999360955 632.1797388945683 Z" fill-opacity="1"/><path fill="none" stroke="rgb(0,0,0)" paint-order="fill stroke markers" d=" M 397.03302999360955 632.1797388945683 C 397.03302999360955 634.9411626437224 394.7944537427635 637.1797388945683 392.03302999360955 637.1797388945683 C 389.2716062444556 637.1797388945683 387.03302999360955 634.9411626437224 387.03302999360955 632.1797388945683 C 387.03302999360955 629.4183151454143 389.2716062444556 627.1797388945683 392.03302999360955 627.1797388945683 C 394.7944537427635 627.1797388945683 397.03302999360955 629.4183151454143 397.03302999360955 632.1797388945683 Z" stroke-opacity="1" stroke-linecap="round" stroke-linejoin="round" stroke-miterlimit="10"/><text fill="rgb(125,125,255)" stroke="none" font-family="geogebra-sans-serif, sans-serif" font-size="16px" font-style="normal" font-weight="normal" text-decoration="normal" x="396" y="622" text-anchor="start" dominant-baseline="alphabetic" fill-opacity="1">X2</text><text fill="none" stroke="rgb(255,255,255)" font-family="geogebra-sans-serif, sans-serif" font-size="16px" font-style="normal" font-weight="normal" text-decoration="normal" x="396" y="622" text-anchor="start" dominant-baseline="alphabetic" stroke-opacity="1" stroke-linejoin="bevel" stroke-miterlimit="10" stroke-width="3">X2</text><text fill="rgb(125,125,255)" stroke="none" font-family="geogebra-sans-serif, sans-serif" font-size="16px" font-style="normal" font-weight="normal" text-decoration="normal" x="396" y="622" text-anchor="start" dominant-baseline="alphabetic" fill-opacity="1">X2</text><path fill="rgb(51,51,255)" stroke="none" paint-order="stroke fill markers" d=" M 55.70776529712499 376.9357903722049 C 55.70776529712499 379.14492937152806 53.916904296448166 380.9357903722049 51.70776529712499 380.9357903722049 C 49.49862629780182 380.9357903722049 47.70776529712499 379.14492937152806 47.70776529712499 376.9357903722049 C 47.70776529712499 374.72665137288175 49.49862629780182 372.9357903722049 51.70776529712499 372.9357903722049 C 53.916904296448166 372.9357903722049 55.70776529712499 374.72665137288175 55.70776529712499 376.9357903722049 Z" fill-opacity="1"/><path fill="none" stroke="rgb(0,0,0)" paint-order="fill stroke markers" d=" M 55.70776529712499 376.9357903722049 C 55.70776529712499 379.14492937152806 53.916904296448166 380.9357903722049 51.70776529712499 380.9357903722049 C 49.49862629780182 380.9357903722049 47.70776529712499 379.14492937152806 47.70776529712499 376.9357903722049 C 47.70776529712499 374.72665137288175 49.49862629780182 372.9357903722049 51.70776529712499 372.9357903722049 C 53.916904296448166 372.9357903722049 55.70776529712499 374.72665137288175 55.70776529712499 376.9357903722049 Z" stroke-opacity="1" stroke-linecap="round" stroke-linejoin="round" stroke-miterlimit="10"/><text fill="rgb(51,51,255)" stroke="none" font-family="geogebra-sans-serif, sans-serif" font-size="16px" font-style="normal" font-weight="normal" text-decoration="normal" x="56" y="369" text-anchor="start" dominant-baseline="alphabetic" fill-opacity="1">Y1</text><text fill="none" stroke="rgb(255,255,255)" font-family="geogebra-sans-serif, sans-serif" font-size="16px" font-style="normal" font-weight="normal" text-decoration="normal" x="56" y="369" text-anchor="start" dominant-baseline="alphabetic" stroke-opacity="1" stroke-linejoin="bevel" stroke-miterlimit="10" stroke-width="3">Y1</text><text fill="rgb(51,51,255)" stroke="none" font-family="geogebra-sans-serif, sans-serif" font-size="16px" font-style="normal" font-weight="normal" text-decoration="normal" x="56" y="369" text-anchor="start" dominant-baseline="alphabetic" fill-opacity="1">Y1</text><path fill="rgb(77,77,255)" stroke="none" paint-order="stroke fill markers" d=" M 56.70776529712499 291.8544741980837 C 56.70776529712499 294.61589794723767 54.469189046278956 296.8544741980837 51.70776529712499 296.8544741980837 C 48.94634154797102 296.8544741980837 46.70776529712499 294.61589794723767 46.70776529712499 291.8544741980837 C 46.70776529712499 289.0930504489298 48.94634154797102 286.8544741980837 51.70776529712499 286.8544741980837 C 54.469189046278956 286.8544741980837 56.70776529712499 289.0930504489298 56.70776529712499 291.8544741980837 Z" fill-opacity="1"/><path fill="none" stroke="rgb(0,0,0)" paint-order="fill stroke markers" d=" M 56.70776529712499 291.8544741980837 C 56.70776529712499 294.61589794723767 54.469189046278956 296.8544741980837 51.70776529712499 296.8544741980837 C 48.94634154797102 296.8544741980837 46.70776529712499 294.61589794723767 46.70776529712499 291.8544741980837 C 46.70776529712499 289.0930504489298 48.94634154797102 286.8544741980837 51.70776529712499 286.8544741980837 C 54.469189046278956 286.8544741980837 56.70776529712499 289.0930504489298 56.70776529712499 291.8544741980837 Z" stroke-opacity="1" stroke-linecap="round" stroke-linejoin="round" stroke-miterlimit="10"/><text fill="rgb(77,77,255)" stroke="none" font-family="geogebra-sans-serif, sans-serif" font-size="16px" font-style="normal" font-weight="normal" text-decoration="normal" x="56" y="282" text-anchor="start" dominant-baseline="alphabetic" fill-opacity="1">Y2</text><text fill="none" stroke="rgb(255,255,255)" font-family="geogebra-sans-serif, sans-serif" font-size="16px" font-style="normal" font-weight="normal" text-decoration="normal" x="56" y="282" text-anchor="start" dominant-baseline="alphabetic" stroke-opacity="1" stroke-linejoin="bevel" stroke-miterlimit="10" stroke-width="3">Y2</text><text fill="rgb(77,77,255)" stroke="none" font-family="geogebra-sans-serif, sans-serif" font-size="16px" font-style="normal" font-weight="normal" text-decoration="normal" x="56" y="282" text-anchor="start" dominant-baseline="alphabetic" fill-opacity="1">Y2</text></g></g></svg>