<svg version="1.1" xmlns="http://www.w3.org/2000/svg" xmlns:xlink="http://www.w3.org/1999/xlink" width="1148" height="700"><defs><clipPath id="wdNKhhGeiOpl"><path fill="none" stroke="none" d=" M 0 0 L 1148 0 L 1148 700 L 0 700 L 0 0 Z"/></clipPath></defs><g transform="scale(1,1)" clip-path="url(#wdNKhhGeiOpl)"><g><rect fill="rgb(255,255,255)" stroke="none" x="0" y="0" width="1148" height="700" fill-opacity="1"/><path fill="none" stroke="rgb(192,192,192)" paint-order="fill stroke markers" d=" M 116.5 0.5 L 116.5 700.5 M 179.5 0.5 L 179.5 700.5 M 243.5 0.5 L 243.5 700.5 M 307.5 0.5 L 307.5 700.5 M 370.5 0.5 L 370.5 700.5 M 434.5 0.5 L 434.5 700.5 M 498.5 0.5 L 498.5 700.5 M 562.5 0.5 L 562.5 700.5 M 625.5 0.5 L 625.5 700.5 M 689.5 0.5 L 689.5 700.5 M 753.5 0.5 L 753.5 700.5 M 817.5 0.5 L 817.5 700.5 M 880.5 0.5 L 880.5 700.5 M 944.5 0.5 L 944.5 700.5 M 1008.5 0.5 L 1008.5 700.5 M 1071.5 0.5 L 1071.5 700.5 M 1135.5 0.5 L 1135.5 700.5" stroke-opacity="1" stroke-linecap="round" stroke-linejoin="round" stroke-miterlimit="10"/><path fill="none" stroke="rgb(192,192,192)" paint-order="fill stroke markers" d=" M 1.5 0.5 L 1.5 700.5 M 14.5 0.5 L 14.5 700.5 M 26.5 0.5 L 26.5 700.5 M 39.5 0.5 L 39.5 700.5 M 65.5 0.5 L 65.5 700.5 M 77.5 0.5 L 77.5 700.5 M 90.5 0.5 L 90.5 700.5 M 103.5 0.5 L 103.5 700.5 M 128.5 0.5 L 128.5 700.5 M 141.5 0.5 L 141.5 700.5 M 154.5 0.5 L 154.5 700.5 M 166.5 0.5 L 166.5 700.5 M 192.5 0.5 L 192.5 700.5 M 205.5 0.5 L 205.5 700.5 M 217.5 0.5 L 217.5 700.5 M 230.5 0.5 L 230.5 700.5 M 256.5 0.5 L 256.5 700.5 M 268.5 0.5 L 268.5 700.5 M 281.5 0.5 L 281.5 700.5 M 294.5 0.5 L 294.5 700.5 M 319.5 0.5 L 319.5 700.5 M 332.5 0.5 L 332.5 700.5 M 345.5 0.5 L 345.5 700.5 M 358.5 0.5 L 358.5 700.5 M 383.5 0.5 L 383.5 700.5 M 396.5 0.5 L 396.5 700.5 M 409.5 0.5 L 409.5 700.5 M 421.5 0.5 L 421.5 700.5 M 447.5 0.5 L 447.5 700.5 M 460.5 0.5 L 460.5 700.5 M 472.5 0.5 L 472.5 700.5 M 485.5 0.5 L 485.5 700.5 M 511.5 0.5 L 511.5 700.5 M 523.5 0.5 L 523.5 700.5 M 536.5 0.5 L 536.5 700.5 M 549.5 0.5 L 549.5 700.5 M 574.5 0.5 L 574.5 700.5 M 587.5 0.5 L 587.5 700.5 M 600.5 0.5 L 600.5 700.5 M 613.5 0.5 L 613.5 700.5 M 638.5 0.5 L 638.5 700.5 M 651.5 0.5 L 651.5 700.5 M 664.5 0.5 L 664.5 700.5 M 676.5 0.5 L 676.5 700.5 M 702.5 0.5 L 702.5 700.5 M 715.5 0.5 L 715.5 700.5 M 727.5 0.5 L 727.5 700.5 M 740.5 0.5 L 740.5 700.5 M 766.5 0.5 L 766.5 700.5 M 778.5 0.5 L 778.5 700.5 M 791.5 0.5 L 791.5 700.5 M 804.5 0.5 L 804.5 700.5 M 829.5 0.5 L 829.5 700.5 M 842.5 0.5 L 842.5 700.5 M 855.5 0.5 L 855.5 700.5 M 867.5 0.5 L 867.5 700.5 M 893.5 0.5 L 893.5 700.5 M 906.5 0.5 L 906.5 700.5 M 918.5 0.5 L 918.5 700.5 M 931.5 0.5 L 931.5 700.5 M 957.5 0.5 L 957.5 700.5 M 969.5 0.5 L 969.5 700.5 M 982.5 0.5 L 982.5 700.5 M 995.5 0.5 L 995.5 700.5 M 1020.5 0.5 L 1020.5 700.5 M 1033.5 0.5 L 1033.5 700.5 M 1046.5 0.5 L 1046.5 700.5 M 1059.5 0.5 L 1059.5 700.5 M 1084.5 0.5 L 1084.5 700.5 M 1097.5 0.5 L 1097.5 700.5 M 1110.5 0.5 L 1110.5 700.5 M 1122.5 0.5 L 1122.5 700.5" stroke-opacity="0.23529411764705882" stroke-linecap="round" stroke-linejoin="round" stroke-miterlimit="10"/><path fill="none" stroke="rgb(192,192,192)" paint-order="fill stroke markers" d=" M 0.5 14.5 L 1148.5 14.5 M 0.5 14.5 L 1148.5 14.5 M 0.5 77.5 L 1148.5 77.5 M 0.5 141.5 L 1148.5 141.5 M 0.5 205.5 L 1148.5 205.5 M 0.5 268.5 L 1148.5 268.5 M 0.5 332.5 L 1148.5 332.5 M 0.5 396.5 L 1148.5 396.5 M 0.5 460.5 L 1148.5 460.5 M 0.5 523.5 L 1148.5 523.5 M 0.5 587.5 L 1148.5 587.5" stroke-opacity="1" stroke-linecap="round" stroke-linejoin="round" stroke-miterlimit="10"/><path fill="none" stroke="rgb(192,192,192)" paint-order="fill stroke markers" d=" M 0.5 1.5 L 1148.5 1.5 M 0.5 1.5 L 1148.5 1.5 M 0.5 26.5 L 1148.5 26.5 M 0.5 39.5 L 1148.5 39.5 M 0.5 52.5 L 1148.5 52.5 M 0.5 65.5 L 1148.5 65.5 M 0.5 90.5 L 1148.5 90.5 M 0.5 103.5 L 1148.5 103.5 M 0.5 116.5 L 1148.5 116.5 M 0.5 128.5 L 1148.5 128.5 M 0.5 154.5 L 1148.5 154.5 M 0.5 167.5 L 1148.5 167.5 M 0.5 179.5 L 1148.5 179.5 M 0.5 192.5 L 1148.5 192.5 M 0.5 218.5 L 1148.5 218.5 M 0.5 230.5 L 1148.5 230.5 M 0.5 243.5 L 1148.5 243.5 M 0.5 256.5 L 1148.5 256.5 M 0.5 281.5 L 1148.5 281.5 M 0.5 294.5 L 1148.5 294.5 M 0.5 307.5 L 1148.5 307.5 M 0.5 319.5 L 1148.5 319.5 M 0.5 345.5 L 1148.5 345.5 M 0.5 358.5 L 1148.5 358.5 M 0.5 370.5 L 1148.5 370.5 M 0.5 383.5 L 1148.5 383.5 M 0.5 409.5 L 1148.5 409.5 M 0.5 421.5 L 1148.5 421.5 M 0.5 434.5 L 1148.5 434.5 M 0.5 447.5 L 1148.5 447.5 M 0.5 472.5 L 1148.5 472.5 M 0.5 485.5 L 1148.5 485.5 M 0.5 498.5 L 1148.5 498.5 M 0.5 511.5 L 1148.5 511.5 M 0.5 536.5 L 1148.5 536.5 M 0.5 549.5 L 1148.5 549.5 M 0.5 562.5 L 1148.5 562.5 M 0.5 574.5 L 1148.5 574.5 M 0.5 600.5 L 1148.5 600.5 M 0.5 613.5 L 1148.5 613.5 M 0.5 625.5 L 1148.5 625.5 M 0.5 638.5 L 1148.5 638.5 M 0.5 664.5 L 1148.5 664.5 M 0.5 676.5 L 1148.5 676.5 M 0.5 689.5 L 1148.5 689.5" stroke-opacity="0.23529411764705882" stroke-linecap="round" stroke-linejoin="round" stroke-miterlimit="10"/><path fill="none" stroke="rgb(0,0,0)" paint-order="fill stroke markers" d=" M 52.5 2.5 L 52.5 700.5" stroke-opacity="1" stroke-miterlimit="10"/><path fill="none" stroke="rgb(0,0,0)" paint-order="fill stroke markers" d=" M 52.5 1.5 L 48.5 5.5" stroke-opacity="1" stroke-miterlimit="10"/><path fill="none" stroke="rgb(0,0,0)" paint-order="fill stroke markers" d=" M 52.5 1.5 L 56.5 5.5" stroke-opacity="1" stroke-miterlimit="10"/><path fill="none" stroke="rgb(0,0,0)" paint-order="fill stroke markers" d=" M 0.5 651.5 L 1146.5 651.5" stroke-opacity="1" stroke-miterlimit="10"/><path fill="none" stroke="rgb(0,0,0)" paint-order="fill stroke markers" d=" M 1147.5 651.5 L 1143.5 647.5" stroke-opacity="1" stroke-miterlimit="10"/><path fill="none" stroke="rgb(0,0,0)" paint-order="fill stroke markers" d=" M 1147.5 651.5 L 1143.5 655.5" stroke-opacity="1" stroke-miterlimit="10"/><text fill="rgb(0,0,0)" stroke="none" font-family="geogebra-sans-serif, sans-serif" font-size="12px" font-style="normal" font-weight="normal" text-decoration="normal" x="114" y="667" text-anchor="start" dominant-baseline="alphabetic" fill-opacity="1">1</text><text fill="none" stroke="rgb(255,255,255)" font-family="geogebra-sans-serif, sans-serif" font-size="12px" font-style="normal" font-weight="normal" text-decoration="normal" x="114" y="667" text-anchor="start" dominant-baseline="alphabetic" stroke-opacity="1" stroke-linejoin="bevel" stroke-miterlimit="10" stroke-width="3">1</text><text fill="rgb(0,0,0)" stroke="none" font-family="geogebra-sans-serif, sans-serif" font-size="12px" font-style="normal" font-weight="normal" text-decoration="normal" x="114" y="667" text-anchor="start" dominant-baseline="alphabetic" fill-opacity="1">1</text><text fill="rgb(0,0,0)" stroke="none" font-family="geogebra-sans-serif, sans-serif" font-size="12px" font-style="normal" font-weight="normal" text-decoration="normal" x="177" y="667" text-anchor="start" dominant-baseline="alphabetic" fill-opacity="1">2</text><text fill="none" stroke="rgb(255,255,255)" font-family="geogebra-sans-serif, sans-serif" font-size="12px" font-style="normal" font-weight="normal" text-decoration="normal" x="177" y="667" text-anchor="start" dominant-baseline="alphabetic" stroke-opacity="1" stroke-linejoin="bevel" stroke-miterlimit="10" stroke-width="3">2</text><text fill="rgb(0,0,0)" stroke="none" font-family="geogebra-sans-serif, sans-serif" font-size="12px" font-style="normal" font-weight="normal" text-decoration="normal" x="177" y="667" text-anchor="start" dominant-baseline="alphabetic" fill-opacity="1">2</text><text fill="rgb(0,0,0)" stroke="none" font-family="geogebra-sans-serif, sans-serif" font-size="12px" font-style="normal" font-weight="normal" text-decoration="normal" x="241" y="667" text-anchor="start" dominant-baseline="alphabetic" fill-opacity="1">3</text><text fill="none" stroke="rgb(255,255,255)" font-family="geogebra-sans-serif, sans-serif" font-size="12px" font-style="normal" font-weight="normal" text-decoration="normal" x="241" y="667" text-anchor="start" dominant-baseline="alphabetic" stroke-opacity="1" stroke-linejoin="bevel" stroke-miterlimit="10" stroke-width="3">3</text><text fill="rgb(0,0,0)" stroke="none" font-family="geogebra-sans-serif, sans-serif" font-size="12px" font-style="normal" font-weight="normal" text-decoration="normal" x="241" y="667" text-anchor="start" dominant-baseline="alphabetic" fill-opacity="1">3</text><text fill="rgb(0,0,0)" stroke="none" font-family="geogebra-sans-serif, sans-serif" font-size="12px" font-style="normal" font-weight="normal" text-decoration="normal" x="305" y="667" text-anchor="start" dominant-baseline="alphabetic" fill-opacity="1">4</text><text fill="none" stroke="rgb(255,255,255)" font-family="geogebra-sans-serif, sans-serif" font-size="12px" font-style="normal" font-weight="normal" text-decoration="normal" x="305" y="667" text-anchor="start" dominant-baseline="alphabetic" stroke-opacity="1" stroke-linejoin="bevel" stroke-miterlimit="10" stroke-width="3">4</text><text fill="rgb(0,0,0)" stroke="none" font-family="geogebra-sans-serif, sans-serif" font-size="12px" font-style="normal" font-weight="normal" text-decoration="normal" x="305" y="667" text-anchor="start" dominant-baseline="alphabetic" fill-opacity="1">4</text><text fill="rgb(0,0,0)" stroke="none" font-family="geogebra-sans-serif, sans-serif" font-size="12px" font-style="normal" font-weight="normal" text-decoration="normal" x="368" y="667" text-anchor="start" dominant-baseline="alphabetic" fill-opacity="1">5</text><text fill="none" stroke="rgb(255,255,255)" font-family="geogebra-sans-serif, sans-serif" font-size="12px" font-style="normal" font-weight="normal" text-decoration="normal" x="368" y="667" text-anchor="start" dominant-baseline="alphabetic" stroke-opacity="1" stroke-linejoin="bevel" stroke-miterlimit="10" stroke-width="3">5</text><text fill="rgb(0,0,0)" stroke="none" font-family="geogebra-sans-serif, sans-serif" font-size="12px" font-style="normal" font-weight="normal" text-decoration="normal" x="368" y="667" text-anchor="start" dominant-baseline="alphabetic" fill-opacity="1">5</text><text fill="rgb(0,0,0)" stroke="none" font-family="geogebra-sans-serif, sans-serif" font-size="12px" font-style="normal" font-weight="normal" text-decoration="normal" x="432" y="667" text-anchor="start" dominant-baseline="alphabetic" fill-opacity="1">6</text><text fill="none" stroke="rgb(255,255,255)" font-family="geogebra-sans-serif, sans-serif" font-size="12px" font-style="normal" font-weight="normal" text-decoration="normal" x="432" y="667" text-anchor="start" dominant-baseline="alphabetic" stroke-opacity="1" stroke-linejoin="bevel" stroke-miterlimit="10" stroke-width="3">6</text><text fill="rgb(0,0,0)" stroke="none" font-family="geogebra-sans-serif, sans-serif" font-size="12px" font-style="normal" font-weight="normal" text-decoration="normal" x="432" y="667" text-anchor="start" dominant-baseline="alphabetic" fill-opacity="1">6</text><text fill="rgb(0,0,0)" stroke="none" font-family="geogebra-sans-serif, sans-serif" font-size="12px" font-style="normal" font-weight="normal" text-decoration="normal" x="496" y="667" text-anchor="start" dominant-baseline="alphabetic" fill-opacity="1">7</text><text fill="none" stroke="rgb(255,255,255)" font-family="geogebra-sans-serif, sans-serif" font-size="12px" font-style="normal" font-weight="normal" text-decoration="normal" x="496" y="667" text-anchor="start" dominant-baseline="alphabetic" stroke-opacity="1" stroke-linejoin="bevel" stroke-miterlimit="10" stroke-width="3">7</text><text fill="rgb(0,0,0)" stroke="none" font-family="geogebra-sans-serif, sans-serif" font-size="12px" font-style="normal" font-weight="normal" text-decoration="normal" x="496" y="667" text-anchor="start" dominant-baseline="alphabetic" fill-opacity="1">7</text><text fill="rgb(0,0,0)" stroke="none" font-family="geogebra-sans-serif, sans-serif" font-size="12px" font-style="normal" font-weight="normal" text-decoration="normal" x="560" y="667" text-anchor="start" dominant-baseline="alphabetic" fill-opacity="1">8</text><text fill="none" stroke="rgb(255,255,255)" font-family="geogebra-sans-serif, sans-serif" font-size="12px" font-style="normal" font-weight="normal" text-decoration="normal" x="560" y="667" text-anchor="start" dominant-baseline="alphabetic" stroke-opacity="1" stroke-linejoin="bevel" stroke-miterlimit="10" stroke-width="3">8</text><text fill="rgb(0,0,0)" stroke="none" font-family="geogebra-sans-serif, sans-serif" font-size="12px" font-style="normal" font-weight="normal" text-decoration="normal" x="560" y="667" text-anchor="start" dominant-baseline="alphabetic" fill-opacity="1">8</text><text fill="rgb(0,0,0)" stroke="none" font-family="geogebra-sans-serif, sans-serif" font-size="12px" font-style="normal" font-weight="normal" text-decoration="normal" x="623" y="667" text-anchor="start" dominant-baseline="alphabetic" fill-opacity="1">9</text><text fill="none" stroke="rgb(255,255,255)" font-family="geogebra-sans-serif, sans-serif" font-size="12px" font-style="normal" font-weight="normal" text-decoration="normal" x="623" y="667" text-anchor="start" dominant-baseline="alphabetic" stroke-opacity="1" stroke-linejoin="bevel" stroke-miterlimit="10" stroke-width="3">9</text><text fill="rgb(0,0,0)" stroke="none" font-family="geogebra-sans-serif, sans-serif" font-size="12px" font-style="normal" font-weight="normal" text-decoration="normal" x="623" y="667" text-anchor="start" dominant-baseline="alphabetic" fill-opacity="1">9</text><text fill="rgb(0,0,0)" stroke="none" font-family="geogebra-sans-serif, sans-serif" font-size="12px" font-style="normal" font-weight="normal" text-decoration="normal" x="684" y="667" text-anchor="start" dominant-baseline="alphabetic" fill-opacity="1">10</text><text fill="none" stroke="rgb(255,255,255)" font-family="geogebra-sans-serif, sans-serif" font-size="12px" font-style="normal" font-weight="normal" text-decoration="normal" x="684" y="667" text-anchor="start" dominant-baseline="alphabetic" stroke-opacity="1" stroke-linejoin="bevel" stroke-miterlimit="10" stroke-width="3">10</text><text fill="rgb(0,0,0)" stroke="none" font-family="geogebra-sans-serif, sans-serif" font-size="12px" font-style="normal" font-weight="normal" text-decoration="normal" x="684" y="667" text-anchor="start" dominant-baseline="alphabetic" fill-opacity="1">10</text><text fill="rgb(0,0,0)" stroke="none" font-family="geogebra-sans-serif, sans-serif" font-size="12px" font-style="normal" font-weight="normal" text-decoration="normal" x="748" y="667" text-anchor="start" dominant-baseline="alphabetic" fill-opacity="1">11</text><text fill="none" stroke="rgb(255,255,255)" font-family="geogebra-sans-serif, sans-serif" font-size="12px" font-style="normal" font-weight="normal" text-decoration="normal" x="748" y="667" text-anchor="start" dominant-baseline="alphabetic" stroke-opacity="1" stroke-linejoin="bevel" stroke-miterlimit="10" stroke-width="3">11</text><text fill="rgb(0,0,0)" stroke="none" font-family="geogebra-sans-serif, sans-serif" font-size="12px" font-style="normal" font-weight="normal" text-decoration="normal" x="748" y="667" text-anchor="start" dominant-baseline="alphabetic" fill-opacity="1">11</text><text fill="rgb(0,0,0)" stroke="none" font-family="geogebra-sans-serif, sans-serif" font-size="12px" font-style="normal" font-weight="normal" text-decoration="normal" x="812" y="667" text-anchor="start" dominant-baseline="alphabetic" fill-opacity="1">12</text><text fill="none" stroke="rgb(255,255,255)" font-family="geogebra-sans-serif, sans-serif" font-size="12px" font-style="normal" font-weight="normal" text-decoration="normal" x="812" y="667" text-anchor="start" dominant-baseline="alphabetic" stroke-opacity="1" stroke-linejoin="bevel" stroke-miterlimit="10" stroke-width="3">12</text><text fill="rgb(0,0,0)" stroke="none" font-family="geogebra-sans-serif, sans-serif" font-size="12px" font-style="normal" font-weight="normal" text-decoration="normal" x="812" y="667" text-anchor="start" dominant-baseline="alphabetic" fill-opacity="1">12</text><text fill="rgb(0,0,0)" stroke="none" font-family="geogebra-sans-serif, sans-serif" font-size="12px" font-style="normal" font-weight="normal" text-decoration="normal" x="875" y="667" text-anchor="start" dominant-baseline="alphabetic" fill-opacity="1">13</text><text fill="none" stroke="rgb(255,255,255)" font-family="geogebra-sans-serif, sans-serif" font-size="12px" font-style="normal" font-weight="normal" text-decoration="normal" x="875" y="667" text-anchor="start" dominant-baseline="alphabetic" stroke-opacity="1" stroke-linejoin="bevel" stroke-miterlimit="10" stroke-width="3">13</text><text fill="rgb(0,0,0)" stroke="none" font-family="geogebra-sans-serif, sans-serif" font-size="12px" font-style="normal" font-weight="normal" text-decoration="normal" x="875" y="667" text-anchor="start" dominant-baseline="alphabetic" fill-opacity="1">13</text><text fill="rgb(0,0,0)" stroke="none" font-family="geogebra-sans-serif, sans-serif" font-size="12px" font-style="normal" font-weight="normal" text-decoration="normal" x="939" y="667" text-anchor="start" dominant-baseline="alphabetic" fill-opacity="1">14</text><text fill="none" stroke="rgb(255,255,255)" font-family="geogebra-sans-serif, sans-serif" font-size="12px" font-style="normal" font-weight="normal" text-decoration="normal" x="939" y="667" text-anchor="start" dominant-baseline="alphabetic" stroke-opacity="1" stroke-linejoin="bevel" stroke-miterlimit="10" stroke-width="3">14</text><text fill="rgb(0,0,0)" stroke="none" font-family="geogebra-sans-serif, sans-serif" font-size="12px" font-style="normal" font-weight="normal" text-decoration="normal" x="939" y="667" text-anchor="start" dominant-baseline="alphabetic" fill-opacity="1">14</text><text fill="rgb(0,0,0)" stroke="none" font-family="geogebra-sans-serif, sans-serif" font-size="12px" font-style="normal" font-weight="normal" text-decoration="normal" x="1003" y="667" text-anchor="start" dominant-baseline="alphabetic" fill-opacity="1">15</text><text fill="none" stroke="rgb(255,255,255)" font-family="geogebra-sans-serif, sans-serif" font-size="12px" font-style="normal" font-weight="normal" text-decoration="normal" x="1003" y="667" text-anchor="start" dominant-baseline="alphabetic" stroke-opacity="1" stroke-linejoin="bevel" stroke-miterlimit="10" stroke-width="3">15</text><text fill="rgb(0,0,0)" stroke="none" font-family="geogebra-sans-serif, sans-serif" font-size="12px" font-style="normal" font-weight="normal" text-decoration="normal" x="1003" y="667" text-anchor="start" dominant-baseline="alphabetic" fill-opacity="1">15</text><text fill="rgb(0,0,0)" stroke="none" font-family="geogebra-sans-serif, sans-serif" font-size="12px" font-style="normal" font-weight="normal" text-decoration="normal" x="1066" y="667" text-anchor="start" dominant-baseline="alphabetic" fill-opacity="1">16</text><text fill="none" stroke="rgb(255,255,255)" font-family="geogebra-sans-serif, sans-serif" font-size="12px" font-style="normal" font-weight="normal" text-decoration="normal" x="1066" y="667" text-anchor="start" dominant-baseline="alphabetic" stroke-opacity="1" stroke-linejoin="bevel" stroke-miterlimit="10" stroke-width="3">16</text><text fill="rgb(0,0,0)" stroke="none" font-family="geogebra-sans-serif, sans-serif" font-size="12px" font-style="normal" font-weight="normal" text-decoration="normal" x="1066" y="667" text-anchor="start" dominant-baseline="alphabetic" fill-opacity="1">16</text><text fill="rgb(0,0,0)" stroke="none" font-family="geogebra-sans-serif, sans-serif" font-size="12px" font-style="normal" font-weight="normal" text-decoration="normal" x="1130" y="667" text-anchor="start" dominant-baseline="alphabetic" fill-opacity="1">17</text><text fill="none" stroke="rgb(255,255,255)" font-family="geogebra-sans-serif, sans-serif" font-size="12px" font-style="normal" font-weight="normal" text-decoration="normal" x="1130" y="667" text-anchor="start" dominant-baseline="alphabetic" stroke-opacity="1" stroke-linejoin="bevel" stroke-miterlimit="10" stroke-width="3">17</text><text fill="rgb(0,0,0)" stroke="none" font-family="geogebra-sans-serif, sans-serif" font-size="12px" font-style="normal" font-weight="normal" text-decoration="normal" x="1130" y="667" text-anchor="start" dominant-baseline="alphabetic" fill-opacity="1">17</text><text fill="rgb(0,0,0)" stroke="none" font-family="geogebra-sans-serif, sans-serif" font-size="12px" font-style="normal" font-weight="normal" text-decoration="normal" x="38" y="592" text-anchor="start" dominant-baseline="alphabetic" fill-opacity="1">1</text><text fill="none" stroke="rgb(255,255,255)" font-family="geogebra-sans-serif, sans-serif" font-size="12px" font-style="normal" font-weight="normal" text-decoration="normal" x="38" y="592" text-anchor="start" dominant-baseline="alphabetic" stroke-opacity="1" stroke-linejoin="bevel" stroke-miterlimit="10" stroke-width="3">1</text><text fill="rgb(0,0,0)" stroke="none" font-family="geogebra-sans-serif, sans-serif" font-size="12px" font-style="normal" font-weight="normal" text-decoration="normal" x="38" y="592" text-anchor="start" dominant-baseline="alphabetic" fill-opacity="1">1</text><text fill="rgb(0,0,0)" stroke="none" font-family="geogebra-sans-serif, sans-serif" font-size="12px" font-style="normal" font-weight="normal" text-decoration="normal" x="38" y="528" text-anchor="start" dominant-baseline="alphabetic" fill-opacity="1">2</text><text fill="none" stroke="rgb(255,255,255)" font-family="geogebra-sans-serif, sans-serif" font-size="12px" font-style="normal" font-weight="normal" text-decoration="normal" x="38" y="528" text-anchor="start" dominant-baseline="alphabetic" stroke-opacity="1" stroke-linejoin="bevel" stroke-miterlimit="10" stroke-width="3">2</text><text fill="rgb(0,0,0)" stroke="none" font-family="geogebra-sans-serif, sans-serif" font-size="12px" font-style="normal" font-weight="normal" text-decoration="normal" x="38" y="528" text-anchor="start" dominant-baseline="alphabetic" fill-opacity="1">2</text><text fill="rgb(0,0,0)" stroke="none" font-family="geogebra-sans-serif, sans-serif" font-size="12px" font-style="normal" font-weight="normal" text-decoration="normal" x="38" y="465" text-anchor="start" dominant-baseline="alphabetic" fill-opacity="1">3</text><text fill="none" stroke="rgb(255,255,255)" font-family="geogebra-sans-serif, sans-serif" font-size="12px" font-style="normal" font-weight="normal" text-decoration="normal" x="38" y="465" text-anchor="start" dominant-baseline="alphabetic" stroke-opacity="1" stroke-linejoin="bevel" stroke-miterlimit="10" stroke-width="3">3</text><text fill="rgb(0,0,0)" stroke="none" font-family="geogebra-sans-serif, sans-serif" font-size="12px" font-style="normal" font-weight="normal" text-decoration="normal" x="38" y="465" text-anchor="start" dominant-baseline="alphabetic" fill-opacity="1">3</text><text fill="rgb(0,0,0)" stroke="none" font-family="geogebra-sans-serif, sans-serif" font-size="12px" font-style="normal" font-weight="normal" text-decoration="normal" x="38" y="401" text-anchor="start" dominant-baseline="alphabetic" fill-opacity="1">4</text><text fill="none" stroke="rgb(255,255,255)" font-family="geogebra-sans-serif, sans-serif" font-size="12px" font-style="normal" font-weight="normal" text-decoration="normal" x="38" y="401" text-anchor="start" dominant-baseline="alphabetic" stroke-opacity="1" stroke-linejoin="bevel" stroke-miterlimit="10" stroke-width="3">4</text><text fill="rgb(0,0,0)" stroke="none" font-family="geogebra-sans-serif, sans-serif" font-size="12px" font-style="normal" font-weight="normal" text-decoration="normal" x="38" y="401" text-anchor="start" dominant-baseline="alphabetic" fill-opacity="1">4</text><text fill="rgb(0,0,0)" stroke="none" font-family="geogebra-sans-serif, sans-serif" font-size="12px" font-style="normal" font-weight="normal" text-decoration="normal" x="38" y="337" text-anchor="start" dominant-baseline="alphabetic" fill-opacity="1">5</text><text fill="none" stroke="rgb(255,255,255)" font-family="geogebra-sans-serif, sans-serif" font-size="12px" font-style="normal" font-weight="normal" text-decoration="normal" x="38" y="337" text-anchor="start" dominant-baseline="alphabetic" stroke-opacity="1" stroke-linejoin="bevel" stroke-miterlimit="10" stroke-width="3">5</text><text fill="rgb(0,0,0)" stroke="none" font-family="geogebra-sans-serif, sans-serif" font-size="12px" font-style="normal" font-weight="normal" text-decoration="normal" x="38" y="337" text-anchor="start" dominant-baseline="alphabetic" fill-opacity="1">5</text><text fill="rgb(0,0,0)" stroke="none" font-family="geogebra-sans-serif, sans-serif" font-size="12px" font-style="normal" font-weight="normal" text-decoration="normal" x="38" y="273" text-anchor="start" dominant-baseline="alphabetic" fill-opacity="1">6</text><text fill="none" stroke="rgb(255,255,255)" font-family="geogebra-sans-serif, sans-serif" font-size="12px" font-style="normal" font-weight="normal" text-decoration="normal" x="38" y="273" text-anchor="start" dominant-baseline="alphabetic" stroke-opacity="1" stroke-linejoin="bevel" stroke-miterlimit="10" stroke-width="3">6</text><text fill="rgb(0,0,0)" stroke="none" font-family="geogebra-sans-serif, sans-serif" font-size="12px" font-style="normal" font-weight="normal" text-decoration="normal" x="38" y="273" text-anchor="start" dominant-baseline="alphabetic" fill-opacity="1">6</text><text fill="rgb(0,0,0)" stroke="none" font-family="geogebra-sans-serif, sans-serif" font-size="12px" font-style="normal" font-weight="normal" text-decoration="normal" x="38" y="210" text-anchor="start" dominant-baseline="alphabetic" fill-opacity="1">7</text><text fill="none" stroke="rgb(255,255,255)" font-family="geogebra-sans-serif, sans-serif" font-size="12px" font-style="normal" font-weight="normal" text-decoration="normal" x="38" y="210" text-anchor="start" dominant-baseline="alphabetic" stroke-opacity="1" stroke-linejoin="bevel" stroke-miterlimit="10" stroke-width="3">7</text><text fill="rgb(0,0,0)" stroke="none" font-family="geogebra-sans-serif, sans-serif" font-size="12px" font-style="normal" font-weight="normal" text-decoration="normal" x="38" y="210" text-anchor="start" dominant-baseline="alphabetic" fill-opacity="1">7</text><text fill="rgb(0,0,0)" stroke="none" font-family="geogebra-sans-serif, sans-serif" font-size="12px" font-style="normal" font-weight="normal" text-decoration="normal" x="38" y="146" text-anchor="start" dominant-baseline="alphabetic" fill-opacity="1">8</text><text fill="none" stroke="rgb(255,255,255)" font-family="geogebra-sans-serif, sans-serif" font-size="12px" font-style="normal" font-weight="normal" text-decoration="normal" x="38" y="146" text-anchor="start" dominant-baseline="alphabetic" stroke-opacity="1" stroke-linejoin="bevel" stroke-miterlimit="10" stroke-width="3">8</text><text fill="rgb(0,0,0)" stroke="none" font-family="geogebra-sans-serif, sans-serif" font-size="12px" font-style="normal" font-weight="normal" text-decoration="normal" x="38" y="146" text-anchor="start" dominant-baseline="alphabetic" fill-opacity="1">8</text><text fill="rgb(0,0,0)" stroke="none" font-family="geogebra-sans-serif, sans-serif" font-size="12px" font-style="normal" font-weight="normal" text-decoration="normal" x="38" y="82" text-anchor="start" dominant-baseline="alphabetic" fill-opacity="1">9</text><text fill="none" stroke="rgb(255,255,255)" font-family="geogebra-sans-serif, sans-serif" font-size="12px" font-style="normal" font-weight="normal" text-decoration="normal" x="38" y="82" text-anchor="start" dominant-baseline="alphabetic" stroke-opacity="1" stroke-linejoin="bevel" stroke-miterlimit="10" stroke-width="3">9</text><text fill="rgb(0,0,0)" stroke="none" font-family="geogebra-sans-serif, sans-serif" font-size="12px" font-style="normal" font-weight="normal" text-decoration="normal" x="38" y="82" text-anchor="start" dominant-baseline="alphabetic" fill-opacity="1">9</text><text fill="rgb(0,0,0)" stroke="none" font-family="geogebra-sans-serif, sans-serif" font-size="12px" font-style="normal" font-weight="normal" text-decoration="normal" x="32" y="19" text-anchor="start" dominant-baseline="alphabetic" fill-opacity="1">10</text><text fill="none" stroke="rgb(255,255,255)" font-family="geogebra-sans-serif, sans-serif" font-size="12px" font-style="normal" font-weight="normal" text-decoration="normal" x="32" y="19" text-anchor="start" dominant-baseline="alphabetic" stroke-opacity="1" stroke-linejoin="bevel" stroke-miterlimit="10" stroke-width="3">10</text><text fill="rgb(0,0,0)" stroke="none" font-family="geogebra-sans-serif, sans-serif" font-size="12px" font-style="normal" font-weight="normal" text-decoration="normal" x="32" y="19" text-anchor="start" dominant-baseline="alphabetic" fill-opacity="1">10</text><text fill="rgb(0,0,0)" stroke="none" font-family="geogebra-sans-serif, sans-serif" font-size="12px" font-style="normal" font-weight="normal" text-decoration="normal" x="38" y="667" text-anchor="start" dominant-baseline="alphabetic" fill-opacity="1">0</text><text fill="none" stroke="rgb(255,255,255)" font-family="geogebra-sans-serif, sans-serif" font-size="12px" font-style="normal" font-weight="normal" text-decoration="normal" x="38" y="667" text-anchor="start" dominant-baseline="alphabetic" stroke-opacity="1" stroke-linejoin="bevel" stroke-miterlimit="10" stroke-width="3">0</text><text fill="rgb(0,0,0)" stroke="none" font-family="geogebra-sans-serif, sans-serif" font-size="12px" font-style="normal" font-weight="normal" text-decoration="normal" x="38" y="667" text-anchor="start" dominant-baseline="alphabetic" fill-opacity="1">0</text><path fill="none" stroke="rgb(0,0,0)" paint-order="fill stroke markers" d=" M 434.6518481993461 460.16916350310044 C 434.6518481993461 565.7553811084488 349.0573068978124 651.3499224099821 243.47108929246355 651.3499224099821 C 137.8848716871147 651.3499224099821 52.29033038558097 565.7553811084488 52.29033038558097 460.16916350310044 C 52.29033038558097 354.5829458977521 137.8848716871147 268.98840459621874 243.47108929246355 268.98840459621874 C 349.0573068978124 268.98840459621874 434.6518481993461 354.5829458977521 434.6518481993461 460.16916350310044 Z" stroke-opacity="0.6980392156862745" stroke-linecap="round" stroke-linejoin="round" stroke-miterlimit="10" stroke-width="2.5"/><path fill="none" stroke="rgb(0,0,0)" paint-order="fill stroke markers" d=" M 667.6919429912186 205.26148496059147 C 667.6919429912186 298.7705695448151 591.8878524191978 374.5746601168357 498.3787678349737 374.5746601168357 C 404.8696832507497 374.5746601168357 329.06559267872876 298.7705695448151 329.06559267872876 205.26148496059147 C 329.06559267872876 111.75240037636786 404.8696832507497 35.948309804347275 498.3787678349737 35.948309804347275 C 591.8878524191978 35.948309804347275 667.6919429912186 111.75240037636786 667.6919429912186 205.26148496059147 Z" stroke-opacity="0.6980392156862745" stroke-linecap="round" stroke-linejoin="round" stroke-miterlimit="10" stroke-width="2.5"/><path fill="none" stroke="rgb(255,51,102)" paint-order="fill stroke markers" d=" M 243.47108929246355 460.16916350310044 L 498.3787678349737 205.26148496059147" stroke-opacity="0.6980392156862745" stroke-linecap="round" stroke-linejoin="round" stroke-miterlimit="10" stroke-width="2.5"/><text fill="rgb(255,51,102)" stroke="none" font-family="geogebra-sans-serif, sans-serif" font-size="16px" font-style="normal" font-weight="normal" text-decoration="normal" x="382" y="344" text-anchor="start" dominant-baseline="alphabetic" fill-opacity="1">c</text><text fill="none" stroke="rgb(255,255,255)" font-family="geogebra-sans-serif, sans-serif" font-size="16px" font-style="normal" font-weight="normal" text-decoration="normal" x="382" y="344" text-anchor="start" dominant-baseline="alphabetic" stroke-opacity="1" stroke-linejoin="bevel" stroke-miterlimit="10" stroke-width="3">c</text><text fill="rgb(255,51,102)" stroke="none" font-family="geogebra-sans-serif, sans-serif" font-size="16px" font-style="normal" font-weight="normal" text-decoration="normal" x="382" y="344" text-anchor="start" dominant-baseline="alphabetic" fill-opacity="1">c</text><path fill="none" stroke="rgb(0,0,0)" paint-order="fill stroke markers" d=" M 498.3787678349737 205.26148496059147 L 498.3787678349737 651.3499224099821" stroke-opacity="0.6980392156862745" stroke-linejoin="round" stroke-miterlimit="10" stroke-width="2.5" stroke-dasharray="6.5,4"/><path fill="none" stroke="rgb(0,0,0)" paint-order="fill stroke markers" d=" M 243.47108929246355 460.16916350310044 L 243.47108929246355 651.3499224099821" stroke-opacity="0.6980392156862745" stroke-linejoin="round" stroke-miterlimit="10" stroke-width="2.5" stroke-dasharray="6.5,4"/><path fill="none" stroke="rgb(0,0,0)" paint-order="fill stroke markers" d=" M 243.47108929246355 460.16916350310044 L 52.29033038558099 460.16916350310044" stroke-opacity="0.6980392156862745" stroke-linejoin="round" stroke-miterlimit="10" stroke-width="2.5" stroke-dasharray="6.5,4"/><path fill="none" stroke="rgb(0,0,0)" paint-order="fill stroke markers" d=" M 498.3787678349737 205.26148496059147 L 52.29033038558099 205.26148496059147" stroke-opacity="0.6980392156862745" stroke-linejoin="round" stroke-miterlimit="10" stroke-width="2.5" stroke-dasharray="6.5,4"/><path fill="rgb(77,77,255)" stroke="none" paint-order="stroke fill markers" d=" M 248.47108929246355 460.16916350310044 C 248.47108929246355 462.9305872522544 246.23251304161752 465.16916350310044 243.47108929246355 465.16916350310044 C 240.70966554330957 465.16916350310044 238.47108929246355 462.9305872522544 238.47108929246355 460.16916350310044 C 238.47108929246355 457.4077397539465 240.70966554330957 455.16916350310044 243.47108929246355 455.16916350310044 C 246.23251304161752 455.16916350310044 248.47108929246355 457.4077397539465 248.47108929246355 460.16916350310044 Z" fill-opacity="1"/><path fill="none" stroke="rgb(0,0,0)" paint-order="fill stroke markers" d=" M 248.47108929246355 460.16916350310044 C 248.47108929246355 462.9305872522544 246.23251304161752 465.16916350310044 243.47108929246355 465.16916350310044 C 240.70966554330957 465.16916350310044 238.47108929246355 462.9305872522544 238.47108929246355 460.16916350310044 C 238.47108929246355 457.4077397539465 240.70966554330957 455.16916350310044 243.47108929246355 455.16916350310044 C 246.23251304161752 455.16916350310044 248.47108929246355 457.4077397539465 248.47108929246355 460.16916350310044 Z" stroke-opacity="1" stroke-linecap="round" stroke-linejoin="round" stroke-miterlimit="10"/><text fill="rgb(77,77,255)" stroke="none" font-family="geogebra-sans-serif, sans-serif" font-size="16px" font-style="normal" font-weight="normal" text-decoration="normal" x="247" y="450" text-anchor="start" dominant-baseline="alphabetic" fill-opacity="1">A</text><text fill="none" stroke="rgb(255,255,255)" font-family="geogebra-sans-serif, sans-serif" font-size="16px" font-style="normal" font-weight="normal" text-decoration="normal" x="247" y="450" text-anchor="start" dominant-baseline="alphabetic" stroke-opacity="1" stroke-linejoin="bevel" stroke-miterlimit="10" stroke-width="3">A</text><text fill="rgb(77,77,255)" stroke="none" font-family="geogebra-sans-serif, sans-serif" font-size="16px" font-style="normal" font-weight="normal" text-decoration="normal" x="247" y="450" text-anchor="start" dominant-baseline="alphabetic" fill-opacity="1">A</text><path fill="rgb(125,125,255)" stroke="none" paint-order="stroke fill markers" d=" M 248.47108929246355 651.3499224099821 C 248.47108929246355 654.1113461591361 246.23251304161752 656.3499224099821 243.47108929246355 656.3499224099821 C 240.70966554330957 656.3499224099821 238.47108929246355 654.1113461591361 238.47108929246355 651.3499224099821 C 238.47108929246355 648.5884986608281 240.70966554330957 646.3499224099821 243.47108929246355 646.3499224099821 C 246.23251304161752 646.3499224099821 248.47108929246355 648.5884986608281 248.47108929246355 651.3499224099821 Z" fill-opacity="1"/><path fill="none" stroke="rgb(0,0,0)" paint-order="fill stroke markers" d=" M 248.47108929246355 651.3499224099821 C 248.47108929246355 654.1113461591361 246.23251304161752 656.3499224099821 243.47108929246355 656.3499224099821 C 240.70966554330957 656.3499224099821 238.47108929246355 654.1113461591361 238.47108929246355 651.3499224099821 C 238.47108929246355 648.5884986608281 240.70966554330957 646.3499224099821 243.47108929246355 646.3499224099821 C 246.23251304161752 646.3499224099821 248.47108929246355 648.5884986608281 248.47108929246355 651.3499224099821 Z" stroke-opacity="1" stroke-linecap="round" stroke-linejoin="round" stroke-miterlimit="10"/><text fill="rgb(125,125,255)" stroke="none" font-family="geogebra-sans-serif, sans-serif" font-size="16px" font-style="normal" font-weight="normal" text-decoration="normal" x="247" y="641" text-anchor="start" dominant-baseline="alphabetic" fill-opacity="1">X1</text><text fill="none" stroke="rgb(255,255,255)" font-family="geogebra-sans-serif, sans-serif" font-size="16px" font-style="normal" font-weight="normal" text-decoration="normal" x="247" y="641" text-anchor="start" dominant-baseline="alphabetic" stroke-opacity="1" stroke-linejoin="bevel" stroke-miterlimit="10" stroke-width="3">X1</text><text fill="rgb(125,125,255)" stroke="none" font-family="geogebra-sans-serif, sans-serif" font-size="16px" font-style="normal" font-weight="normal" text-decoration="normal" x="247" y="641" text-anchor="start" dominant-baseline="alphabetic" fill-opacity="1">X1</text><path fill="rgb(77,77,255)" stroke="none" paint-order="stroke fill markers" d=" M 503.3787678349737 205.26148496059147 C 503.3787678349737 208.02290870974545 501.14019158412765 210.26148496059147 498.3787678349737 210.26148496059147 C 495.61734408581975 210.26148496059147 493.3787678349737 208.02290870974545 493.3787678349737 205.26148496059147 C 493.3787678349737 202.5000612114375 495.61734408581975 200.26148496059147 498.3787678349737 200.26148496059147 C 501.14019158412765 200.26148496059147 503.3787678349737 202.5000612114375 503.3787678349737 205.26148496059147 Z" fill-opacity="1"/><path fill="none" stroke="rgb(0,0,0)" paint-order="fill stroke markers" d=" M 503.3787678349737 205.26148496059147 C 503.3787678349737 208.02290870974545 501.14019158412765 210.26148496059147 498.3787678349737 210.26148496059147 C 495.61734408581975 210.26148496059147 493.3787678349737 208.02290870974545 493.3787678349737 205.26148496059147 C 493.3787678349737 202.5000612114375 495.61734408581975 200.26148496059147 498.3787678349737 200.26148496059147 C 501.14019158412765 200.26148496059147 503.3787678349737 202.5000612114375 503.3787678349737 205.26148496059147 Z" stroke-opacity="1" stroke-linecap="round" stroke-linejoin="round" stroke-miterlimit="10"/><text fill="rgb(77,77,255)" stroke="none" font-family="geogebra-sans-serif, sans-serif" font-size="16px" font-style="normal" font-weight="normal" text-decoration="normal" x="502" y="195" text-anchor="start" dominant-baseline="alphabetic" fill-opacity="1">O2</text><text fill="none" stroke="rgb(255,255,255)" font-family="geogebra-sans-serif, sans-serif" font-size="16px" font-style="normal" font-weight="normal" text-decoration="normal" x="502" y="195" text-anchor="start" dominant-baseline="alphabetic" stroke-opacity="1" stroke-linejoin="bevel" stroke-miterlimit="10" stroke-width="3">O2</text><text fill="rgb(77,77,255)" stroke="none" font-family="geogebra-sans-serif, sans-serif" font-size="16px" font-style="normal" font-weight="normal" text-decoration="normal" x="502" y="195" text-anchor="start" dominant-baseline="alphabetic" fill-opacity="1">O2</text><path fill="rgb(125,125,255)" stroke="none" paint-order="stroke fill markers" d=" M 383.71463569812744 325.0423129817091 C 383.71463569812744 327.803736730863 381.4760594472814 330.0423129817091 378.71463569812744 330.0423129817091 C 375.9532119489735 330.0423129817091 373.71463569812744 327.803736730863 373.71463569812744 325.0423129817091 C 373.71463569812744 322.2808892325551 375.9532119489735 320.0423129817091 378.71463569812744 320.0423129817091 C 381.4760594472814 320.0423129817091 383.71463569812744 322.2808892325551 383.71463569812744 325.0423129817091 Z" fill-opacity="1"/><path fill="none" stroke="rgb(0,0,0)" paint-order="fill stroke markers" d=" M 383.71463569812744 325.0423129817091 C 383.71463569812744 327.803736730863 381.4760594472814 330.0423129817091 378.71463569812744 330.0423129817091 C 375.9532119489735 330.0423129817091 373.71463569812744 327.803736730863 373.71463569812744 325.0423129817091 C 373.71463569812744 322.2808892325551 375.9532119489735 320.0423129817091 378.71463569812744 320.0423129817091 C 381.4760594472814 320.0423129817091 383.71463569812744 322.2808892325551 383.71463569812744 325.0423129817091 Z" stroke-opacity="1" stroke-linecap="round" stroke-linejoin="round" stroke-miterlimit="10"/><text fill="rgb(125,125,255)" stroke="none" font-family="geogebra-sans-serif, sans-serif" font-size="16px" font-style="normal" font-weight="normal" text-decoration="normal" x="383" y="315" text-anchor="start" dominant-baseline="alphabetic" fill-opacity="1">M</text><text fill="none" stroke="rgb(255,255,255)" font-family="geogebra-sans-serif, sans-serif" font-size="16px" font-style="normal" font-weight="normal" text-decoration="normal" x="383" y="315" text-anchor="start" dominant-baseline="alphabetic" stroke-opacity="1" stroke-linejoin="bevel" stroke-miterlimit="10" stroke-width="3">M</text><text fill="rgb(125,125,255)" stroke="none" font-family="geogebra-sans-serif, sans-serif" font-size="16px" font-style="normal" font-weight="normal" text-decoration="normal" x="383" y="315" text-anchor="start" dominant-baseline="alphabetic" fill-opacity="1">M</text><path fill="rgb(125,125,255)" stroke="none" paint-order="stroke fill markers" d=" M 503.3787678349737 651.3499224099821 C 503.3787678349737 654.1113461591361 501.14019158412765 656.3499224099821 498.3787678349737 656.3499224099821 C 495.61734408581975 656.3499224099821 493.3787678349737 654.1113461591361 493.3787678349737 651.3499224099821 C 493.3787678349737 648.5884986608281 495.61734408581975 646.3499224099821 498.3787678349737 646.3499224099821 C 501.14019158412765 646.3499224099821 503.3787678349737 648.5884986608281 503.3787678349737 651.3499224099821 Z" fill-opacity="1"/><path fill="none" stroke="rgb(0,0,0)" paint-order="fill stroke markers" d=" M 503.3787678349737 651.3499224099821 C 503.3787678349737 654.1113461591361 501.14019158412765 656.3499224099821 498.3787678349737 656.3499224099821 C 495.61734408581975 656.3499224099821 493.3787678349737 654.1113461591361 493.3787678349737 651.3499224099821 C 493.3787678349737 648.5884986608281 495.61734408581975 646.3499224099821 498.3787678349737 646.3499224099821 C 501.14019158412765 646.3499224099821 503.3787678349737 648.5884986608281 503.3787678349737 651.3499224099821 Z" stroke-opacity="1" stroke-linecap="round" stroke-linejoin="round" stroke-miterlimit="10"/><text fill="rgb(125,125,255)" stroke="none" font-family="geogebra-sans-serif, sans-serif" font-size="16px" font-style="normal" font-weight="normal" text-decoration="normal" x="502" y="641" text-anchor="start" dominant-baseline="alphabetic" fill-opacity="1">X2</text><text fill="none" stroke="rgb(255,255,255)" font-family="geogebra-sans-serif, sans-serif" font-size="16px" font-style="normal" font-weight="normal" text-decoration="normal" x="502" y="641" text-anchor="start" dominant-baseline="alphabetic" stroke-opacity="1" stroke-linejoin="bevel" stroke-miterlimit="10" stroke-width="3">X2</text><text fill="rgb(125,125,255)" stroke="none" font-family="geogebra-sans-serif, sans-serif" font-size="16px" font-style="normal" font-weight="normal" text-decoration="normal" x="502" y="641" text-anchor="start" dominant-baseline="alphabetic" fill-opacity="1">X2</text><path fill="rgb(125,125,255)" stroke="none" paint-order="stroke fill markers" d=" M 56.29033038558099 460.16916350310044 C 56.29033038558099 462.3783025024236 54.49946938490416 464.16916350310044 52.29033038558099 464.16916350310044 C 50.081191386257814 464.16916350310044 48.29033038558099 462.3783025024236 48.29033038558099 460.16916350310044 C 48.29033038558099 457.9600245037773 50.081191386257814 456.16916350310044 52.29033038558099 456.16916350310044 C 54.49946938490416 456.16916350310044 56.29033038558099 457.9600245037773 56.29033038558099 460.16916350310044 Z" fill-opacity="1"/><path fill="none" stroke="rgb(0,0,0)" paint-order="fill stroke markers" d=" M 56.29033038558099 460.16916350310044 C 56.29033038558099 462.3783025024236 54.49946938490416 464.16916350310044 52.29033038558099 464.16916350310044 C 50.081191386257814 464.16916350310044 48.29033038558099 462.3783025024236 48.29033038558099 460.16916350310044 C 48.29033038558099 457.9600245037773 50.081191386257814 456.16916350310044 52.29033038558099 456.16916350310044 C 54.49946938490416 456.16916350310044 56.29033038558099 457.9600245037773 56.29033038558099 460.16916350310044 Z" stroke-opacity="1" stroke-linecap="round" stroke-linejoin="round" stroke-miterlimit="10"/><text fill="rgb(125,125,255)" stroke="none" font-family="geogebra-sans-serif, sans-serif" font-size="16px" font-style="normal" font-weight="normal" text-decoration="normal" x="56" y="452" text-anchor="start" dominant-baseline="alphabetic" fill-opacity="1">Y1</text><text fill="none" stroke="rgb(255,255,255)" font-family="geogebra-sans-serif, sans-serif" font-size="16px" font-style="normal" font-weight="normal" text-decoration="normal" x="56" y="452" text-anchor="start" dominant-baseline="alphabetic" stroke-opacity="1" stroke-linejoin="bevel" stroke-miterlimit="10" stroke-width="3">Y1</text><text fill="rgb(125,125,255)" stroke="none" font-family="geogebra-sans-serif, sans-serif" font-size="16px" font-style="normal" font-weight="normal" text-decoration="normal" x="56" y="452" text-anchor="start" dominant-baseline="alphabetic" fill-opacity="1">Y1</text><path fill="rgb(125,125,255)" stroke="none" paint-order="stroke fill markers" d=" M 57.29033038558099 205.26148496059147 C 57.29033038558099 208.02290870974545 55.05175413473495 210.26148496059147 52.29033038558099 210.26148496059147 C 49.52890663642702 210.26148496059147 47.29033038558099 208.02290870974545 47.29033038558099 205.26148496059147 C 47.29033038558099 202.5000612114375 49.52890663642702 200.26148496059147 52.29033038558099 200.26148496059147 C 55.05175413473495 200.26148496059147 57.29033038558099 202.5000612114375 57.29033038558099 205.26148496059147 Z" fill-opacity="1"/><path fill="none" stroke="rgb(0,0,0)" paint-order="fill stroke markers" d=" M 57.29033038558099 205.26148496059147 C 57.29033038558099 208.02290870974545 55.05175413473495 210.26148496059147 52.29033038558099 210.26148496059147 C 49.52890663642702 210.26148496059147 47.29033038558099 208.02290870974545 47.29033038558099 205.26148496059147 C 47.29033038558099 202.5000612114375 49.52890663642702 200.26148496059147 52.29033038558099 200.26148496059147 C 55.05175413473495 200.26148496059147 57.29033038558099 202.5000612114375 57.29033038558099 205.26148496059147 Z" stroke-opacity="1" stroke-linecap="round" stroke-linejoin="round" stroke-miterlimit="10"/><text fill="rgb(125,125,255)" stroke="none" font-family="geogebra-sans-serif, sans-serif" font-size="16px" font-style="normal" font-weight="normal" text-decoration="normal" x="56" y="195" text-anchor="start" dominant-baseline="alphabetic" fill-opacity="1">Y2</text><text fill="none" stroke="rgb(255,255,255)" font-family="geogebra-sans-serif, sans-serif" font-size="16px" font-style="normal" font-weight="normal" text-decoration="normal" x="56" y="195" text-anchor="start" dominant-baseline="alphabetic" stroke-opacity="1" stroke-linejoin="bevel" stroke-miterlimit="10" stroke-width="3">Y2</text><text fill="rgb(125,125,255)" stroke="none" font-family="geogebra-sans-serif, sans-serif" font-size="16px" font-style="normal" font-weight="normal" text-decoration="normal" x="56" y="195" text-anchor="start" dominant-baseline="alphabetic" fill-opacity="1">Y2</text></g></g></svg>