<svg version="1.1" xmlns="http://www.w3.org/2000/svg" xmlns:xlink="http://www.w3.org/1999/xlink" width="1148" height="700"><defs><clipPath id="FBfKRpGDqdNy"><path fill="none" stroke="none" d=" M 0 0 L 1148 0 L 1148 700 L 0 700 L 0 0 Z"/></clipPath></defs><g transform="scale(1,1)" clip-path="url(#FBfKRpGDqdNy)"><g><rect fill="rgb(255,255,255)" stroke="none" x="0" y="0" width="1148" height="700" fill-opacity="1"/><path fill="none" stroke="rgb(192,192,192)" paint-order="fill stroke markers" d=" M 130.5 0.5 L 130.5 700.5 M 203.5 0.5 L 203.5 700.5 M 276.5 0.5 L 276.5 700.5 M 348.5 0.5 L 348.5 700.5 M 421.5 0.5 L 421.5 700.5 M 494.5 0.5 L 494.5 700.5 M 566.5 0.5 L 566.5 700.5 M 639.5 0.5 L 639.5 700.5 M 712.5 0.5 L 712.5 700.5 M 784.5 0.5 L 784.5 700.5 M 857.5 0.5 L 857.5 700.5 M 930.5 0.5 L 930.5 700.5 M 1002.5 0.5 L 1002.5 700.5 M 1075.5 0.5 L 1075.5 700.5 M 1147.5 0.5 L 1147.5 700.5" stroke-opacity="1" stroke-linecap="round" stroke-linejoin="round" stroke-miterlimit="10"/><path fill="none" stroke="rgb(192,192,192)" paint-order="fill stroke markers" d=" M 0.5 0.5 L 0.5 700.5 M 14.5 0.5 L 14.5 700.5 M 29.5 0.5 L 29.5 700.5 M 43.5 0.5 L 43.5 700.5 M 72.5 0.5 L 72.5 700.5 M 87.5 0.5 L 87.5 700.5 M 101.5 0.5 L 101.5 700.5 M 116.5 0.5 L 116.5 700.5 M 145.5 0.5 L 145.5 700.5 M 159.5 0.5 L 159.5 700.5 M 174.5 0.5 L 174.5 700.5 M 188.5 0.5 L 188.5 700.5 M 218.5 0.5 L 218.5 700.5 M 232.5 0.5 L 232.5 700.5 M 247.5 0.5 L 247.5 700.5 M 261.5 0.5 L 261.5 700.5 M 290.5 0.5 L 290.5 700.5 M 305.5 0.5 L 305.5 700.5 M 319.5 0.5 L 319.5 700.5 M 334.5 0.5 L 334.5 700.5 M 363.5 0.5 L 363.5 700.5 M 377.5 0.5 L 377.5 700.5 M 392.5 0.5 L 392.5 700.5 M 406.5 0.5 L 406.5 700.5 M 435.5 0.5 L 435.5 700.5 M 450.5 0.5 L 450.5 700.5 M 465.5 0.5 L 465.5 700.5 M 479.5 0.5 L 479.5 700.5 M 508.5 0.5 L 508.5 700.5 M 523.5 0.5 L 523.5 700.5 M 537.5 0.5 L 537.5 700.5 M 552.5 0.5 L 552.5 700.5 M 581.5 0.5 L 581.5 700.5 M 595.5 0.5 L 595.5 700.5 M 610.5 0.5 L 610.5 700.5 M 624.5 0.5 L 624.5 700.5 M 653.5 0.5 L 653.5 700.5 M 668.5 0.5 L 668.5 700.5 M 682.5 0.5 L 682.5 700.5 M 697.5 0.5 L 697.5 700.5 M 726.5 0.5 L 726.5 700.5 M 741.5 0.5 L 741.5 700.5 M 755.5 0.5 L 755.5 700.5 M 770.5 0.5 L 770.5 700.5 M 799.5 0.5 L 799.5 700.5 M 813.5 0.5 L 813.5 700.5 M 828.5 0.5 L 828.5 700.5 M 842.5 0.5 L 842.5 700.5 M 871.5 0.5 L 871.5 700.5 M 886.5 0.5 L 886.5 700.5 M 900.5 0.5 L 900.5 700.5 M 915.5 0.5 L 915.5 700.5 M 944.5 0.5 L 944.5 700.5 M 959.5 0.5 L 959.5 700.5 M 973.5 0.5 L 973.5 700.5 M 988.5 0.5 L 988.5 700.5 M 1017.5 0.5 L 1017.5 700.5 M 1031.5 0.5 L 1031.5 700.5 M 1046.5 0.5 L 1046.5 700.5 M 1060.5 0.5 L 1060.5 700.5 M 1089.5 0.5 L 1089.5 700.5 M 1104.5 0.5 L 1104.5 700.5 M 1118.5 0.5 L 1118.5 700.5 M 1133.5 0.5 L 1133.5 700.5" stroke-opacity="0.23529411764705882" stroke-linecap="round" stroke-linejoin="round" stroke-miterlimit="10"/><path fill="none" stroke="rgb(192,192,192)" paint-order="fill stroke markers" d=" M 0.5 68.5 L 1148.5 68.5 M 0.5 68.5 L 1148.5 68.5 M 0.5 140.5 L 1148.5 140.5 M 0.5 213.5 L 1148.5 213.5 M 0.5 285.5 L 1148.5 285.5 M 0.5 358.5 L 1148.5 358.5 M 0.5 431.5 L 1148.5 431.5 M 0.5 503.5 L 1148.5 503.5 M 0.5 576.5 L 1148.5 576.5" stroke-opacity="1" stroke-linecap="round" stroke-linejoin="round" stroke-miterlimit="10"/><path fill="none" stroke="rgb(192,192,192)" paint-order="fill stroke markers" d=" M 0.5 9.5 L 1148.5 9.5 M 0.5 24.5 L 1148.5 24.5 M 0.5 38.5 L 1148.5 38.5 M 0.5 53.5 L 1148.5 53.5 M 0.5 82.5 L 1148.5 82.5 M 0.5 97.5 L 1148.5 97.5 M 0.5 111.5 L 1148.5 111.5 M 0.5 126.5 L 1148.5 126.5 M 0.5 155.5 L 1148.5 155.5 M 0.5 169.5 L 1148.5 169.5 M 0.5 184.5 L 1148.5 184.5 M 0.5 198.5 L 1148.5 198.5 M 0.5 227.5 L 1148.5 227.5 M 0.5 242.5 L 1148.5 242.5 M 0.5 256.5 L 1148.5 256.5 M 0.5 271.5 L 1148.5 271.5 M 0.5 300.5 L 1148.5 300.5 M 0.5 315.5 L 1148.5 315.5 M 0.5 329.5 L 1148.5 329.5 M 0.5 344.5 L 1148.5 344.5 M 0.5 373.5 L 1148.5 373.5 M 0.5 387.5 L 1148.5 387.5 M 0.5 402.5 L 1148.5 402.5 M 0.5 416.5 L 1148.5 416.5 M 0.5 445.5 L 1148.5 445.5 M 0.5 460.5 L 1148.5 460.5 M 0.5 474.5 L 1148.5 474.5 M 0.5 489.5 L 1148.5 489.5 M 0.5 518.5 L 1148.5 518.5 M 0.5 532.5 L 1148.5 532.5 M 0.5 547.5 L 1148.5 547.5 M 0.5 562.5 L 1148.5 562.5 M 0.5 591.5 L 1148.5 591.5 M 0.5 605.5 L 1148.5 605.5 M 0.5 620.5 L 1148.5 620.5 M 0.5 634.5 L 1148.5 634.5 M 0.5 663.5 L 1148.5 663.5 M 0.5 678.5 L 1148.5 678.5 M 0.5 692.5 L 1148.5 692.5" stroke-opacity="0.23529411764705882" stroke-linecap="round" stroke-linejoin="round" stroke-miterlimit="10"/><path fill="none" stroke="rgb(0,0,0)" paint-order="fill stroke markers" d=" M 58.5 2.5 L 58.5 700.5" stroke-opacity="1" stroke-miterlimit="10"/><path fill="none" stroke="rgb(0,0,0)" paint-order="fill stroke markers" d=" M 58.5 1.5 L 54.5 5.5" stroke-opacity="1" stroke-miterlimit="10"/><path fill="none" stroke="rgb(0,0,0)" paint-order="fill stroke markers" d=" M 58.5 1.5 L 62.5 5.5" stroke-opacity="1" stroke-miterlimit="10"/><path fill="none" stroke="rgb(0,0,0)" paint-order="fill stroke markers" d=" M 0.5 649.5 L 1146.5 649.5" stroke-opacity="1" stroke-miterlimit="10"/><path fill="none" stroke="rgb(0,0,0)" paint-order="fill stroke markers" d=" M 1147.5 649.5 L 1143.5 645.5" stroke-opacity="1" stroke-miterlimit="10"/><path fill="none" stroke="rgb(0,0,0)" paint-order="fill stroke markers" d=" M 1147.5 649.5 L 1143.5 653.5" stroke-opacity="1" stroke-miterlimit="10"/><text fill="rgb(0,0,0)" stroke="none" font-family="geogebra-sans-serif, sans-serif" font-size="12px" font-style="normal" font-weight="normal" text-decoration="normal" x="128" y="665" text-anchor="start" dominant-baseline="alphabetic" fill-opacity="1">1</text><text fill="none" stroke="rgb(255,255,255)" font-family="geogebra-sans-serif, sans-serif" font-size="12px" font-style="normal" font-weight="normal" text-decoration="normal" x="128" y="665" text-anchor="start" dominant-baseline="alphabetic" stroke-opacity="1" stroke-linejoin="bevel" stroke-miterlimit="10" stroke-width="3">1</text><text fill="rgb(0,0,0)" stroke="none" font-family="geogebra-sans-serif, sans-serif" font-size="12px" font-style="normal" font-weight="normal" text-decoration="normal" x="128" y="665" text-anchor="start" dominant-baseline="alphabetic" fill-opacity="1">1</text><text fill="rgb(0,0,0)" stroke="none" font-family="geogebra-sans-serif, sans-serif" font-size="12px" font-style="normal" font-weight="normal" text-decoration="normal" x="201" y="665" text-anchor="start" dominant-baseline="alphabetic" fill-opacity="1">2</text><text fill="none" stroke="rgb(255,255,255)" font-family="geogebra-sans-serif, sans-serif" font-size="12px" font-style="normal" font-weight="normal" text-decoration="normal" x="201" y="665" text-anchor="start" dominant-baseline="alphabetic" stroke-opacity="1" stroke-linejoin="bevel" stroke-miterlimit="10" stroke-width="3">2</text><text fill="rgb(0,0,0)" stroke="none" font-family="geogebra-sans-serif, sans-serif" font-size="12px" font-style="normal" font-weight="normal" text-decoration="normal" x="201" y="665" text-anchor="start" dominant-baseline="alphabetic" fill-opacity="1">2</text><text fill="rgb(0,0,0)" stroke="none" font-family="geogebra-sans-serif, sans-serif" font-size="12px" font-style="normal" font-weight="normal" text-decoration="normal" x="274" y="665" text-anchor="start" dominant-baseline="alphabetic" fill-opacity="1">3</text><text fill="none" stroke="rgb(255,255,255)" font-family="geogebra-sans-serif, sans-serif" font-size="12px" font-style="normal" font-weight="normal" text-decoration="normal" x="274" y="665" text-anchor="start" dominant-baseline="alphabetic" stroke-opacity="1" stroke-linejoin="bevel" stroke-miterlimit="10" stroke-width="3">3</text><text fill="rgb(0,0,0)" stroke="none" font-family="geogebra-sans-serif, sans-serif" font-size="12px" font-style="normal" font-weight="normal" text-decoration="normal" x="274" y="665" text-anchor="start" dominant-baseline="alphabetic" fill-opacity="1">3</text><text fill="rgb(0,0,0)" stroke="none" font-family="geogebra-sans-serif, sans-serif" font-size="12px" font-style="normal" font-weight="normal" text-decoration="normal" x="346" y="665" text-anchor="start" dominant-baseline="alphabetic" fill-opacity="1">4</text><text fill="none" stroke="rgb(255,255,255)" font-family="geogebra-sans-serif, sans-serif" font-size="12px" font-style="normal" font-weight="normal" text-decoration="normal" x="346" y="665" text-anchor="start" dominant-baseline="alphabetic" stroke-opacity="1" stroke-linejoin="bevel" stroke-miterlimit="10" stroke-width="3">4</text><text fill="rgb(0,0,0)" stroke="none" font-family="geogebra-sans-serif, sans-serif" font-size="12px" font-style="normal" font-weight="normal" text-decoration="normal" x="346" y="665" text-anchor="start" dominant-baseline="alphabetic" fill-opacity="1">4</text><text fill="rgb(0,0,0)" stroke="none" font-family="geogebra-sans-serif, sans-serif" font-size="12px" font-style="normal" font-weight="normal" text-decoration="normal" x="419" y="665" text-anchor="start" dominant-baseline="alphabetic" fill-opacity="1">5</text><text fill="none" stroke="rgb(255,255,255)" font-family="geogebra-sans-serif, sans-serif" font-size="12px" font-style="normal" font-weight="normal" text-decoration="normal" x="419" y="665" text-anchor="start" dominant-baseline="alphabetic" stroke-opacity="1" stroke-linejoin="bevel" stroke-miterlimit="10" stroke-width="3">5</text><text fill="rgb(0,0,0)" stroke="none" font-family="geogebra-sans-serif, sans-serif" font-size="12px" font-style="normal" font-weight="normal" text-decoration="normal" x="419" y="665" text-anchor="start" dominant-baseline="alphabetic" fill-opacity="1">5</text><text fill="rgb(0,0,0)" stroke="none" font-family="geogebra-sans-serif, sans-serif" font-size="12px" font-style="normal" font-weight="normal" text-decoration="normal" x="492" y="665" text-anchor="start" dominant-baseline="alphabetic" fill-opacity="1">6</text><text fill="none" stroke="rgb(255,255,255)" font-family="geogebra-sans-serif, sans-serif" font-size="12px" font-style="normal" font-weight="normal" text-decoration="normal" x="492" y="665" text-anchor="start" dominant-baseline="alphabetic" stroke-opacity="1" stroke-linejoin="bevel" stroke-miterlimit="10" stroke-width="3">6</text><text fill="rgb(0,0,0)" stroke="none" font-family="geogebra-sans-serif, sans-serif" font-size="12px" font-style="normal" font-weight="normal" text-decoration="normal" x="492" y="665" text-anchor="start" dominant-baseline="alphabetic" fill-opacity="1">6</text><text fill="rgb(0,0,0)" stroke="none" font-family="geogebra-sans-serif, sans-serif" font-size="12px" font-style="normal" font-weight="normal" text-decoration="normal" x="564" y="665" text-anchor="start" dominant-baseline="alphabetic" fill-opacity="1">7</text><text fill="none" stroke="rgb(255,255,255)" font-family="geogebra-sans-serif, sans-serif" font-size="12px" font-style="normal" font-weight="normal" text-decoration="normal" x="564" y="665" text-anchor="start" dominant-baseline="alphabetic" stroke-opacity="1" stroke-linejoin="bevel" stroke-miterlimit="10" stroke-width="3">7</text><text fill="rgb(0,0,0)" stroke="none" font-family="geogebra-sans-serif, sans-serif" font-size="12px" font-style="normal" font-weight="normal" text-decoration="normal" x="564" y="665" text-anchor="start" dominant-baseline="alphabetic" fill-opacity="1">7</text><text fill="rgb(0,0,0)" stroke="none" font-family="geogebra-sans-serif, sans-serif" font-size="12px" font-style="normal" font-weight="normal" text-decoration="normal" x="637" y="665" text-anchor="start" dominant-baseline="alphabetic" fill-opacity="1">8</text><text fill="none" stroke="rgb(255,255,255)" font-family="geogebra-sans-serif, sans-serif" font-size="12px" font-style="normal" font-weight="normal" text-decoration="normal" x="637" y="665" text-anchor="start" dominant-baseline="alphabetic" stroke-opacity="1" stroke-linejoin="bevel" stroke-miterlimit="10" stroke-width="3">8</text><text fill="rgb(0,0,0)" stroke="none" font-family="geogebra-sans-serif, sans-serif" font-size="12px" font-style="normal" font-weight="normal" text-decoration="normal" x="637" y="665" text-anchor="start" dominant-baseline="alphabetic" fill-opacity="1">8</text><text fill="rgb(0,0,0)" stroke="none" font-family="geogebra-sans-serif, sans-serif" font-size="12px" font-style="normal" font-weight="normal" text-decoration="normal" x="710" y="665" text-anchor="start" dominant-baseline="alphabetic" fill-opacity="1">9</text><text fill="none" stroke="rgb(255,255,255)" font-family="geogebra-sans-serif, sans-serif" font-size="12px" font-style="normal" font-weight="normal" text-decoration="normal" x="710" y="665" text-anchor="start" dominant-baseline="alphabetic" stroke-opacity="1" stroke-linejoin="bevel" stroke-miterlimit="10" stroke-width="3">9</text><text fill="rgb(0,0,0)" stroke="none" font-family="geogebra-sans-serif, sans-serif" font-size="12px" font-style="normal" font-weight="normal" text-decoration="normal" x="710" y="665" text-anchor="start" dominant-baseline="alphabetic" fill-opacity="1">9</text><text fill="rgb(0,0,0)" stroke="none" font-family="geogebra-sans-serif, sans-serif" font-size="12px" font-style="normal" font-weight="normal" text-decoration="normal" x="779" y="665" text-anchor="start" dominant-baseline="alphabetic" fill-opacity="1">10</text><text fill="none" stroke="rgb(255,255,255)" font-family="geogebra-sans-serif, sans-serif" font-size="12px" font-style="normal" font-weight="normal" text-decoration="normal" x="779" y="665" text-anchor="start" dominant-baseline="alphabetic" stroke-opacity="1" stroke-linejoin="bevel" stroke-miterlimit="10" stroke-width="3">10</text><text fill="rgb(0,0,0)" stroke="none" font-family="geogebra-sans-serif, sans-serif" font-size="12px" font-style="normal" font-weight="normal" text-decoration="normal" x="779" y="665" text-anchor="start" dominant-baseline="alphabetic" fill-opacity="1">10</text><text fill="rgb(0,0,0)" stroke="none" font-family="geogebra-sans-serif, sans-serif" font-size="12px" font-style="normal" font-weight="normal" text-decoration="normal" x="852" y="665" text-anchor="start" dominant-baseline="alphabetic" fill-opacity="1">11</text><text fill="none" stroke="rgb(255,255,255)" font-family="geogebra-sans-serif, sans-serif" font-size="12px" font-style="normal" font-weight="normal" text-decoration="normal" x="852" y="665" text-anchor="start" dominant-baseline="alphabetic" stroke-opacity="1" stroke-linejoin="bevel" stroke-miterlimit="10" stroke-width="3">11</text><text fill="rgb(0,0,0)" stroke="none" font-family="geogebra-sans-serif, sans-serif" font-size="12px" font-style="normal" font-weight="normal" text-decoration="normal" x="852" y="665" text-anchor="start" dominant-baseline="alphabetic" fill-opacity="1">11</text><text fill="rgb(0,0,0)" stroke="none" font-family="geogebra-sans-serif, sans-serif" font-size="12px" font-style="normal" font-weight="normal" text-decoration="normal" x="925" y="665" text-anchor="start" dominant-baseline="alphabetic" fill-opacity="1">12</text><text fill="none" stroke="rgb(255,255,255)" font-family="geogebra-sans-serif, sans-serif" font-size="12px" font-style="normal" font-weight="normal" text-decoration="normal" x="925" y="665" text-anchor="start" dominant-baseline="alphabetic" stroke-opacity="1" stroke-linejoin="bevel" stroke-miterlimit="10" stroke-width="3">12</text><text fill="rgb(0,0,0)" stroke="none" font-family="geogebra-sans-serif, sans-serif" font-size="12px" font-style="normal" font-weight="normal" text-decoration="normal" x="925" y="665" text-anchor="start" dominant-baseline="alphabetic" fill-opacity="1">12</text><text fill="rgb(0,0,0)" stroke="none" font-family="geogebra-sans-serif, sans-serif" font-size="12px" font-style="normal" font-weight="normal" text-decoration="normal" x="997" y="665" text-anchor="start" dominant-baseline="alphabetic" fill-opacity="1">13</text><text fill="none" stroke="rgb(255,255,255)" font-family="geogebra-sans-serif, sans-serif" font-size="12px" font-style="normal" font-weight="normal" text-decoration="normal" x="997" y="665" text-anchor="start" dominant-baseline="alphabetic" stroke-opacity="1" stroke-linejoin="bevel" stroke-miterlimit="10" stroke-width="3">13</text><text fill="rgb(0,0,0)" stroke="none" font-family="geogebra-sans-serif, sans-serif" font-size="12px" font-style="normal" font-weight="normal" text-decoration="normal" x="997" y="665" text-anchor="start" dominant-baseline="alphabetic" fill-opacity="1">13</text><text fill="rgb(0,0,0)" stroke="none" font-family="geogebra-sans-serif, sans-serif" font-size="12px" font-style="normal" font-weight="normal" text-decoration="normal" x="1070" y="665" text-anchor="start" dominant-baseline="alphabetic" fill-opacity="1">14</text><text fill="none" stroke="rgb(255,255,255)" font-family="geogebra-sans-serif, sans-serif" font-size="12px" font-style="normal" font-weight="normal" text-decoration="normal" x="1070" y="665" text-anchor="start" dominant-baseline="alphabetic" stroke-opacity="1" stroke-linejoin="bevel" stroke-miterlimit="10" stroke-width="3">14</text><text fill="rgb(0,0,0)" stroke="none" font-family="geogebra-sans-serif, sans-serif" font-size="12px" font-style="normal" font-weight="normal" text-decoration="normal" x="1070" y="665" text-anchor="start" dominant-baseline="alphabetic" fill-opacity="1">14</text><text fill="rgb(0,0,0)" stroke="none" font-family="geogebra-sans-serif, sans-serif" font-size="12px" font-style="normal" font-weight="normal" text-decoration="normal" x="44" y="581" text-anchor="start" dominant-baseline="alphabetic" fill-opacity="1">1</text><text fill="none" stroke="rgb(255,255,255)" font-family="geogebra-sans-serif, sans-serif" font-size="12px" font-style="normal" font-weight="normal" text-decoration="normal" x="44" y="581" text-anchor="start" dominant-baseline="alphabetic" stroke-opacity="1" stroke-linejoin="bevel" stroke-miterlimit="10" stroke-width="3">1</text><text fill="rgb(0,0,0)" stroke="none" font-family="geogebra-sans-serif, sans-serif" font-size="12px" font-style="normal" font-weight="normal" text-decoration="normal" x="44" y="581" text-anchor="start" dominant-baseline="alphabetic" fill-opacity="1">1</text><text fill="rgb(0,0,0)" stroke="none" font-family="geogebra-sans-serif, sans-serif" font-size="12px" font-style="normal" font-weight="normal" text-decoration="normal" x="44" y="508" text-anchor="start" dominant-baseline="alphabetic" fill-opacity="1">2</text><text fill="none" stroke="rgb(255,255,255)" font-family="geogebra-sans-serif, sans-serif" font-size="12px" font-style="normal" font-weight="normal" text-decoration="normal" x="44" y="508" text-anchor="start" dominant-baseline="alphabetic" stroke-opacity="1" stroke-linejoin="bevel" stroke-miterlimit="10" stroke-width="3">2</text><text fill="rgb(0,0,0)" stroke="none" font-family="geogebra-sans-serif, sans-serif" font-size="12px" font-style="normal" font-weight="normal" text-decoration="normal" x="44" y="508" text-anchor="start" dominant-baseline="alphabetic" fill-opacity="1">2</text><text fill="rgb(0,0,0)" stroke="none" font-family="geogebra-sans-serif, sans-serif" font-size="12px" font-style="normal" font-weight="normal" text-decoration="normal" x="44" y="436" text-anchor="start" dominant-baseline="alphabetic" fill-opacity="1">3</text><text fill="none" stroke="rgb(255,255,255)" font-family="geogebra-sans-serif, sans-serif" font-size="12px" font-style="normal" font-weight="normal" text-decoration="normal" x="44" y="436" text-anchor="start" dominant-baseline="alphabetic" stroke-opacity="1" stroke-linejoin="bevel" stroke-miterlimit="10" stroke-width="3">3</text><text fill="rgb(0,0,0)" stroke="none" font-family="geogebra-sans-serif, sans-serif" font-size="12px" font-style="normal" font-weight="normal" text-decoration="normal" x="44" y="436" text-anchor="start" dominant-baseline="alphabetic" fill-opacity="1">3</text><text fill="rgb(0,0,0)" stroke="none" font-family="geogebra-sans-serif, sans-serif" font-size="12px" font-style="normal" font-weight="normal" text-decoration="normal" x="44" y="363" text-anchor="start" dominant-baseline="alphabetic" fill-opacity="1">4</text><text fill="none" stroke="rgb(255,255,255)" font-family="geogebra-sans-serif, sans-serif" font-size="12px" font-style="normal" font-weight="normal" text-decoration="normal" x="44" y="363" text-anchor="start" dominant-baseline="alphabetic" stroke-opacity="1" stroke-linejoin="bevel" stroke-miterlimit="10" stroke-width="3">4</text><text fill="rgb(0,0,0)" stroke="none" font-family="geogebra-sans-serif, sans-serif" font-size="12px" font-style="normal" font-weight="normal" text-decoration="normal" x="44" y="363" text-anchor="start" dominant-baseline="alphabetic" fill-opacity="1">4</text><text fill="rgb(0,0,0)" stroke="none" font-family="geogebra-sans-serif, sans-serif" font-size="12px" font-style="normal" font-weight="normal" text-decoration="normal" x="44" y="290" text-anchor="start" dominant-baseline="alphabetic" fill-opacity="1">5</text><text fill="none" stroke="rgb(255,255,255)" font-family="geogebra-sans-serif, sans-serif" font-size="12px" font-style="normal" font-weight="normal" text-decoration="normal" x="44" y="290" text-anchor="start" dominant-baseline="alphabetic" stroke-opacity="1" stroke-linejoin="bevel" stroke-miterlimit="10" stroke-width="3">5</text><text fill="rgb(0,0,0)" stroke="none" font-family="geogebra-sans-serif, sans-serif" font-size="12px" font-style="normal" font-weight="normal" text-decoration="normal" x="44" y="290" text-anchor="start" dominant-baseline="alphabetic" fill-opacity="1">5</text><text fill="rgb(0,0,0)" stroke="none" font-family="geogebra-sans-serif, sans-serif" font-size="12px" font-style="normal" font-weight="normal" text-decoration="normal" x="44" y="218" text-anchor="start" dominant-baseline="alphabetic" fill-opacity="1">6</text><text fill="none" stroke="rgb(255,255,255)" font-family="geogebra-sans-serif, sans-serif" font-size="12px" font-style="normal" font-weight="normal" text-decoration="normal" x="44" y="218" text-anchor="start" dominant-baseline="alphabetic" stroke-opacity="1" stroke-linejoin="bevel" stroke-miterlimit="10" stroke-width="3">6</text><text fill="rgb(0,0,0)" stroke="none" font-family="geogebra-sans-serif, sans-serif" font-size="12px" font-style="normal" font-weight="normal" text-decoration="normal" x="44" y="218" text-anchor="start" dominant-baseline="alphabetic" fill-opacity="1">6</text><text fill="rgb(0,0,0)" stroke="none" font-family="geogebra-sans-serif, sans-serif" font-size="12px" font-style="normal" font-weight="normal" text-decoration="normal" x="44" y="145" text-anchor="start" dominant-baseline="alphabetic" fill-opacity="1">7</text><text fill="none" stroke="rgb(255,255,255)" font-family="geogebra-sans-serif, sans-serif" font-size="12px" font-style="normal" font-weight="normal" text-decoration="normal" x="44" y="145" text-anchor="start" dominant-baseline="alphabetic" stroke-opacity="1" stroke-linejoin="bevel" stroke-miterlimit="10" stroke-width="3">7</text><text fill="rgb(0,0,0)" stroke="none" font-family="geogebra-sans-serif, sans-serif" font-size="12px" font-style="normal" font-weight="normal" text-decoration="normal" x="44" y="145" text-anchor="start" dominant-baseline="alphabetic" fill-opacity="1">7</text><text fill="rgb(0,0,0)" stroke="none" font-family="geogebra-sans-serif, sans-serif" font-size="12px" font-style="normal" font-weight="normal" text-decoration="normal" x="44" y="73" text-anchor="start" dominant-baseline="alphabetic" fill-opacity="1">8</text><text fill="none" stroke="rgb(255,255,255)" font-family="geogebra-sans-serif, sans-serif" font-size="12px" font-style="normal" font-weight="normal" text-decoration="normal" x="44" y="73" text-anchor="start" dominant-baseline="alphabetic" stroke-opacity="1" stroke-linejoin="bevel" stroke-miterlimit="10" stroke-width="3">8</text><text fill="rgb(0,0,0)" stroke="none" font-family="geogebra-sans-serif, sans-serif" font-size="12px" font-style="normal" font-weight="normal" text-decoration="normal" x="44" y="73" text-anchor="start" dominant-baseline="alphabetic" fill-opacity="1">8</text><text fill="rgb(0,0,0)" stroke="none" font-family="geogebra-sans-serif, sans-serif" font-size="12px" font-style="normal" font-weight="normal" text-decoration="normal" x="44" y="665" text-anchor="start" dominant-baseline="alphabetic" fill-opacity="1">0</text><text fill="none" stroke="rgb(255,255,255)" font-family="geogebra-sans-serif, sans-serif" font-size="12px" font-style="normal" font-weight="normal" text-decoration="normal" x="44" y="665" text-anchor="start" dominant-baseline="alphabetic" stroke-opacity="1" stroke-linejoin="bevel" stroke-miterlimit="10" stroke-width="3">0</text><text fill="rgb(0,0,0)" stroke="none" font-family="geogebra-sans-serif, sans-serif" font-size="12px" font-style="normal" font-weight="normal" text-decoration="normal" x="44" y="665" text-anchor="start" dominant-baseline="alphabetic" fill-opacity="1">0</text><path fill="none" stroke="rgb(0,0,0)" paint-order="fill stroke markers" d=" M 494.11131751721206 358.641607955072 C 494.11131751721206 479.01043446250816 396.53310394375825 576.5886480359619 276.1642774363221 576.5886480359619 C 155.79545092888588 576.5886480359619 58.21723735543213 479.01043446250816 58.21723735543213 358.641607955072 C 58.21723735543213 238.27278144763585 155.79545092888588 140.6945678741821 276.1642774363221 140.6945678741821 C 396.53310394375825 140.6945678741821 494.11131751721206 238.27278144763585 494.11131751721206 358.641607955072 Z" stroke-opacity="0.6980392156862745" stroke-linecap="round" stroke-linejoin="round" stroke-miterlimit="10" stroke-width="2.5"/><path fill="none" stroke="rgb(0,0,0)" paint-order="fill stroke markers" d=" M 1002.6544110392886 358.641607955072 C 1002.6544110392886 519.1333766316536 872.5501262746836 649.2376613962585 712.058357598102 649.2376613962585 C 551.5665889215204 649.2376613962585 421.4623041569154 519.1333766316536 421.4623041569154 358.641607955072 C 421.4623041569154 198.14983927849045 551.5665889215204 68.04555451388546 712.058357598102 68.04555451388546 C 872.5501262746836 68.04555451388546 1002.6544110392886 198.14983927849045 1002.6544110392886 358.641607955072 Z" stroke-opacity="0.6980392156862745" stroke-linecap="round" stroke-linejoin="round" stroke-miterlimit="10" stroke-width="2.5"/><path fill="none" stroke="rgb(0,0,0)" paint-order="fill stroke markers" d=" M 451.73272639037236 229.50357323295736 L 451.73272639037236 487.77964267718664" stroke-opacity="0.6980392156862745" stroke-linecap="round" stroke-linejoin="round" stroke-miterlimit="10" stroke-width="2.5"/><path fill="none" stroke="rgb(255,0,0)" paint-order="fill stroke markers" d=" M 451.73272639037236 358.641607955072 L 712.058357598102 358.641607955072" stroke-opacity="0.6980392156862745" stroke-linecap="round" stroke-linejoin="round" stroke-miterlimit="10" stroke-width="2.5"/><text fill="rgb(255,0,0)" stroke="none" font-family="geogebra-sans-serif, sans-serif" font-size="16px" font-style="normal" font-weight="normal" text-decoration="normal" x="581" y="374" text-anchor="start" dominant-baseline="alphabetic" fill-opacity="1">b</text><text fill="none" stroke="rgb(255,255,255)" font-family="geogebra-sans-serif, sans-serif" font-size="16px" font-style="normal" font-weight="normal" text-decoration="normal" x="581" y="374" text-anchor="start" dominant-baseline="alphabetic" stroke-opacity="1" stroke-linejoin="bevel" stroke-miterlimit="10" stroke-width="3">b</text><text fill="rgb(255,0,0)" stroke="none" font-family="geogebra-sans-serif, sans-serif" font-size="16px" font-style="normal" font-weight="normal" text-decoration="normal" x="581" y="374" text-anchor="start" dominant-baseline="alphabetic" fill-opacity="1">b</text><path fill="none" stroke="rgb(51,255,0)" paint-order="fill stroke markers" d=" M 451.73272639037236 358.641607955072 L 276.1642774363221 358.641607955072" stroke-opacity="0.6980392156862745" stroke-linecap="round" stroke-linejoin="round" stroke-miterlimit="10" stroke-width="2.5"/><text fill="rgb(51,255,0)" stroke="none" font-family="geogebra-sans-serif, sans-serif" font-size="16px" font-style="normal" font-weight="normal" text-decoration="normal" x="363" y="342" text-anchor="start" dominant-baseline="alphabetic" fill-opacity="1">a</text><text fill="none" stroke="rgb(255,255,255)" font-family="geogebra-sans-serif, sans-serif" font-size="16px" font-style="normal" font-weight="normal" text-decoration="normal" x="363" y="342" text-anchor="start" dominant-baseline="alphabetic" stroke-opacity="1" stroke-linejoin="bevel" stroke-miterlimit="10" stroke-width="3">a</text><text fill="rgb(51,255,0)" stroke="none" font-family="geogebra-sans-serif, sans-serif" font-size="16px" font-style="normal" font-weight="normal" text-decoration="normal" x="363" y="342" text-anchor="start" dominant-baseline="alphabetic" fill-opacity="1">a</text><path fill="none" stroke="rgb(0,0,0)" paint-order="fill stroke markers" d=" M 276.1642774363221 358.641607955072 L 451.73272639037236 229.50357323295736" stroke-opacity="0.6980392156862745" stroke-linecap="round" stroke-linejoin="round" stroke-miterlimit="10" stroke-width="2.5"/><text fill="rgb(0,0,0)" stroke="none" font-family="geogebra-sans-serif, sans-serif" font-size="16px" font-style="normal" font-weight="normal" text-decoration="normal" x="373" y="306" text-anchor="start" dominant-baseline="alphabetic" fill-opacity="1">R1</text><text fill="none" stroke="rgb(255,255,255)" font-family="geogebra-sans-serif, sans-serif" font-size="16px" font-style="normal" font-weight="normal" text-decoration="normal" x="373" y="306" text-anchor="start" dominant-baseline="alphabetic" stroke-opacity="1" stroke-linejoin="bevel" stroke-miterlimit="10" stroke-width="3">R1</text><text fill="rgb(0,0,0)" stroke="none" font-family="geogebra-sans-serif, sans-serif" font-size="16px" font-style="normal" font-weight="normal" text-decoration="normal" x="373" y="306" text-anchor="start" dominant-baseline="alphabetic" fill-opacity="1">R1</text><path fill="none" stroke="rgb(0,0,0)" paint-order="fill stroke markers" d=" M 451.73272639037236 229.50357323295736 L 712.058357598102 358.641607955072" stroke-opacity="0.6980392156862745" stroke-linecap="round" stroke-linejoin="round" stroke-miterlimit="10" stroke-width="2.5"/><text fill="rgb(0,0,0)" stroke="none" font-family="geogebra-sans-serif, sans-serif" font-size="16px" font-style="normal" font-weight="normal" text-decoration="normal" x="574" y="308" text-anchor="start" dominant-baseline="alphabetic" fill-opacity="1">R2</text><text fill="none" stroke="rgb(255,255,255)" font-family="geogebra-sans-serif, sans-serif" font-size="16px" font-style="normal" font-weight="normal" text-decoration="normal" x="574" y="308" text-anchor="start" dominant-baseline="alphabetic" stroke-opacity="1" stroke-linejoin="bevel" stroke-miterlimit="10" stroke-width="3">R2</text><text fill="rgb(0,0,0)" stroke="none" font-family="geogebra-sans-serif, sans-serif" font-size="16px" font-style="normal" font-weight="normal" text-decoration="normal" x="574" y="308" text-anchor="start" dominant-baseline="alphabetic" fill-opacity="1">R2</text><path fill="none" stroke="rgb(0,0,0)" paint-order="fill stroke markers" d=" M 451.73272639037236 229.50357323295736 L 451.73272639037236 358.641607955072" stroke-opacity="0.6980392156862745" stroke-linecap="round" stroke-linejoin="round" stroke-miterlimit="10" stroke-width="2.5"/><text fill="rgb(0,0,0)" stroke="none" font-family="geogebra-sans-serif, sans-serif" font-size="16px" font-style="normal" font-weight="normal" text-decoration="normal" x="435" y="294" text-anchor="start" dominant-baseline="alphabetic" fill-opacity="1">h</text><text fill="none" stroke="rgb(255,255,255)" font-family="geogebra-sans-serif, sans-serif" font-size="16px" font-style="normal" font-weight="normal" text-decoration="normal" x="435" y="294" text-anchor="start" dominant-baseline="alphabetic" stroke-opacity="1" stroke-linejoin="bevel" stroke-miterlimit="10" stroke-width="3">h</text><text fill="rgb(0,0,0)" stroke="none" font-family="geogebra-sans-serif, sans-serif" font-size="16px" font-style="normal" font-weight="normal" text-decoration="normal" x="435" y="294" text-anchor="start" dominant-baseline="alphabetic" fill-opacity="1">h</text><path fill="rgb(77,77,255)" stroke="none" paint-order="stroke fill markers" d=" M 281.1642774363221 358.641607955072 C 281.1642774363221 361.40303170422595 278.92570118547604 363.641607955072 276.1642774363221 363.641607955072 C 273.40285368716815 363.641607955072 271.1642774363221 361.40303170422595 271.1642774363221 358.641607955072 C 271.1642774363221 355.88018420591806 273.40285368716815 353.641607955072 276.1642774363221 353.641607955072 C 278.92570118547604 353.641607955072 281.1642774363221 355.88018420591806 281.1642774363221 358.641607955072 Z" fill-opacity="1"/><path fill="none" stroke="rgb(0,0,0)" paint-order="fill stroke markers" d=" M 281.1642774363221 358.641607955072 C 281.1642774363221 361.40303170422595 278.92570118547604 363.641607955072 276.1642774363221 363.641607955072 C 273.40285368716815 363.641607955072 271.1642774363221 361.40303170422595 271.1642774363221 358.641607955072 C 271.1642774363221 355.88018420591806 273.40285368716815 353.641607955072 276.1642774363221 353.641607955072 C 278.92570118547604 353.641607955072 281.1642774363221 355.88018420591806 281.1642774363221 358.641607955072 Z" stroke-opacity="1" stroke-linecap="round" stroke-linejoin="round" stroke-miterlimit="10"/><text fill="rgb(77,77,255)" stroke="none" font-family="geogebra-sans-serif, sans-serif" font-size="16px" font-style="normal" font-weight="normal" text-decoration="normal" x="280" y="349" text-anchor="start" dominant-baseline="alphabetic" fill-opacity="1">O1</text><text fill="none" stroke="rgb(255,255,255)" font-family="geogebra-sans-serif, sans-serif" font-size="16px" font-style="normal" font-weight="normal" text-decoration="normal" x="280" y="349" text-anchor="start" dominant-baseline="alphabetic" stroke-opacity="1" stroke-linejoin="bevel" stroke-miterlimit="10" stroke-width="3">O1</text><text fill="rgb(77,77,255)" stroke="none" font-family="geogebra-sans-serif, sans-serif" font-size="16px" font-style="normal" font-weight="normal" text-decoration="normal" x="280" y="349" text-anchor="start" dominant-baseline="alphabetic" fill-opacity="1">O1</text><path fill="rgb(77,77,255)" stroke="none" paint-order="stroke fill markers" d=" M 63.217237355432154 358.641607955072 C 63.217237355432154 361.40303170422595 60.97866110458612 363.641607955072 58.217237355432154 363.641607955072 C 55.455813606278184 363.641607955072 53.217237355432154 361.40303170422595 53.217237355432154 358.641607955072 C 53.217237355432154 355.88018420591806 55.455813606278184 353.641607955072 58.217237355432154 353.641607955072 C 60.97866110458612 353.641607955072 63.217237355432154 355.88018420591806 63.217237355432154 358.641607955072 Z" fill-opacity="1"/><path fill="none" stroke="rgb(0,0,0)" paint-order="fill stroke markers" d=" M 63.217237355432154 358.641607955072 C 63.217237355432154 361.40303170422595 60.97866110458612 363.641607955072 58.217237355432154 363.641607955072 C 55.455813606278184 363.641607955072 53.217237355432154 361.40303170422595 53.217237355432154 358.641607955072 C 53.217237355432154 355.88018420591806 55.455813606278184 353.641607955072 58.217237355432154 353.641607955072 C 60.97866110458612 353.641607955072 63.217237355432154 355.88018420591806 63.217237355432154 358.641607955072 Z" stroke-opacity="1" stroke-linecap="round" stroke-linejoin="round" stroke-miterlimit="10"/><text fill="rgb(77,77,255)" stroke="none" font-family="geogebra-sans-serif, sans-serif" font-size="16px" font-style="normal" font-weight="normal" text-decoration="normal" x="62" y="349" text-anchor="start" dominant-baseline="alphabetic" fill-opacity="1">B</text><text fill="none" stroke="rgb(255,255,255)" font-family="geogebra-sans-serif, sans-serif" font-size="16px" font-style="normal" font-weight="normal" text-decoration="normal" x="62" y="349" text-anchor="start" dominant-baseline="alphabetic" stroke-opacity="1" stroke-linejoin="bevel" stroke-miterlimit="10" stroke-width="3">B</text><text fill="rgb(77,77,255)" stroke="none" font-family="geogebra-sans-serif, sans-serif" font-size="16px" font-style="normal" font-weight="normal" text-decoration="normal" x="62" y="349" text-anchor="start" dominant-baseline="alphabetic" fill-opacity="1">B</text><path fill="rgb(77,77,255)" stroke="none" paint-order="stroke fill markers" d=" M 717.058357598102 358.641607955072 C 717.058357598102 361.40303170422595 714.819781347256 363.641607955072 712.058357598102 363.641607955072 C 709.296933848948 363.641607955072 707.058357598102 361.40303170422595 707.058357598102 358.641607955072 C 707.058357598102 355.88018420591806 709.296933848948 353.641607955072 712.058357598102 353.641607955072 C 714.819781347256 353.641607955072 717.058357598102 355.88018420591806 717.058357598102 358.641607955072 Z" fill-opacity="1"/><path fill="none" stroke="rgb(0,0,0)" paint-order="fill stroke markers" d=" M 717.058357598102 358.641607955072 C 717.058357598102 361.40303170422595 714.819781347256 363.641607955072 712.058357598102 363.641607955072 C 709.296933848948 363.641607955072 707.058357598102 361.40303170422595 707.058357598102 358.641607955072 C 707.058357598102 355.88018420591806 709.296933848948 353.641607955072 712.058357598102 353.641607955072 C 714.819781347256 353.641607955072 717.058357598102 355.88018420591806 717.058357598102 358.641607955072 Z" stroke-opacity="1" stroke-linecap="round" stroke-linejoin="round" stroke-miterlimit="10"/><text fill="rgb(77,77,255)" stroke="none" font-family="geogebra-sans-serif, sans-serif" font-size="16px" font-style="normal" font-weight="normal" text-decoration="normal" x="716" y="349" text-anchor="start" dominant-baseline="alphabetic" fill-opacity="1">O2</text><text fill="none" stroke="rgb(255,255,255)" font-family="geogebra-sans-serif, sans-serif" font-size="16px" font-style="normal" font-weight="normal" text-decoration="normal" x="716" y="349" text-anchor="start" dominant-baseline="alphabetic" stroke-opacity="1" stroke-linejoin="bevel" stroke-miterlimit="10" stroke-width="3">O2</text><text fill="rgb(77,77,255)" stroke="none" font-family="geogebra-sans-serif, sans-serif" font-size="16px" font-style="normal" font-weight="normal" text-decoration="normal" x="716" y="349" text-anchor="start" dominant-baseline="alphabetic" fill-opacity="1">O2</text><path fill="rgb(125,125,255)" stroke="none" paint-order="stroke fill markers" d=" M 455.73272639037236 229.50357323295736 C 455.73272639037236 231.71271223228052 453.9418653896955 233.50357323295736 451.73272639037236 233.50357323295736 C 449.5235873910492 233.50357323295736 447.73272639037236 231.71271223228052 447.73272639037236 229.50357323295736 C 447.73272639037236 227.29443423363418 449.5235873910492 225.50357323295736 451.73272639037236 225.50357323295736 C 453.9418653896955 225.50357323295736 455.73272639037236 227.29443423363418 455.73272639037236 229.50357323295736 Z" fill-opacity="1"/><path fill="none" stroke="rgb(0,0,0)" paint-order="fill stroke markers" d=" M 455.73272639037236 229.50357323295736 C 455.73272639037236 231.71271223228052 453.9418653896955 233.50357323295736 451.73272639037236 233.50357323295736 C 449.5235873910492 233.50357323295736 447.73272639037236 231.71271223228052 447.73272639037236 229.50357323295736 C 447.73272639037236 227.29443423363418 449.5235873910492 225.50357323295736 451.73272639037236 225.50357323295736 C 453.9418653896955 225.50357323295736 455.73272639037236 227.29443423363418 455.73272639037236 229.50357323295736 Z" stroke-opacity="1" stroke-linecap="round" stroke-linejoin="round" stroke-miterlimit="10"/><text fill="rgb(125,125,255)" stroke="none" font-family="geogebra-sans-serif, sans-serif" font-size="16px" font-style="normal" font-weight="normal" text-decoration="normal" x="456" y="222" text-anchor="start" dominant-baseline="alphabetic" fill-opacity="1">M1</text><text fill="none" stroke="rgb(255,255,255)" font-family="geogebra-sans-serif, sans-serif" font-size="16px" font-style="normal" font-weight="normal" text-decoration="normal" x="456" y="222" text-anchor="start" dominant-baseline="alphabetic" stroke-opacity="1" stroke-linejoin="bevel" stroke-miterlimit="10" stroke-width="3">M1</text><text fill="rgb(125,125,255)" stroke="none" font-family="geogebra-sans-serif, sans-serif" font-size="16px" font-style="normal" font-weight="normal" text-decoration="normal" x="456" y="222" text-anchor="start" dominant-baseline="alphabetic" fill-opacity="1">M1</text><path fill="rgb(125,125,255)" stroke="none" paint-order="stroke fill markers" d=" M 455.73272639037236 487.77964267718664 C 455.73272639037236 489.9887816765098 453.9418653896955 491.77964267718664 451.73272639037236 491.77964267718664 C 449.5235873910492 491.77964267718664 447.73272639037236 489.9887816765098 447.73272639037236 487.77964267718664 C 447.73272639037236 485.5705036778635 449.5235873910492 483.77964267718664 451.73272639037236 483.77964267718664 C 453.9418653896955 483.77964267718664 455.73272639037236 485.5705036778635 455.73272639037236 487.77964267718664 Z" fill-opacity="1"/><path fill="none" stroke="rgb(0,0,0)" paint-order="fill stroke markers" d=" M 455.73272639037236 487.77964267718664 C 455.73272639037236 489.9887816765098 453.9418653896955 491.77964267718664 451.73272639037236 491.77964267718664 C 449.5235873910492 491.77964267718664 447.73272639037236 489.9887816765098 447.73272639037236 487.77964267718664 C 447.73272639037236 485.5705036778635 449.5235873910492 483.77964267718664 451.73272639037236 483.77964267718664 C 453.9418653896955 483.77964267718664 455.73272639037236 485.5705036778635 455.73272639037236 487.77964267718664 Z" stroke-opacity="1" stroke-linecap="round" stroke-linejoin="round" stroke-miterlimit="10"/><text fill="rgb(125,125,255)" stroke="none" font-family="geogebra-sans-serif, sans-serif" font-size="16px" font-style="normal" font-weight="normal" text-decoration="normal" x="456" y="480" text-anchor="start" dominant-baseline="alphabetic" fill-opacity="1">M2</text><text fill="none" stroke="rgb(255,255,255)" font-family="geogebra-sans-serif, sans-serif" font-size="16px" font-style="normal" font-weight="normal" text-decoration="normal" x="456" y="480" text-anchor="start" dominant-baseline="alphabetic" stroke-opacity="1" stroke-linejoin="bevel" stroke-miterlimit="10" stroke-width="3">M2</text><text fill="rgb(125,125,255)" stroke="none" font-family="geogebra-sans-serif, sans-serif" font-size="16px" font-style="normal" font-weight="normal" text-decoration="normal" x="456" y="480" text-anchor="start" dominant-baseline="alphabetic" fill-opacity="1">M2</text><path fill="rgb(125,125,255)" stroke="none" paint-order="stroke fill markers" d=" M 456.73272639037236 358.641607955072 C 456.73272639037236 361.40303170422595 454.4941501395263 363.641607955072 451.73272639037236 363.641607955072 C 448.9713026412184 363.641607955072 446.73272639037236 361.40303170422595 446.73272639037236 358.641607955072 C 446.73272639037236 355.88018420591806 448.9713026412184 353.641607955072 451.73272639037236 353.641607955072 C 454.4941501395263 353.641607955072 456.73272639037236 355.88018420591806 456.73272639037236 358.641607955072 Z" fill-opacity="1"/><path fill="none" stroke="rgb(0,0,0)" paint-order="fill stroke markers" d=" M 456.73272639037236 358.641607955072 C 456.73272639037236 361.40303170422595 454.4941501395263 363.641607955072 451.73272639037236 363.641607955072 C 448.9713026412184 363.641607955072 446.73272639037236 361.40303170422595 446.73272639037236 358.641607955072 C 446.73272639037236 355.88018420591806 448.9713026412184 353.641607955072 451.73272639037236 353.641607955072 C 454.4941501395263 353.641607955072 456.73272639037236 355.88018420591806 456.73272639037236 358.641607955072 Z" stroke-opacity="1" stroke-linecap="round" stroke-linejoin="round" stroke-miterlimit="10"/><text fill="rgb(125,125,255)" stroke="none" font-family="geogebra-sans-serif, sans-serif" font-size="16px" font-style="normal" font-weight="normal" text-decoration="normal" x="456" y="349" text-anchor="start" dominant-baseline="alphabetic" fill-opacity="1">M</text><text fill="none" stroke="rgb(255,255,255)" font-family="geogebra-sans-serif, sans-serif" font-size="16px" font-style="normal" font-weight="normal" text-decoration="normal" x="456" y="349" text-anchor="start" dominant-baseline="alphabetic" stroke-opacity="1" stroke-linejoin="bevel" stroke-miterlimit="10" stroke-width="3">M</text><text fill="rgb(125,125,255)" stroke="none" font-family="geogebra-sans-serif, sans-serif" font-size="16px" font-style="normal" font-weight="normal" text-decoration="normal" x="456" y="349" text-anchor="start" dominant-baseline="alphabetic" fill-opacity="1">M</text></g></g></svg>