<svg version="1.1" xmlns="http://www.w3.org/2000/svg" xmlns:xlink="http://www.w3.org/1999/xlink" width="1015" height="692"><defs><clipPath id="tocbuLFbbMkK"><path fill="none" stroke="none" d=" M 0 0 L 1015 0 L 1015 692 L 0 692 L 0 0 Z"/></clipPath></defs><g transform="scale(1,1)" clip-path="url(#tocbuLFbbMkK)"><g><rect fill="rgb(255,255,255)" stroke="none" x="0" y="0" width="1015" height="692" fill-opacity="1"/><path fill="none" stroke="rgb(192,192,192)" paint-order="fill stroke markers" d=" M 52.5 0.5 L 52.5 692.5 M 52.5 0.5 L 52.5 692.5 M 112.5 0.5 L 112.5 692.5 M 172.5 0.5 L 172.5 692.5 M 232.5 0.5 L 232.5 692.5 M 293.5 0.5 L 293.5 692.5 M 353.5 0.5 L 353.5 692.5 M 413.5 0.5 L 413.5 692.5 M 473.5 0.5 L 473.5 692.5 M 533.5 0.5 L 533.5 692.5 M 593.5 0.5 L 593.5 692.5 M 654.5 0.5 L 654.5 692.5 M 714.5 0.5 L 714.5 692.5 M 774.5 0.5 L 774.5 692.5 M 834.5 0.5 L 834.5 692.5 M 894.5 0.5 L 894.5 692.5 M 954.5 0.5 L 954.5 692.5" stroke-opacity="1" stroke-linecap="round" stroke-linejoin="round" stroke-miterlimit="10"/><path fill="none" stroke="rgb(192,192,192)" paint-order="fill stroke markers" d="" stroke-opacity="0.23529411764705882" stroke-linecap="round" stroke-linejoin="round" stroke-miterlimit="10"/><path fill="none" stroke="rgb(192,192,192)" paint-order="fill stroke markers" d=" M 0.5 54.5 L 1015.5 54.5 M 0.5 54.5 L 1015.5 54.5 M 0.5 115.5 L 1015.5 115.5 M 0.5 175.5 L 1015.5 175.5 M 0.5 235.5 L 1015.5 235.5 M 0.5 295.5 L 1015.5 295.5 M 0.5 355.5 L 1015.5 355.5 M 0.5 415.5 L 1015.5 415.5 M 0.5 475.5 L 1015.5 475.5 M 0.5 536.5 L 1015.5 536.5 M 0.5 596.5 L 1015.5 596.5 M 0.5 656.5 L 1015.5 656.5" stroke-opacity="1" stroke-linecap="round" stroke-linejoin="round" stroke-miterlimit="10"/><path fill="none" stroke="rgb(192,192,192)" paint-order="fill stroke markers" d="" stroke-opacity="0.23529411764705882" stroke-linecap="round" stroke-linejoin="round" stroke-miterlimit="10"/><path fill="none" stroke="rgb(255,0,0)" paint-order="fill stroke markers" d=" M 794.1210477879771 148.61521592693578 L 816.9356176716926 251.28078040365563" stroke-opacity="0.6980392156862745" stroke-linecap="round" stroke-linejoin="round" stroke-miterlimit="10" stroke-width="2.5"/><path fill="rgb(21,101,192)" stroke="none" paint-order="stroke fill markers" d=" M 165.5213952831612 640.6216207895715 C 165.5213952831612 643.3830445387255 163.2828190323152 645.6216207895715 160.5213952831612 645.6216207895715 C 157.75997153400724 645.6216207895715 155.5213952831612 643.3830445387255 155.5213952831612 640.6216207895715 C 155.5213952831612 637.8601970404175 157.75997153400724 635.6216207895715 160.5213952831612 635.6216207895715 C 163.2828190323152 635.6216207895715 165.5213952831612 637.8601970404175 165.5213952831612 640.6216207895715 Z" fill-opacity="1"/><path fill="none" stroke="rgb(0,0,0)" paint-order="fill stroke markers" d=" M 165.5213952831612 640.6216207895715 C 165.5213952831612 643.3830445387255 163.2828190323152 645.6216207895715 160.5213952831612 645.6216207895715 C 157.75997153400724 645.6216207895715 155.5213952831612 643.3830445387255 155.5213952831612 640.6216207895715 C 155.5213952831612 637.8601970404175 157.75997153400724 635.6216207895715 160.5213952831612 635.6216207895715 C 163.2828190323152 635.6216207895715 165.5213952831612 637.8601970404175 165.5213952831612 640.6216207895715 Z" stroke-opacity="1" stroke-linecap="round" stroke-linejoin="round" stroke-miterlimit="10"/><path fill="rgb(21,101,192)" stroke="none" paint-order="stroke fill markers" d=" M 389.16964214867795 336.98239511814006 C 389.16964214867795 339.743818867294 386.9310658978319 341.98239511814006 384.16964214867795 341.98239511814006 C 381.408218399524 341.98239511814006 379.16964214867795 339.743818867294 379.16964214867795 336.98239511814006 C 379.16964214867795 334.2209713689861 381.408218399524 331.98239511814006 384.16964214867795 331.98239511814006 C 386.9310658978319 331.98239511814006 389.16964214867795 334.2209713689861 389.16964214867795 336.98239511814006 Z" fill-opacity="1"/><path fill="none" stroke="rgb(0,0,0)" paint-order="fill stroke markers" d=" M 389.16964214867795 336.98239511814006 C 389.16964214867795 339.743818867294 386.9310658978319 341.98239511814006 384.16964214867795 341.98239511814006 C 381.408218399524 341.98239511814006 379.16964214867795 339.743818867294 379.16964214867795 336.98239511814006 C 379.16964214867795 334.2209713689861 381.408218399524 331.98239511814006 384.16964214867795 331.98239511814006 C 386.9310658978319 331.98239511814006 389.16964214867795 334.2209713689861 389.16964214867795 336.98239511814006 Z" stroke-opacity="1" stroke-linecap="round" stroke-linejoin="round" stroke-miterlimit="10"/><path fill="rgb(255,0,0)" stroke="none" paint-order="stroke fill markers" d=" M 799.1210477879771 148.61521592693578 C 799.1210477879771 151.37663967608975 796.8824715371311 153.61521592693578 794.1210477879771 153.61521592693578 C 791.3596240388231 153.61521592693578 789.1210477879771 151.37663967608975 789.1210477879771 148.61521592693578 C 789.1210477879771 145.8537921777818 791.3596240388231 143.61521592693578 794.1210477879771 143.61521592693578 C 796.8824715371311 143.61521592693578 799.1210477879771 145.8537921777818 799.1210477879771 148.61521592693578 Z" fill-opacity="1"/><path fill="none" stroke="rgb(0,0,0)" paint-order="fill stroke markers" d=" M 799.1210477879771 148.61521592693578 C 799.1210477879771 151.37663967608975 796.8824715371311 153.61521592693578 794.1210477879771 153.61521592693578 C 791.3596240388231 153.61521592693578 789.1210477879771 151.37663967608975 789.1210477879771 148.61521592693578 C 789.1210477879771 145.8537921777818 791.3596240388231 143.61521592693578 794.1210477879771 143.61521592693578 C 796.8824715371311 143.61521592693578 799.1210477879771 145.8537921777818 799.1210477879771 148.61521592693578 Z" stroke-opacity="1" stroke-linecap="round" stroke-linejoin="round" stroke-miterlimit="10"/><path fill="rgb(21,101,192)" stroke="none" paint-order="stroke fill markers" d=" M 598.12566841719 443.0928772076188 C 598.12566841719 445.85430095677276 595.887092166344 448.0928772076188 593.12566841719 448.0928772076188 C 590.364244668036 448.0928772076188 588.12566841719 445.85430095677276 588.12566841719 443.0928772076188 C 588.12566841719 440.33145345846486 590.364244668036 438.0928772076188 593.12566841719 438.0928772076188 C 595.887092166344 438.0928772076188 598.12566841719 440.33145345846486 598.12566841719 443.0928772076188 Z" fill-opacity="1"/><path fill="none" stroke="rgb(0,0,0)" paint-order="fill stroke markers" d=" M 598.12566841719 443.0928772076188 C 598.12566841719 445.85430095677276 595.887092166344 448.0928772076188 593.12566841719 448.0928772076188 C 590.364244668036 448.0928772076188 588.12566841719 445.85430095677276 588.12566841719 443.0928772076188 C 588.12566841719 440.33145345846486 590.364244668036 438.0928772076188 593.12566841719 438.0928772076188 C 595.887092166344 438.0928772076188 598.12566841719 440.33145345846486 598.12566841719 443.0928772076188 Z" stroke-opacity="1" stroke-linecap="round" stroke-linejoin="round" stroke-miterlimit="10"/><path fill="rgb(21,101,192)" stroke="none" paint-order="stroke fill markers" d=" M 906.6623009542898 634.0917449686805 C 906.6623009542898 636.8531687178345 904.4237247034438 639.0917449686805 901.6623009542898 639.0917449686805 C 898.9008772051358 639.0917449686805 896.6623009542898 636.8531687178345 896.6623009542898 634.0917449686805 C 896.6623009542898 631.3303212195265 898.9008772051358 629.0917449686805 901.6623009542898 629.0917449686805 C 904.4237247034438 629.0917449686805 906.6623009542898 631.3303212195265 906.6623009542898 634.0917449686805 Z" fill-opacity="1"/><path fill="none" stroke="rgb(0,0,0)" paint-order="fill stroke markers" d=" M 906.6623009542898 634.0917449686805 C 906.6623009542898 636.8531687178345 904.4237247034438 639.0917449686805 901.6623009542898 639.0917449686805 C 898.9008772051358 639.0917449686805 896.6623009542898 636.8531687178345 896.6623009542898 634.0917449686805 C 896.6623009542898 631.3303212195265 898.9008772051358 629.0917449686805 901.6623009542898 629.0917449686805 C 904.4237247034438 629.0917449686805 906.6623009542898 631.3303212195265 906.6623009542898 634.0917449686805 Z" stroke-opacity="1" stroke-linecap="round" stroke-linejoin="round" stroke-miterlimit="10"/><path fill="rgb(21,101,192)" stroke="none" paint-order="stroke fill markers" d=" M 472.4255588650382 541.0410145209837 C 472.4255588650382 543.8024382701377 470.1869826141922 546.0410145209837 467.4255588650382 546.0410145209837 C 464.6641351158843 546.0410145209837 462.4255588650382 543.8024382701377 462.4255588650382 541.0410145209837 C 462.4255588650382 538.2795907718297 464.6641351158843 536.0410145209837 467.4255588650382 536.0410145209837 C 470.1869826141922 536.0410145209837 472.4255588650382 538.2795907718297 472.4255588650382 541.0410145209837 Z" fill-opacity="1"/><path fill="none" stroke="rgb(0,0,0)" paint-order="fill stroke markers" d=" M 472.4255588650382 541.0410145209837 C 472.4255588650382 543.8024382701377 470.1869826141922 546.0410145209837 467.4255588650382 546.0410145209837 C 464.6641351158843 546.0410145209837 462.4255588650382 543.8024382701377 462.4255588650382 541.0410145209837 C 462.4255588650382 538.2795907718297 464.6641351158843 536.0410145209837 467.4255588650382 536.0410145209837 C 470.1869826141922 536.0410145209837 472.4255588650382 538.2795907718297 472.4255588650382 541.0410145209837 Z" stroke-opacity="1" stroke-linecap="round" stroke-linejoin="round" stroke-miterlimit="10"/><path fill="rgb(255,0,0)" stroke="none" paint-order="stroke fill markers" d=" M 821.9356176716926 251.28078040365563 C 821.9356176716926 254.0422041528096 819.6970414208466 256.2807804036556 816.9356176716926 256.2807804036556 C 814.1741939225386 256.2807804036556 811.9356176716926 254.0422041528096 811.9356176716926 251.28078040365563 C 811.9356176716926 248.51935665450165 814.1741939225386 246.28078040365563 816.9356176716926 246.28078040365563 C 819.6970414208466 246.28078040365563 821.9356176716926 248.51935665450165 821.9356176716926 251.28078040365563 Z" fill-opacity="1"/><path fill="none" stroke="rgb(0,0,0)" paint-order="fill stroke markers" d=" M 821.9356176716926 251.28078040365563 C 821.9356176716926 254.0422041528096 819.6970414208466 256.2807804036556 816.9356176716926 256.2807804036556 C 814.1741939225386 256.2807804036556 811.9356176716926 254.0422041528096 811.9356176716926 251.28078040365563 C 811.9356176716926 248.51935665450165 814.1741939225386 246.28078040365563 816.9356176716926 246.28078040365563 C 819.6970414208466 246.28078040365563 821.9356176716926 248.51935665450165 821.9356176716926 251.28078040365563 Z" stroke-opacity="1" stroke-linecap="round" stroke-linejoin="round" stroke-miterlimit="10"/><path fill="rgb(21,101,192)" stroke="none" paint-order="stroke fill markers" d=" M 72.47066483546445 48.03539004371339 C 72.47066483546445 50.796813792867354 70.23208858461841 53.03539004371339 67.47066483546445 53.03539004371339 C 64.70924108631048 53.03539004371339 62.47066483546445 50.796813792867354 62.47066483546445 48.03539004371339 C 62.47066483546445 45.27396629455942 64.70924108631048 43.03539004371339 67.47066483546445 43.03539004371339 C 70.23208858461841 43.03539004371339 72.47066483546445 45.27396629455942 72.47066483546445 48.03539004371339 Z" fill-opacity="1"/><path fill="none" stroke="rgb(0,0,0)" paint-order="fill stroke markers" d=" M 72.47066483546445 48.03539004371339 C 72.47066483546445 50.796813792867354 70.23208858461841 53.03539004371339 67.47066483546445 53.03539004371339 C 64.70924108631048 53.03539004371339 62.47066483546445 50.796813792867354 62.47066483546445 48.03539004371339 C 62.47066483546445 45.27396629455942 64.70924108631048 43.03539004371339 67.47066483546445 43.03539004371339 C 70.23208858461841 43.03539004371339 72.47066483546445 45.27396629455942 72.47066483546445 48.03539004371339 Z" stroke-opacity="1" stroke-linecap="round" stroke-linejoin="round" stroke-miterlimit="10"/><path fill="rgb(21,101,192)" stroke="none" paint-order="stroke fill markers" d=" M 114.91485767125596 451.25522198373255 C 114.91485767125596 454.0166457328865 112.67628142040992 456.25522198373255 109.91485767125596 456.25522198373255 C 107.153433922102 456.25522198373255 104.91485767125596 454.0166457328865 104.91485767125596 451.25522198373255 C 104.91485767125596 448.4937982345786 107.153433922102 446.25522198373255 109.91485767125596 446.25522198373255 C 112.67628142040992 446.25522198373255 114.91485767125596 448.4937982345786 114.91485767125596 451.25522198373255 Z" fill-opacity="1"/><path fill="none" stroke="rgb(0,0,0)" paint-order="fill stroke markers" d=" M 114.91485767125596 451.25522198373255 C 114.91485767125596 454.0166457328865 112.67628142040992 456.25522198373255 109.91485767125596 456.25522198373255 C 107.153433922102 456.25522198373255 104.91485767125596 454.0166457328865 104.91485767125596 451.25522198373255 C 104.91485767125596 448.4937982345786 107.153433922102 446.25522198373255 109.91485767125596 446.25522198373255 C 112.67628142040992 446.25522198373255 114.91485767125596 448.4937982345786 114.91485767125596 451.25522198373255 Z" stroke-opacity="1" stroke-linecap="round" stroke-linejoin="round" stroke-miterlimit="10"/><path fill="rgb(21,101,192)" stroke="none" paint-order="stroke fill markers" d=" M 596.0713758229086 52.79402241533069 C 596.0713758229086 55.55544616448465 593.8327995720626 57.79402241533069 591.0713758229086 57.79402241533069 C 588.3099520737546 57.79402241533069 586.0713758229086 55.55544616448465 586.0713758229086 52.79402241533069 C 586.0713758229086 50.03259866617672 588.3099520737546 47.79402241533069 591.0713758229086 47.79402241533069 C 593.8327995720626 47.79402241533069 596.0713758229086 50.03259866617672 596.0713758229086 52.79402241533069 Z" fill-opacity="1"/><path fill="none" stroke="rgb(0,0,0)" paint-order="fill stroke markers" d=" M 596.0713758229086 52.79402241533069 C 596.0713758229086 55.55544616448465 593.8327995720626 57.79402241533069 591.0713758229086 57.79402241533069 C 588.3099520737546 57.79402241533069 586.0713758229086 55.55544616448465 586.0713758229086 52.79402241533069 C 586.0713758229086 50.03259866617672 588.3099520737546 47.79402241533069 591.0713758229086 47.79402241533069 C 593.8327995720626 47.79402241533069 596.0713758229086 50.03259866617672 596.0713758229086 52.79402241533069 Z" stroke-opacity="1" stroke-linecap="round" stroke-linejoin="round" stroke-miterlimit="10"/><path fill="rgb(21,101,192)" stroke="none" paint-order="stroke fill markers" d=" M 955.6363696109722 36.60810735715404 C 955.6363696109722 39.369531106308 953.3977933601262 41.60810735715404 950.6363696109722 41.60810735715404 C 947.8749458618182 41.60810735715404 945.6363696109722 39.369531106308 945.6363696109722 36.60810735715404 C 945.6363696109722 33.84668360800007 947.8749458618182 31.60810735715404 950.6363696109722 31.60810735715404 C 953.3977933601262 31.60810735715404 955.6363696109722 33.84668360800007 955.6363696109722 36.60810735715404 Z" fill-opacity="1"/><path fill="none" stroke="rgb(0,0,0)" paint-order="fill stroke markers" d=" M 955.6363696109722 36.60810735715404 C 955.6363696109722 39.369531106308 953.3977933601262 41.60810735715404 950.6363696109722 41.60810735715404 C 947.8749458618182 41.60810735715404 945.6363696109722 39.369531106308 945.6363696109722 36.60810735715404 C 945.6363696109722 33.84668360800007 947.8749458618182 31.60810735715404 950.6363696109722 31.60810735715404 C 953.3977933601262 31.60810735715404 955.6363696109722 33.84668360800007 955.6363696109722 36.60810735715404 Z" stroke-opacity="1" stroke-linecap="round" stroke-linejoin="round" stroke-miterlimit="10"/></g></g></svg>