<svg version="1.1" xmlns="http://www.w3.org/2000/svg" xmlns:xlink="http://www.w3.org/1999/xlink" width="1011" height="692"><defs><clipPath id="XCkUmMKbwneT"><path fill="none" stroke="none" d=" M 0 0 L 1011 0 L 1011 692 L 0 692 L 0 0 Z"/></clipPath></defs><g transform="scale(1,1)" clip-path="url(#XCkUmMKbwneT)"><g><rect fill="rgb(255,255,255)" stroke="none" x="0" y="0" width="1011" height="692" fill-opacity="1"/><path fill="none" stroke="rgb(192,192,192)" paint-order="fill stroke markers" d=" M 12.5 0.5 L 12.5 692.5 M 12.5 0.5 L 12.5 692.5 M 66.5 0.5 L 66.5 692.5 M 120.5 0.5 L 120.5 692.5 M 174.5 0.5 L 174.5 692.5 M 228.5 0.5 L 228.5 692.5 M 282.5 0.5 L 282.5 692.5 M 336.5 0.5 L 336.5 692.5 M 390.5 0.5 L 390.5 692.5 M 444.5 0.5 L 444.5 692.5 M 498.5 0.5 L 498.5 692.5 M 552.5 0.5 L 552.5 692.5 M 606.5 0.5 L 606.5 692.5 M 661.5 0.5 L 661.5 692.5 M 715.5 0.5 L 715.5 692.5 M 769.5 0.5 L 769.5 692.5 M 823.5 0.5 L 823.5 692.5 M 877.5 0.5 L 877.5 692.5 M 931.5 0.5 L 931.5 692.5 M 985.5 0.5 L 985.5 692.5" stroke-opacity="1" stroke-linecap="round" stroke-linejoin="round" stroke-miterlimit="10"/><path fill="none" stroke="rgb(192,192,192)" paint-order="fill stroke markers" d="" stroke-opacity="0.23529411764705882" stroke-linecap="round" stroke-linejoin="round" stroke-miterlimit="10"/><path fill="none" stroke="rgb(192,192,192)" paint-order="fill stroke markers" d=" M 0.5 35.5 L 1011.5 35.5 M 0.5 35.5 L 1011.5 35.5 M 0.5 89.5 L 1011.5 89.5 M 0.5 143.5 L 1011.5 143.5 M 0.5 197.5 L 1011.5 197.5 M 0.5 251.5 L 1011.5 251.5 M 0.5 305.5 L 1011.5 305.5 M 0.5 359.5 L 1011.5 359.5 M 0.5 413.5 L 1011.5 413.5 M 0.5 468.5 L 1011.5 468.5 M 0.5 522.5 L 1011.5 522.5 M 0.5 576.5 L 1011.5 576.5 M 0.5 630.5 L 1011.5 630.5 M 0.5 684.5 L 1011.5 684.5" stroke-opacity="1" stroke-linecap="round" stroke-linejoin="round" stroke-miterlimit="10"/><path fill="none" stroke="rgb(192,192,192)" paint-order="fill stroke markers" d="" stroke-opacity="0.23529411764705882" stroke-linecap="round" stroke-linejoin="round" stroke-miterlimit="10"/><path fill="rgb(21,101,192)" stroke="none" paint-order="stroke fill markers" fill-rule="evenodd" d=" M 455.8630644661505 -95.3199720364778 L 644.8254315486397 -95.3199720364778 L 644.8254315486397 776.854129549147 L 455.8630644661504 783.1856330151811 Z" fill-opacity="0.09803921568627451"/><path fill="none" stroke="rgb(0,0,0)" paint-order="fill stroke markers" d=" M 550.3442480073951 697 L 550.3442480073951 -5" stroke-opacity="0.6980392156862745" stroke-linecap="round" stroke-linejoin="round" stroke-miterlimit="10" stroke-width="2.5"/><path fill="none" stroke="rgb(0,0,0)" paint-order="fill stroke markers" d=" M 644.8254315486397 697 L 644.8254315486397 -5" stroke-opacity="0.6980392156862745" stroke-linecap="round" stroke-linejoin="round" stroke-miterlimit="10" stroke-width="2.5"/><path fill="none" stroke="rgb(0,0,0)" paint-order="fill stroke markers" d=" M 455.8630644661503 697 L 455.86306446615043 -5" stroke-opacity="0.6980392156862745" stroke-linecap="round" stroke-linejoin="round" stroke-miterlimit="10" stroke-width="2.5"/><path fill="none" stroke="rgb(0,100,0)" paint-order="fill stroke markers" d=" M 732.7572809749661 173.91548974201197 L 753.2531273758168 266.1467985458398" stroke-opacity="0.6980392156862745" stroke-linecap="round" stroke-linejoin="round" stroke-miterlimit="10" stroke-width="2.5"/><path fill="none" stroke="rgb(0,100,0)" paint-order="fill stroke markers" d=" M 748.3200003919485 216.28909374655404 L 736.605755669741 218.89225924037794" stroke-opacity="0.6980392156862745" stroke-linecap="round" stroke-linejoin="round" stroke-miterlimit="10" stroke-width="2.5"/><path fill="none" stroke="rgb(0,100,0)" paint-order="fill stroke markers" d=" M 749.4046526810419 221.1700290474738 L 737.6904079588344 223.7731945412977" stroke-opacity="0.6980392156862745" stroke-linecap="round" stroke-linejoin="round" stroke-miterlimit="10" stroke-width="2.5"/><path fill="none" stroke="rgb(0,0,0)" paint-order="fill stroke markers" d=" M 455.8630644661505 43.68788893945225 L 550.3442480073951 43.68788893945225" stroke-opacity="0.6980392156862745" stroke-linecap="round" stroke-linejoin="round" stroke-miterlimit="10" stroke-width="2.5"/><path fill="none" stroke="rgb(0,0,0)" paint-order="fill stroke markers" d=" M 500.6036562367728 37.68788893945225 L 500.6036562367728 49.68788893945225" stroke-opacity="0.6980392156862745" stroke-linecap="round" stroke-linejoin="round" stroke-miterlimit="10" stroke-width="2.5"/><path fill="none" stroke="rgb(0,0,0)" paint-order="fill stroke markers" d=" M 505.6036562367728 37.68788893945225 L 505.6036562367728 49.68788893945225" stroke-opacity="0.6980392156862745" stroke-linecap="round" stroke-linejoin="round" stroke-miterlimit="10" stroke-width="2.5"/><path fill="none" stroke="rgb(0,0,0)" paint-order="fill stroke markers" d=" M 644.8254315486397 43.68788893945225 L 550.3442480073951 43.68788893945225" stroke-opacity="0.6980392156862745" stroke-linecap="round" stroke-linejoin="round" stroke-miterlimit="10" stroke-width="2.5"/><path fill="none" stroke="rgb(0,0,0)" paint-order="fill stroke markers" d=" M 600.0848397780173 49.68788893945225 L 600.0848397780173 37.68788893945225" stroke-opacity="0.6980392156862745" stroke-linecap="round" stroke-linejoin="round" stroke-miterlimit="10" stroke-width="2.5"/><path fill="none" stroke="rgb(0,0,0)" paint-order="fill stroke markers" d=" M 595.0848397780173 49.68788893945225 L 595.0848397780173 37.68788893945225" stroke-opacity="0.6980392156862745" stroke-linecap="round" stroke-linejoin="round" stroke-miterlimit="10" stroke-width="2.5"/><path fill="rgb(255,85,0)" stroke="none" paint-order="stroke fill markers" d=" M 168.55254805382287 615.9175854947389 C 168.55254805382287 618.6790092438929 166.31397180297685 620.9175854947389 163.55254805382287 620.9175854947389 C 160.7911243046689 620.9175854947389 158.55254805382287 618.6790092438929 158.55254805382287 615.9175854947389 C 158.55254805382287 613.1561617455849 160.7911243046689 610.9175854947389 163.55254805382287 610.9175854947389 C 166.31397180297685 610.9175854947389 168.55254805382287 613.1561617455849 168.55254805382287 615.9175854947389 Z" fill-opacity="1"/><path fill="none" stroke="rgb(0,0,0)" paint-order="fill stroke markers" d=" M 168.55254805382287 615.9175854947389 C 168.55254805382287 618.6790092438929 166.31397180297685 620.9175854947389 163.55254805382287 620.9175854947389 C 160.7911243046689 620.9175854947389 158.55254805382287 618.6790092438929 158.55254805382287 615.9175854947389 C 158.55254805382287 613.1561617455849 160.7911243046689 610.9175854947389 163.55254805382287 610.9175854947389 C 166.31397180297685 610.9175854947389 168.55254805382287 613.1561617455849 168.55254805382287 615.9175854947389 Z" stroke-opacity="1" stroke-linecap="round" stroke-linejoin="round" stroke-miterlimit="10"/><path fill="rgb(255,85,0)" stroke="none" paint-order="stroke fill markers" d=" M 369.47065165773984 343.1382623536549 C 369.47065165773984 345.89968610280886 367.2320754068938 348.1382623536549 364.47065165773984 348.1382623536549 C 361.7092279085859 348.1382623536549 359.47065165773984 345.89968610280886 359.47065165773984 343.1382623536549 C 359.47065165773984 340.37683860450096 361.7092279085859 338.1382623536549 364.47065165773984 338.1382623536549 C 367.2320754068938 338.1382623536549 369.47065165773984 340.37683860450096 369.47065165773984 343.1382623536549 Z" fill-opacity="1"/><path fill="none" stroke="rgb(0,0,0)" paint-order="fill stroke markers" d=" M 369.47065165773984 343.1382623536549 C 369.47065165773984 345.89968610280886 367.2320754068938 348.1382623536549 364.47065165773984 348.1382623536549 C 361.7092279085859 348.1382623536549 359.47065165773984 345.89968610280886 359.47065165773984 343.1382623536549 C 359.47065165773984 340.37683860450096 361.7092279085859 338.1382623536549 364.47065165773984 338.1382623536549 C 367.2320754068938 338.1382623536549 369.47065165773984 340.37683860450096 369.47065165773984 343.1382623536549 Z" stroke-opacity="1" stroke-linecap="round" stroke-linejoin="round" stroke-miterlimit="10"/><path fill="rgb(0,100,0)" stroke="none" paint-order="stroke fill markers" d=" M 737.7572809749661 173.91548974201197 C 737.7572809749661 176.67691349116595 735.5187047241201 178.91548974201197 732.7572809749661 178.91548974201197 C 729.9958572258121 178.91548974201197 727.7572809749661 176.67691349116595 727.7572809749661 173.91548974201197 C 727.7572809749661 171.154065992858 729.9958572258121 168.91548974201197 732.7572809749661 168.91548974201197 C 735.5187047241201 168.91548974201197 737.7572809749661 171.154065992858 737.7572809749661 173.91548974201197 Z" fill-opacity="1"/><path fill="none" stroke="rgb(0,0,0)" paint-order="fill stroke markers" d=" M 737.7572809749661 173.91548974201197 C 737.7572809749661 176.67691349116595 735.5187047241201 178.91548974201197 732.7572809749661 178.91548974201197 C 729.9958572258121 178.91548974201197 727.7572809749661 176.67691349116595 727.7572809749661 173.91548974201197 C 727.7572809749661 171.154065992858 729.9958572258121 168.91548974201197 732.7572809749661 168.91548974201197 C 735.5187047241201 168.91548974201197 737.7572809749661 171.154065992858 737.7572809749661 173.91548974201197 Z" stroke-opacity="1" stroke-linecap="round" stroke-linejoin="round" stroke-miterlimit="10"/><path fill="rgb(0,0,255)" stroke="none" paint-order="stroke fill markers" d=" M 559.9303173286936 441.586143483379 C 559.9303173286936 444.3475672325329 557.6917410778476 446.586143483379 554.9303173286936 446.586143483379 C 552.1688935795396 446.586143483379 549.9303173286936 444.3475672325329 549.9303173286936 441.586143483379 C 549.9303173286936 438.824719734225 552.1688935795396 436.586143483379 554.9303173286936 436.586143483379 C 557.6917410778476 436.586143483379 559.9303173286936 438.824719734225 559.9303173286936 441.586143483379 Z" fill-opacity="1"/><path fill="none" stroke="rgb(0,0,0)" paint-order="fill stroke markers" d=" M 559.9303173286936 441.586143483379 C 559.9303173286936 444.3475672325329 557.6917410778476 446.586143483379 554.9303173286936 446.586143483379 C 552.1688935795396 446.586143483379 549.9303173286936 444.3475672325329 549.9303173286936 441.586143483379 C 549.9303173286936 438.824719734225 552.1688935795396 436.586143483379 554.9303173286936 436.586143483379 C 557.6917410778476 436.586143483379 559.9303173286936 438.824719734225 559.9303173286936 441.586143483379 Z" stroke-opacity="1" stroke-linecap="round" stroke-linejoin="round" stroke-miterlimit="10"/><path fill="rgb(0,100,0)" stroke="none" paint-order="stroke fill markers" d=" M 834.36874539819 610.0513634917048 C 834.36874539819 612.8127872408588 832.130169147344 615.0513634917048 829.36874539819 615.0513634917048 C 826.607321649036 615.0513634917048 824.36874539819 612.8127872408588 824.36874539819 610.0513634917048 C 824.36874539819 607.2899397425508 826.607321649036 605.0513634917048 829.36874539819 605.0513634917048 C 832.130169147344 605.0513634917048 834.36874539819 607.2899397425508 834.36874539819 610.0513634917048 Z" fill-opacity="1"/><path fill="none" stroke="rgb(0,0,0)" paint-order="fill stroke markers" d=" M 834.36874539819 610.0513634917048 C 834.36874539819 612.8127872408588 832.130169147344 615.0513634917048 829.36874539819 615.0513634917048 C 826.607321649036 615.0513634917048 824.36874539819 612.8127872408588 824.36874539819 610.0513634917048 C 824.36874539819 607.2899397425508 826.607321649036 605.0513634917048 829.36874539819 605.0513634917048 C 832.130169147344 605.0513634917048 834.36874539819 607.2899397425508 834.36874539819 610.0513634917048 Z" stroke-opacity="1" stroke-linecap="round" stroke-linejoin="round" stroke-miterlimit="10"/><path fill="rgb(0,0,255)" stroke="none" paint-order="stroke fill markers" d=" M 472 533 C 472 535.761423749154 469.76142374915395 538 467 538 C 464.23857625084605 538 462 535.761423749154 462 533 C 462 530.238576250846 464.23857625084605 528 467 528 C 469.76142374915395 528 472 530.238576250846 472 533 Z" fill-opacity="1"/><path fill="none" stroke="rgb(0,0,0)" paint-order="fill stroke markers" d=" M 472 533 C 472 535.761423749154 469.76142374915395 538 467 538 C 464.23857625084605 538 462 535.761423749154 462 533 C 462 530.238576250846 464.23857625084605 528 467 528 C 469.76142374915395 528 472 530.238576250846 472 533 Z" stroke-opacity="1" stroke-linecap="round" stroke-linejoin="round" stroke-miterlimit="10"/><path fill="rgb(0,100,0)" stroke="none" paint-order="stroke fill markers" d=" M 758.2531273758168 266.1467985458398 C 758.2531273758168 268.9082222949937 756.0145511249708 271.1467985458398 753.2531273758168 271.1467985458398 C 750.4917036266628 271.1467985458398 748.2531273758168 268.9082222949937 748.2531273758168 266.1467985458398 C 748.2531273758168 263.3853747966858 750.4917036266628 261.1467985458398 753.2531273758168 261.1467985458398 C 756.0145511249708 261.1467985458398 758.2531273758168 263.3853747966858 758.2531273758168 266.1467985458398 Z" fill-opacity="1"/><path fill="none" stroke="rgb(0,0,0)" paint-order="fill stroke markers" d=" M 758.2531273758168 266.1467985458398 C 758.2531273758168 268.9082222949937 756.0145511249708 271.1467985458398 753.2531273758168 271.1467985458398 C 750.4917036266628 271.1467985458398 748.2531273758168 268.9082222949937 748.2531273758168 266.1467985458398 C 748.2531273758168 263.3853747966858 750.4917036266628 261.1467985458398 753.2531273758168 261.1467985458398 C 756.0145511249708 261.1467985458398 758.2531273758168 263.3853747966858 758.2531273758168 266.1467985458398 Z" stroke-opacity="1" stroke-linecap="round" stroke-linejoin="round" stroke-miterlimit="10"/><path fill="rgb(255,85,0)" stroke="none" paint-order="stroke fill markers" d=" M 84.95888451058732 83.55793871939755 C 84.95888451058732 86.31936246855152 82.72030825974129 88.55793871939755 79.95888451058732 88.55793871939755 C 77.19746076143336 88.55793871939755 74.95888451058732 86.31936246855152 74.95888451058732 83.55793871939755 C 74.95888451058732 80.79651497024359 77.19746076143336 78.55793871939755 79.95888451058732 78.55793871939755 C 82.72030825974129 78.55793871939755 84.95888451058732 80.79651497024359 84.95888451058732 83.55793871939755 Z" fill-opacity="1"/><path fill="none" stroke="rgb(0,0,0)" paint-order="fill stroke markers" d=" M 84.95888451058732 83.55793871939755 C 84.95888451058732 86.31936246855152 82.72030825974129 88.55793871939755 79.95888451058732 88.55793871939755 C 77.19746076143336 88.55793871939755 74.95888451058732 86.31936246855152 74.95888451058732 83.55793871939755 C 74.95888451058732 80.79651497024359 77.19746076143336 78.55793871939755 79.95888451058732 78.55793871939755 C 82.72030825974129 78.55793871939755 84.95888451058732 80.79651497024359 84.95888451058732 83.55793871939755 Z" stroke-opacity="1" stroke-linecap="round" stroke-linejoin="round" stroke-miterlimit="10"/><path fill="rgb(255,85,0)" stroke="none" paint-order="stroke fill markers" d=" M 123.08932753030882 445.79714740675104 C 123.08932753030882 448.558571155905 120.85075127946278 450.79714740675104 118.08932753030882 450.79714740675104 C 115.32790378115486 450.79714740675104 113.08932753030882 448.558571155905 113.08932753030882 445.79714740675104 C 113.08932753030882 443.0357236575971 115.32790378115486 440.79714740675104 118.08932753030882 440.79714740675104 C 120.85075127946278 440.79714740675104 123.08932753030882 443.0357236575971 123.08932753030882 445.79714740675104 Z" fill-opacity="1"/><path fill="none" stroke="rgb(0,0,0)" paint-order="fill stroke markers" d=" M 123.08932753030882 445.79714740675104 C 123.08932753030882 448.558571155905 120.85075127946278 450.79714740675104 118.08932753030882 450.79714740675104 C 115.32790378115486 450.79714740675104 113.08932753030882 448.558571155905 113.08932753030882 445.79714740675104 C 113.08932753030882 443.0357236575971 115.32790378115486 440.79714740675104 118.08932753030882 440.79714740675104 C 120.85075127946278 440.79714740675104 123.08932753030882 443.0357236575971 123.08932753030882 445.79714740675104 Z" stroke-opacity="1" stroke-linecap="round" stroke-linejoin="round" stroke-miterlimit="10"/><path fill="rgb(0,0,255)" stroke="none" paint-order="stroke fill markers" d=" M 555.3442480073951 87.83293485843933 C 555.3442480073951 90.59435860759329 553.1056717565491 92.83293485843933 550.3442480073951 92.83293485843933 C 547.5828242582411 92.83293485843933 545.3442480073951 90.59435860759329 545.3442480073951 87.83293485843933 C 545.3442480073951 85.07151110928537 547.5828242582411 82.83293485843933 550.3442480073951 82.83293485843933 C 553.1056717565491 82.83293485843933 555.3442480073951 85.07151110928537 555.3442480073951 87.83293485843933 Z" fill-opacity="1"/><path fill="none" stroke="rgb(0,0,0)" paint-order="fill stroke markers" d=" M 555.3442480073951 87.83293485843933 C 555.3442480073951 90.59435860759329 553.1056717565491 92.83293485843933 550.3442480073951 92.83293485843933 C 547.5828242582411 92.83293485843933 545.3442480073951 90.59435860759329 545.3442480073951 87.83293485843933 C 545.3442480073951 85.07151110928537 547.5828242582411 82.83293485843933 550.3442480073951 82.83293485843933 C 553.1056717565491 82.83293485843933 555.3442480073951 85.07151110928537 555.3442480073951 87.83293485843933 Z" stroke-opacity="1" stroke-linecap="round" stroke-linejoin="round" stroke-miterlimit="10"/><path fill="rgb(0,100,0)" stroke="none" paint-order="stroke fill markers" d=" M 878.3654104209454 73.29205021408791 C 878.3654104209454 76.05347396324187 876.1268341700994 78.29205021408791 873.3654104209454 78.29205021408791 C 870.6039866717914 78.29205021408791 868.3654104209454 76.05347396324187 868.3654104209454 73.29205021408791 C 868.3654104209454 70.53062646493395 870.6039866717914 68.29205021408791 873.3654104209454 68.29205021408791 C 876.1268341700994 68.29205021408791 878.3654104209454 70.53062646493395 878.3654104209454 73.29205021408791 Z" fill-opacity="1"/><path fill="none" stroke="rgb(0,0,0)" paint-order="fill stroke markers" d=" M 878.3654104209454 73.29205021408791 C 878.3654104209454 76.05347396324187 876.1268341700994 78.29205021408791 873.3654104209454 78.29205021408791 C 870.6039866717914 78.29205021408791 868.3654104209454 76.05347396324187 868.3654104209454 73.29205021408791 C 868.3654104209454 70.53062646493395 870.6039866717914 68.29205021408791 873.3654104209454 68.29205021408791 C 876.1268341700994 68.29205021408791 878.3654104209454 70.53062646493395 878.3654104209454 73.29205021408791 Z" stroke-opacity="1" stroke-linecap="round" stroke-linejoin="round" stroke-miterlimit="10"/><path fill="rgb(97,97,97)" stroke="none" paint-order="stroke fill markers" d=" M 459.8630644661505 43.68788893945225 C 459.8630644661505 45.89702793877542 458.07220346547365 47.68788893945225 455.8630644661505 47.68788893945225 C 453.65392546682733 47.68788893945225 451.8630644661505 45.89702793877542 451.8630644661505 43.68788893945225 C 451.8630644661505 41.47874994012908 453.65392546682733 39.68788893945225 455.8630644661505 39.68788893945225 C 458.07220346547365 39.68788893945225 459.8630644661505 41.47874994012908 459.8630644661505 43.68788893945225 Z" fill-opacity="1"/><path fill="none" stroke="rgb(0,0,0)" paint-order="fill stroke markers" d=" M 459.8630644661505 43.68788893945225 C 459.8630644661505 45.89702793877542 458.07220346547365 47.68788893945225 455.8630644661505 47.68788893945225 C 453.65392546682733 47.68788893945225 451.8630644661505 45.89702793877542 451.8630644661505 43.68788893945225 C 451.8630644661505 41.47874994012908 453.65392546682733 39.68788893945225 455.8630644661505 39.68788893945225 C 458.07220346547365 39.68788893945225 459.8630644661505 41.47874994012908 459.8630644661505 43.68788893945225 Z" stroke-opacity="1" stroke-linecap="round" stroke-linejoin="round" stroke-miterlimit="10"/><path fill="rgb(97,97,97)" stroke="none" paint-order="stroke fill markers" d=" M 648.8254315486397 43.68788893945225 C 648.8254315486397 45.89702793877542 647.0345705479629 47.68788893945225 644.8254315486397 47.68788893945225 C 642.6162925493165 47.68788893945225 640.8254315486397 45.89702793877542 640.8254315486397 43.68788893945225 C 640.8254315486397 41.47874994012908 642.6162925493165 39.68788893945225 644.8254315486397 39.68788893945225 C 647.0345705479629 39.68788893945225 648.8254315486397 41.47874994012908 648.8254315486397 43.68788893945225 Z" fill-opacity="1"/><path fill="none" stroke="rgb(0,0,0)" paint-order="fill stroke markers" d=" M 648.8254315486397 43.68788893945225 C 648.8254315486397 45.89702793877542 647.0345705479629 47.68788893945225 644.8254315486397 47.68788893945225 C 642.6162925493165 47.68788893945225 640.8254315486397 45.89702793877542 640.8254315486397 43.68788893945225 C 640.8254315486397 41.47874994012908 642.6162925493165 39.68788893945225 644.8254315486397 39.68788893945225 C 647.0345705479629 39.68788893945225 648.8254315486397 41.47874994012908 648.8254315486397 43.68788893945225 Z" stroke-opacity="1" stroke-linecap="round" stroke-linejoin="round" stroke-miterlimit="10"/><path fill="rgb(97,97,97)" stroke="none" paint-order="stroke fill markers" d=" M 554.3442480073951 43.68788893945225 C 554.3442480073951 45.89702793877542 552.5533870067183 47.68788893945225 550.3442480073951 47.68788893945225 C 548.1351090080719 47.68788893945225 546.3442480073951 45.89702793877542 546.3442480073951 43.68788893945225 C 546.3442480073951 41.47874994012908 548.1351090080719 39.68788893945225 550.3442480073951 39.68788893945225 C 552.5533870067183 39.68788893945225 554.3442480073951 41.47874994012908 554.3442480073951 43.68788893945225 Z" fill-opacity="1"/><path fill="none" stroke="rgb(0,0,0)" paint-order="fill stroke markers" d=" M 554.3442480073951 43.68788893945225 C 554.3442480073951 45.89702793877542 552.5533870067183 47.68788893945225 550.3442480073951 47.68788893945225 C 548.1351090080719 47.68788893945225 546.3442480073951 45.89702793877542 546.3442480073951 43.68788893945225 C 546.3442480073951 41.47874994012908 548.1351090080719 39.68788893945225 550.3442480073951 39.68788893945225 C 552.5533870067183 39.68788893945225 554.3442480073951 41.47874994012908 554.3442480073951 43.68788893945225 Z" stroke-opacity="1" stroke-linecap="round" stroke-linejoin="round" stroke-miterlimit="10"/><g transform="scale(35,35)"><g transform="translate(20.485714285714284,6.722571428571428)"><path fill="rgb(0,100,0)" stroke="none" paint-order="stroke fill markers" d=" M 0.516 -0.683 L 0.372 -0.105 Q 0.366 -0.08 0.366 -0.057 Q 0.366 -0.011 0.396 -0.011 Q 0.434 -0.011 0.46 -0.091 Q 0.465 -0.108 0.47200000000000003 -0.135 Q 0.48 -0.152 0.486 -0.153 Q 0.498 -0.153 0.498 -0.14300000000000002 Q 0.498 -0.128 0.48 -0.073 Q 0.47400000000000003 -0.056 0.468 -0.044 Q 0.44 0.011 0.394 0.011 Q 0.338 0.011 0.313 -0.037 Q 0.306 -0.049 0.303 -0.064 Q 0.24 0.011 0.17300000000000001 0.011 Q 0.098 0.011 0.062 -0.057 Q 0.04 -0.097 0.04 -0.149 Q 0.04 -0.257 0.115 -0.34900000000000003 Q 0.185 -0.433 0.267 -0.441 Q 0.274 -0.442 0.281 -0.442 Q 0.342 -0.442 0.373 -0.378 L 0.433 -0.615 L 0.436 -0.635 Q 0.436 -0.646 0.422 -0.649 Q 0.41000000000000003 -0.652 0.386 -0.652 Q 0.364 -0.652 0.362 -0.664 Q 0.362 -0.681 0.376 -0.683 Q 0.47000000000000003 -0.6940000000000001 0.503 -0.6940000000000001 Q 0.516 -0.6940000000000001 0.516 -0.683 M 0.308 -0.11900000000000001 L 0.308 -0.11900000000000001 L 0.358 -0.315 Q 0.361 -0.33 0.361 -0.332 Q 0.361 -0.353 0.343 -0.383 Q 0.321 -0.42 0.28200000000000003 -0.42 Q 0.23 -0.42 0.183 -0.352 Q 0.17400000000000002 -0.339 0.166 -0.324 Q 0.137 -0.266 0.117 -0.159 Q 0.111 -0.125 0.111 -0.105 Q 0.111 -0.037 0.149 -0.017 Q 0.16 -0.011 0.17500000000000002 -0.011 Q 0.231 -0.011 0.28800000000000003 -0.082 Q 0.302 -0.098 0.307 -0.115 L 0.307 -0.116 Q 0.308 -0.11800000000000001 0.308 -0.11900000000000001 Z"/></g></g><g transform="scale(67,67)"><g transform="translate(8.626865671641792,8.877029850746268)"><path fill="rgb(0,0,255)" stroke="none" paint-order="stroke fill markers" d=" M 0.645 -0.6950000000000001 L 0.645 -0.6950000000000001 L 0.591 -0.47600000000000003 Q 0.582 -0.457 0.5760000000000001 -0.456 Q 0.5640000000000001 -0.456 0.5640000000000001 -0.466 L 0.5680000000000001 -0.52 L 0.5680000000000001 -0.522 Q 0.5680000000000001 -0.66 0.452 -0.675 Q 0.439 -0.677 0.424 -0.677 Q 0.34600000000000003 -0.677 0.291 -0.614 Q 0.249 -0.5660000000000001 0.249 -0.511 Q 0.249 -0.451 0.298 -0.425 Q 0.304 -0.422 0.31 -0.42 Q 0.315 -0.419 0.377 -0.402 Q 0.46900000000000003 -0.378 0.487 -0.366 Q 0.495 -0.361 0.504 -0.352 Q 0.553 -0.306 0.553 -0.23500000000000001 Q 0.553 -0.14300000000000002 0.481 -0.064 Q 0.399 0.019 0.299 0.022 Q 0.183 0.022 0.13 -0.05 L 0.081 0.007 Q 0.068 0.022 0.063 0.022 Q 0.052000000000000005 0.022 0.052000000000000005 0.012 L 0.109 -0.213 L 0.109 -0.215 Q 0.111 -0.222 0.112 -0.223 Q 0.116 -0.227 0.122 -0.227 Q 0.134 -0.227 0.134 -0.216 L 0.132 -0.209 Q 0.126 -0.17300000000000001 0.126 -0.155 Q 0.126 -0.042 0.241 -0.016 Q 0.269 -0.009000000000000001 0.301 -0.009000000000000001 Q 0.38 -0.009000000000000001 0.436 -0.077 Q 0.481 -0.13 0.481 -0.193 Q 0.481 -0.271 0.40900000000000003 -0.294 L 0.389 -0.299 L 0.28200000000000003 -0.327 Q 0.216 -0.34600000000000003 0.19 -0.40700000000000003 Q 0.178 -0.436 0.178 -0.46900000000000003 Q 0.178 -0.56 0.254 -0.633 Q 0.33 -0.705 0.425 -0.705 Q 0.527 -0.705 0.5680000000000001 -0.633 L 0.616 -0.6900000000000001 Q 0.629 -0.705 0.634 -0.705 Q 0.645 -0.705 0.645 -0.6950000000000001 Z"/></g></g></g></g></svg>