<svg version="1.1" xmlns="http://www.w3.org/2000/svg" xmlns:xlink="http://www.w3.org/1999/xlink" width="1011" height="692"><defs><clipPath id="vHvPRHchQSlZ"><path fill="none" stroke="none" d=" M 0 0 L 1011 0 L 1011 692 L 0 692 L 0 0 Z"/></clipPath></defs><g transform="scale(1,1)" clip-path="url(#vHvPRHchQSlZ)"><g><rect fill="rgb(255,255,255)" stroke="none" x="0" y="0" width="1011" height="692" fill-opacity="1"/><path fill="none" stroke="rgb(192,192,192)" paint-order="fill stroke markers" d=" M 4.5 0.5 L 4.5 692.5 M 4.5 0.5 L 4.5 692.5 M 70.5 0.5 L 70.5 692.5 M 135.5 0.5 L 135.5 692.5 M 200.5 0.5 L 200.5 692.5 M 265.5 0.5 L 265.5 692.5 M 331.5 0.5 L 331.5 692.5 M 396.5 0.5 L 396.5 692.5 M 461.5 0.5 L 461.5 692.5 M 526.5 0.5 L 526.5 692.5 M 591.5 0.5 L 591.5 692.5 M 657.5 0.5 L 657.5 692.5 M 722.5 0.5 L 722.5 692.5 M 787.5 0.5 L 787.5 692.5 M 852.5 0.5 L 852.5 692.5 M 918.5 0.5 L 918.5 692.5 M 983.5 0.5 L 983.5 692.5" stroke-opacity="1" stroke-linecap="round" stroke-linejoin="round" stroke-miterlimit="10"/><path fill="none" stroke="rgb(192,192,192)" paint-order="fill stroke markers" d="" stroke-opacity="0.23529411764705882" stroke-linecap="round" stroke-linejoin="round" stroke-miterlimit="10"/><path fill="none" stroke="rgb(192,192,192)" paint-order="fill stroke markers" d=" M 0.5 40.5 L 1011.5 40.5 M 0.5 40.5 L 1011.5 40.5 M 0.5 105.5 L 1011.5 105.5 M 0.5 170.5 L 1011.5 170.5 M 0.5 235.5 L 1011.5 235.5 M 0.5 300.5 L 1011.5 300.5 M 0.5 366.5 L 1011.5 366.5 M 0.5 431.5 L 1011.5 431.5 M 0.5 496.5 L 1011.5 496.5 M 0.5 561.5 L 1011.5 561.5 M 0.5 627.5 L 1011.5 627.5" stroke-opacity="1" stroke-linecap="round" stroke-linejoin="round" stroke-miterlimit="10"/><path fill="none" stroke="rgb(192,192,192)" paint-order="fill stroke markers" d="" stroke-opacity="0.23529411764705882" stroke-linecap="round" stroke-linejoin="round" stroke-miterlimit="10"/><path fill="none" stroke="rgb(0,0,0)" paint-order="fill stroke markers" d=" M 588.8254595441647 697 L 588.8254595441647 -5" stroke-opacity="0.6980392156862745" stroke-linecap="round" stroke-linejoin="round" stroke-miterlimit="10" stroke-width="2.5"/><path fill="none" stroke="rgb(255,85,0)" paint-order="fill stroke markers" d=" M 67.17343533562297 469.79190564528585 L 122.03916361224901 675.0959211320154" stroke-opacity="0.6980392156862745" stroke-linecap="round" stroke-linejoin="round" stroke-miterlimit="10" stroke-width="2.5"/><path fill="none" stroke="rgb(0,100,0)" paint-order="fill stroke markers" d=" M 808.9643715189031 141.68085277526262 L 833.699080729548 252.98704422316382" stroke-opacity="0.6980392156862745" stroke-linecap="round" stroke-linejoin="round" stroke-miterlimit="10" stroke-width="2.5"/><path fill="rgb(255,85,0)" stroke="none" paint-order="stroke fill markers" d=" M 127.03916361224901 675.0959211320154 C 127.03916361224901 677.8573448811694 124.80058736140298 680.0959211320154 122.03916361224901 680.0959211320154 C 119.27773986309505 680.0959211320154 117.03916361224901 677.8573448811694 117.03916361224901 675.0959211320154 C 117.03916361224901 672.3344973828614 119.27773986309505 670.0959211320154 122.03916361224901 670.0959211320154 C 124.80058736140298 670.0959211320154 127.03916361224901 672.3344973828614 127.03916361224901 675.0959211320154 Z" fill-opacity="1"/><path fill="none" stroke="rgb(0,0,0)" paint-order="fill stroke markers" d=" M 127.03916361224901 675.0959211320154 C 127.03916361224901 677.8573448811694 124.80058736140298 680.0959211320154 122.03916361224901 680.0959211320154 C 119.27773986309505 680.0959211320154 117.03916361224901 677.8573448811694 117.03916361224901 675.0959211320154 C 117.03916361224901 672.3344973828614 119.27773986309505 670.0959211320154 122.03916361224901 670.0959211320154 C 124.80058736140298 670.0959211320154 127.03916361224901 672.3344973828614 127.03916361224901 675.0959211320154 Z" stroke-opacity="1" stroke-linecap="round" stroke-linejoin="round" stroke-miterlimit="10"/><path fill="rgb(255,85,0)" stroke="none" paint-order="stroke fill markers" d=" M 369.5102853508868 345.90155147225937 C 369.5102853508868 348.6629752214133 367.27170910004077 350.90155147225937 364.5102853508868 350.90155147225937 C 361.74886160173287 350.90155147225937 359.5102853508868 348.6629752214133 359.5102853508868 345.90155147225937 C 359.5102853508868 343.1401277231054 361.74886160173287 340.90155147225937 364.5102853508868 340.90155147225937 C 367.27170910004077 340.90155147225937 369.5102853508868 343.1401277231054 369.5102853508868 345.90155147225937 Z" fill-opacity="1"/><path fill="none" stroke="rgb(0,0,0)" paint-order="fill stroke markers" d=" M 369.5102853508868 345.90155147225937 C 369.5102853508868 348.6629752214133 367.27170910004077 350.90155147225937 364.5102853508868 350.90155147225937 C 361.74886160173287 350.90155147225937 359.5102853508868 348.6629752214133 359.5102853508868 345.90155147225937 C 359.5102853508868 343.1401277231054 361.74886160173287 340.90155147225937 364.5102853508868 340.90155147225937 C 367.27170910004077 340.90155147225937 369.5102853508868 343.1401277231054 369.5102853508868 345.90155147225937 Z" stroke-opacity="1" stroke-linecap="round" stroke-linejoin="round" stroke-miterlimit="10"/><path fill="rgb(0,100,0)" stroke="none" paint-order="stroke fill markers" d=" M 813.9643715189031 141.68085277526262 C 813.9643715189031 144.4422765244166 811.7257952680571 146.68085277526262 808.9643715189031 146.68085277526262 C 806.2029477697491 146.68085277526262 803.9643715189031 144.4422765244166 803.9643715189031 141.68085277526262 C 803.9643715189031 138.91942902610865 806.2029477697491 136.68085277526262 808.9643715189031 136.68085277526262 C 811.7257952680571 136.68085277526262 813.9643715189031 138.91942902610865 813.9643715189031 141.68085277526262 Z" fill-opacity="1"/><path fill="none" stroke="rgb(0,0,0)" paint-order="fill stroke markers" d=" M 813.9643715189031 141.68085277526262 C 813.9643715189031 144.4422765244166 811.7257952680571 146.68085277526262 808.9643715189031 146.68085277526262 C 806.2029477697491 146.68085277526262 803.9643715189031 144.4422765244166 803.9643715189031 141.68085277526262 C 803.9643715189031 138.91942902610865 806.2029477697491 136.68085277526262 808.9643715189031 136.68085277526262 C 811.7257952680571 136.68085277526262 813.9643715189031 138.91942902610865 813.9643715189031 141.68085277526262 Z" stroke-opacity="1" stroke-linecap="round" stroke-linejoin="round" stroke-miterlimit="10"/><path fill="rgb(0,100,0)" stroke="none" paint-order="stroke fill markers" d=" M 599.360000000004 464.70999999999526 C 599.360000000004 467.4714237491492 597.121423749158 469.70999999999526 594.360000000004 469.70999999999526 C 591.59857625085 469.70999999999526 589.360000000004 467.4714237491492 589.360000000004 464.70999999999526 C 589.360000000004 461.9485762508413 591.59857625085 459.70999999999526 594.360000000004 459.70999999999526 C 597.121423749158 459.70999999999526 599.360000000004 461.9485762508413 599.360000000004 464.70999999999526 Z" fill-opacity="1"/><path fill="none" stroke="rgb(0,0,0)" paint-order="fill stroke markers" d=" M 599.360000000004 464.70999999999526 C 599.360000000004 467.4714237491492 597.121423749158 469.70999999999526 594.360000000004 469.70999999999526 C 591.59857625085 469.70999999999526 589.360000000004 467.4714237491492 589.360000000004 464.70999999999526 C 589.360000000004 461.9485762508413 591.59857625085 459.70999999999526 594.360000000004 459.70999999999526 C 597.121423749158 459.70999999999526 599.360000000004 461.9485762508413 599.360000000004 464.70999999999526 Z" stroke-opacity="1" stroke-linecap="round" stroke-linejoin="round" stroke-miterlimit="10"/><path fill="rgb(0,100,0)" stroke="none" paint-order="stroke fill markers" d=" M 930.5566035344502 668.0164723221283 C 930.5566035344502 670.7778960712823 928.3180272836042 673.0164723221283 925.5566035344502 673.0164723221283 C 922.7951797852962 673.0164723221283 920.5566035344502 670.7778960712823 920.5566035344502 668.0164723221283 C 920.5566035344502 665.2550485729743 922.7951797852962 663.0164723221283 925.5566035344502 663.0164723221283 C 928.3180272836042 663.0164723221283 930.5566035344502 665.2550485729743 930.5566035344502 668.0164723221283 Z" fill-opacity="1"/><path fill="none" stroke="rgb(0,0,0)" paint-order="fill stroke markers" d=" M 930.5566035344502 668.0164723221283 C 930.5566035344502 670.7778960712823 928.3180272836042 673.0164723221283 925.5566035344502 673.0164723221283 C 922.7951797852962 673.0164723221283 920.5566035344502 670.7778960712823 920.5566035344502 668.0164723221283 C 920.5566035344502 665.2550485729743 922.7951797852962 663.0164723221283 925.5566035344502 663.0164723221283 C 928.3180272836042 663.0164723221283 930.5566035344502 665.2550485729743 930.5566035344502 668.0164723221283 Z" stroke-opacity="1" stroke-linecap="round" stroke-linejoin="round" stroke-miterlimit="10"/><path fill="rgb(255,85,0)" stroke="none" paint-order="stroke fill markers" d=" M 459.7732576769491 567.1343267812352 C 459.7732576769491 569.8957505303893 457.534681426103 572.1343267812352 454.7732576769491 572.1343267812352 C 452.0118339277951 572.1343267812352 449.7732576769491 569.8957505303893 449.7732576769491 567.1343267812352 C 449.7732576769491 564.3729030320812 452.0118339277951 562.1343267812352 454.7732576769491 562.1343267812352 C 457.534681426103 562.1343267812352 459.7732576769491 564.3729030320812 459.7732576769491 567.1343267812352 Z" fill-opacity="1"/><path fill="none" stroke="rgb(0,0,0)" paint-order="fill stroke markers" d=" M 459.7732576769491 567.1343267812352 C 459.7732576769491 569.8957505303893 457.534681426103 572.1343267812352 454.7732576769491 572.1343267812352 C 452.0118339277951 572.1343267812352 449.7732576769491 569.8957505303893 449.7732576769491 567.1343267812352 C 449.7732576769491 564.3729030320812 452.0118339277951 562.1343267812352 454.7732576769491 562.1343267812352 C 457.534681426103 562.1343267812352 459.7732576769491 564.3729030320812 459.7732576769491 567.1343267812352 Z" stroke-opacity="1" stroke-linecap="round" stroke-linejoin="round" stroke-miterlimit="10"/><path fill="rgb(0,100,0)" stroke="none" paint-order="stroke fill markers" d=" M 838.699080729548 252.98704422316382 C 838.699080729548 255.7484679723178 836.460504478702 257.9870442231638 833.699080729548 257.9870442231638 C 830.937656980394 257.9870442231638 828.699080729548 255.7484679723178 828.699080729548 252.98704422316382 C 828.699080729548 250.22562047400984 830.937656980394 247.98704422316382 833.699080729548 247.98704422316382 C 836.460504478702 247.98704422316382 838.699080729548 250.22562047400984 838.699080729548 252.98704422316382 Z" fill-opacity="1"/><path fill="none" stroke="rgb(0,0,0)" paint-order="fill stroke markers" d=" M 838.699080729548 252.98704422316382 C 838.699080729548 255.7484679723178 836.460504478702 257.9870442231638 833.699080729548 257.9870442231638 C 830.937656980394 257.9870442231638 828.699080729548 255.7484679723178 828.699080729548 252.98704422316382 C 828.699080729548 250.22562047400984 830.937656980394 247.98704422316382 833.699080729548 247.98704422316382 C 836.460504478702 247.98704422316382 838.699080729548 250.22562047400984 838.699080729548 252.98704422316382 Z" stroke-opacity="1" stroke-linecap="round" stroke-linejoin="round" stroke-miterlimit="10"/><path fill="rgb(255,85,0)" stroke="none" paint-order="stroke fill markers" d=" M 26.157018071355935 32.63594163474954 C 26.157018071355935 35.397365383903505 23.9184418205099 37.63594163474954 21.157018071355935 37.63594163474954 C 18.39559432220197 37.63594163474954 16.157018071355935 35.397365383903505 16.157018071355935 32.63594163474954 C 16.157018071355935 29.874517885595576 18.39559432220197 27.635941634749543 21.157018071355935 27.635941634749543 C 23.9184418205099 27.635941634749543 26.157018071355935 29.874517885595576 26.157018071355935 32.63594163474954 Z" fill-opacity="1"/><path fill="none" stroke="rgb(0,0,0)" paint-order="fill stroke markers" d=" M 26.157018071355935 32.63594163474954 C 26.157018071355935 35.397365383903505 23.9184418205099 37.63594163474954 21.157018071355935 37.63594163474954 C 18.39559432220197 37.63594163474954 16.157018071355935 35.397365383903505 16.157018071355935 32.63594163474954 C 16.157018071355935 29.874517885595576 18.39559432220197 27.635941634749543 21.157018071355935 27.635941634749543 C 23.9184418205099 27.635941634749543 26.157018071355935 29.874517885595576 26.157018071355935 32.63594163474954 Z" stroke-opacity="1" stroke-linecap="round" stroke-linejoin="round" stroke-miterlimit="10"/><path fill="rgb(255,85,0)" stroke="none" paint-order="stroke fill markers" d=" M 72.17343533562297 469.79190564528585 C 72.17343533562297 472.5533293944398 69.93485908477693 474.79190564528585 67.17343533562297 474.79190564528585 C 64.412011586469 474.79190564528585 62.17343533562297 472.5533293944398 62.17343533562297 469.79190564528585 C 62.17343533562297 467.0304818961319 64.412011586469 464.79190564528585 67.17343533562297 464.79190564528585 C 69.93485908477693 464.79190564528585 72.17343533562297 467.0304818961319 72.17343533562297 469.79190564528585 Z" fill-opacity="1"/><path fill="none" stroke="rgb(0,0,0)" paint-order="fill stroke markers" d=" M 72.17343533562297 469.79190564528585 C 72.17343533562297 472.5533293944398 69.93485908477693 474.79190564528585 67.17343533562297 474.79190564528585 C 64.412011586469 474.79190564528585 62.17343533562297 472.5533293944398 62.17343533562297 469.79190564528585 C 62.17343533562297 467.0304818961319 64.412011586469 464.79190564528585 67.17343533562297 464.79190564528585 C 69.93485908477693 464.79190564528585 72.17343533562297 467.0304818961319 72.17343533562297 469.79190564528585 Z" stroke-opacity="1" stroke-linecap="round" stroke-linejoin="round" stroke-miterlimit="10"/><path fill="rgb(255,85,0)" stroke="none" paint-order="stroke fill markers" d=" M 593.8254595441647 37.79507409055486 C 593.8254595441647 40.556497839708825 591.5868832933187 42.79507409055486 588.8254595441647 42.79507409055486 C 586.0640357950107 42.79507409055486 583.8254595441647 40.556497839708825 583.8254595441647 37.79507409055486 C 583.8254595441647 35.03365034140089 586.0640357950107 32.79507409055486 588.8254595441647 32.79507409055486 C 591.5868832933187 32.79507409055486 593.8254595441647 35.03365034140089 593.8254595441647 37.79507409055486 Z" fill-opacity="1"/><path fill="none" stroke="rgb(0,0,0)" paint-order="fill stroke markers" d=" M 593.8254595441647 37.79507409055486 C 593.8254595441647 40.556497839708825 591.5868832933187 42.79507409055486 588.8254595441647 42.79507409055486 C 586.0640357950107 42.79507409055486 583.8254595441647 40.556497839708825 583.8254595441647 37.79507409055486 C 583.8254595441647 35.03365034140089 586.0640357950107 32.79507409055486 588.8254595441647 32.79507409055486 C 591.5868832933187 32.79507409055486 593.8254595441647 35.03365034140089 593.8254595441647 37.79507409055486 Z" stroke-opacity="1" stroke-linecap="round" stroke-linejoin="round" stroke-miterlimit="10"/><path fill="rgb(0,100,0)" stroke="none" paint-order="stroke fill markers" d=" M 983.6524696086044 20.24690621744685 C 983.6524696086044 23.008329966600815 981.4138933577584 25.24690621744685 978.6524696086044 25.24690621744685 C 975.8910458594504 25.24690621744685 973.6524696086044 23.008329966600815 973.6524696086044 20.24690621744685 C 973.6524696086044 17.485482468292883 975.8910458594504 15.246906217446849 978.6524696086044 15.246906217446849 C 981.4138933577584 15.246906217446849 983.6524696086044 17.485482468292883 983.6524696086044 20.24690621744685 Z" fill-opacity="1"/><path fill="none" stroke="rgb(0,0,0)" paint-order="fill stroke markers" d=" M 983.6524696086044 20.24690621744685 C 983.6524696086044 23.008329966600815 981.4138933577584 25.24690621744685 978.6524696086044 25.24690621744685 C 975.8910458594504 25.24690621744685 973.6524696086044 23.008329966600815 973.6524696086044 20.24690621744685 C 973.6524696086044 17.485482468292883 975.8910458594504 15.246906217446849 978.6524696086044 15.246906217446849 C 981.4138933577584 15.246906217446849 983.6524696086044 17.485482468292883 983.6524696086044 20.24690621744685 Z" stroke-opacity="1" stroke-linecap="round" stroke-linejoin="round" stroke-miterlimit="10"/><g transform="scale(67,67)"><g transform="translate(1.2537313432835822,3.7427014925373134)"><path fill="rgb(255,85,0)" stroke="none" paint-order="stroke fill markers" d=" M 0.303 -0.316 L 0.303 -0.316 L 0.241 -0.066 L 0.23800000000000002 -0.049 Q 0.23800000000000002 -0.032 0.28400000000000003 -0.031 L 0.28400000000000003 -0.031 L 0.28400000000000003 -0.031 L 0.303 -0.031 Q 0.329 -0.031 0.331 -0.02 Q 0.331 0 0.311 0 L 0.247 -0.002 L 0.246 -0.002 L 0.184 -0.003 L 0.182 -0.003 L 0.056 0 L 0.055 0 Q 0.04 0 0.04 -0.012 Q 0.04 -0.029 0.056 -0.031 L 0.068 -0.031 Q 0.133 -0.031 0.146 -0.045 Q 0.152 -0.052000000000000005 0.158 -0.073 Q 0.158 -0.074 0.159 -0.078 L 0.293 -0.615 Q 0.297 -0.631 0.297 -0.634 Q 0.297 -0.646 0.281 -0.649 L 0.28 -0.649 L 0.28 -0.649 Q 0.278 -0.65 0.275 -0.65 Q 0.251 -0.652 0.232 -0.652 Q 0.20600000000000002 -0.652 0.20400000000000001 -0.66 Q 0.203 -0.662 0.203 -0.664 Q 0.203 -0.681 0.22 -0.683 L 0.22 -0.683 L 0.233 -0.683 L 0.557 -0.683 Q 0.678 -0.683 0.73 -0.609 Q 0.754 -0.5740000000000001 0.754 -0.532 Q 0.754 -0.451 0.671 -0.385 Q 0.583 -0.316 0.47300000000000003 -0.316 L 0.303 -0.316 M 0.375 -0.614 L 0.307 -0.342 L 0.448 -0.342 Q 0.543 -0.342 0.602 -0.395 Q 0.643 -0.433 0.658 -0.522 L 0.658 -0.523 Q 0.661 -0.542 0.661 -0.556 Q 0.661 -0.652 0.525 -0.652 L 0.429 -0.652 Q 0.393 -0.652 0.385 -0.642 L 0.385 -0.642 L 0.385 -0.641 L 0.384 -0.641 L 0.384 -0.64 Q 0.38 -0.634 0.375 -0.614 Z"/></g><g transform="translate(1.895731343283582,3.8927014925373133) scale(0.7,0.7)"><path fill="rgb(255,85,0)" stroke="none" paint-order="stroke fill markers" d=" M 0.258 -0.683 L 0.114 -0.105 Q 0.108 -0.082 0.108 -0.057 Q 0.108 -0.011 0.138 -0.011 Q 0.177 -0.011 0.203 -0.097 Q 0.20800000000000002 -0.112 0.214 -0.135 Q 0.222 -0.152 0.228 -0.153 Q 0.24 -0.153 0.24 -0.14300000000000002 Q 0.24 -0.128 0.222 -0.074 Q 0.216 -0.057 0.21 -0.045 Q 0.184 0.011 0.135 0.011 Q 0.083 0.011 0.057 -0.031 Q 0.044 -0.053 0.044 -0.081 Q 0.044 -0.097 0.049 -0.115 L 0.17500000000000002 -0.615 L 0.178 -0.635 Q 0.178 -0.646 0.164 -0.649 Q 0.152 -0.652 0.129 -0.652 Q 0.106 -0.652 0.10400000000000001 -0.663 Q 0.10400000000000001 -0.681 0.123 -0.684 L 0.245 -0.6940000000000001 Q 0.258 -0.6940000000000001 0.258 -0.683 Z"/></g></g><g transform="scale(67,67)"><g transform="translate(12.014925373134329,6.787477611940298)"><path fill="rgb(0,100,0)" stroke="none" paint-order="stroke fill markers" d=" M 0.303 -0.316 L 0.303 -0.316 L 0.241 -0.066 L 0.23800000000000002 -0.049 Q 0.23800000000000002 -0.032 0.28400000000000003 -0.031 L 0.28400000000000003 -0.031 L 0.28400000000000003 -0.031 L 0.303 -0.031 Q 0.329 -0.031 0.331 -0.02 Q 0.331 0 0.311 0 L 0.247 -0.002 L 0.246 -0.002 L 0.184 -0.003 L 0.182 -0.003 L 0.056 0 L 0.055 0 Q 0.04 0 0.04 -0.012 Q 0.04 -0.029 0.056 -0.031 L 0.068 -0.031 Q 0.133 -0.031 0.146 -0.045 Q 0.152 -0.052000000000000005 0.158 -0.073 Q 0.158 -0.074 0.159 -0.078 L 0.293 -0.615 Q 0.297 -0.631 0.297 -0.634 Q 0.297 -0.646 0.281 -0.649 L 0.28 -0.649 L 0.28 -0.649 Q 0.278 -0.65 0.275 -0.65 Q 0.251 -0.652 0.232 -0.652 Q 0.20600000000000002 -0.652 0.20400000000000001 -0.66 Q 0.203 -0.662 0.203 -0.664 Q 0.203 -0.681 0.22 -0.683 L 0.22 -0.683 L 0.233 -0.683 L 0.557 -0.683 Q 0.678 -0.683 0.73 -0.609 Q 0.754 -0.5740000000000001 0.754 -0.532 Q 0.754 -0.451 0.671 -0.385 Q 0.583 -0.316 0.47300000000000003 -0.316 L 0.303 -0.316 M 0.375 -0.614 L 0.307 -0.342 L 0.448 -0.342 Q 0.543 -0.342 0.602 -0.395 Q 0.643 -0.433 0.658 -0.522 L 0.658 -0.523 Q 0.661 -0.542 0.661 -0.556 Q 0.661 -0.652 0.525 -0.652 L 0.429 -0.652 Q 0.393 -0.652 0.385 -0.642 L 0.385 -0.642 L 0.385 -0.641 L 0.384 -0.641 L 0.384 -0.64 Q 0.38 -0.634 0.375 -0.614 Z"/></g><g transform="translate(12.656925373134328,6.937477611940299) scale(0.7,0.7)"><path fill="rgb(0,100,0)" stroke="none" paint-order="stroke fill markers" d=" M 0.088 -0.059000000000000004 L 0.088 -0.059000000000000004 L 0.146 -0.29 Q 0.162 -0.354 0.162 -0.374 Q 0.162 -0.42 0.131 -0.42 Q 0.09 -0.42 0.064 -0.325 Q 0.061 -0.314 0.058 -0.301 Q 0.047 -0.279 0.041 -0.278 Q 0.029 -0.278 0.029 -0.28800000000000003 Q 0.029 -0.304 0.047 -0.355 Q 0.054 -0.373 0.06 -0.385 Q 0.084 -0.434 0.12 -0.441 Q 0.127 -0.442 0.134 -0.442 Q 0.19 -0.442 0.215 -0.394 Q 0.221 -0.383 0.224 -0.37 Q 0.225 -0.368 0.225 -0.365 Q 0.28300000000000003 -0.437 0.353 -0.442 Q 0.40900000000000003 -0.442 0.429 -0.403 Q 0.436 -0.391 0.436 -0.377 Q 0.436 -0.338 0.403 -0.323 Q 0.392 -0.318 0.381 -0.318 Q 0.35000000000000003 -0.318 0.34400000000000003 -0.34500000000000003 Q 0.343 -0.34900000000000003 0.343 -0.353 Q 0.343 -0.386 0.377 -0.402 L 0.378 -0.403 Q 0.386 -0.406 0.395 -0.40800000000000003 L 0.375 -0.417 Q 0.362 -0.419 0.353 -0.42 Q 0.311 -0.42 0.273 -0.387 Q 0.242 -0.359 0.22 -0.313 Q 0.218 -0.308 0.217 -0.305 L 0.185 -0.17500000000000002 L 0.145 -0.017 Q 0.136 0.009000000000000001 0.108 0.011 Q 0.083 0.006 0.079 -0.016 Q 0.079 -0.014 0.088 -0.059000000000000004 Z"/></g></g><g transform="scale(35,35)"><g transform="translate(2.942857142857143,16.236857142857144)"><path fill="rgb(255,85,0)" stroke="none" paint-order="stroke fill markers" d=" M 0.516 -0.683 L 0.372 -0.105 Q 0.366 -0.08 0.366 -0.057 Q 0.366 -0.011 0.396 -0.011 Q 0.434 -0.011 0.46 -0.091 Q 0.465 -0.108 0.47200000000000003 -0.135 Q 0.48 -0.152 0.486 -0.153 Q 0.498 -0.153 0.498 -0.14300000000000002 Q 0.498 -0.128 0.48 -0.073 Q 0.47400000000000003 -0.056 0.468 -0.044 Q 0.44 0.011 0.394 0.011 Q 0.338 0.011 0.313 -0.037 Q 0.306 -0.049 0.303 -0.064 Q 0.24 0.011 0.17300000000000001 0.011 Q 0.098 0.011 0.062 -0.057 Q 0.04 -0.097 0.04 -0.149 Q 0.04 -0.257 0.115 -0.34900000000000003 Q 0.185 -0.433 0.267 -0.441 Q 0.274 -0.442 0.281 -0.442 Q 0.342 -0.442 0.373 -0.378 L 0.433 -0.615 L 0.436 -0.635 Q 0.436 -0.646 0.422 -0.649 Q 0.41000000000000003 -0.652 0.386 -0.652 Q 0.364 -0.652 0.362 -0.664 Q 0.362 -0.681 0.376 -0.683 Q 0.47000000000000003 -0.6940000000000001 0.503 -0.6940000000000001 Q 0.516 -0.6940000000000001 0.516 -0.683 M 0.308 -0.11900000000000001 L 0.308 -0.11900000000000001 L 0.358 -0.315 Q 0.361 -0.33 0.361 -0.332 Q 0.361 -0.353 0.343 -0.383 Q 0.321 -0.42 0.28200000000000003 -0.42 Q 0.23 -0.42 0.183 -0.352 Q 0.17400000000000002 -0.339 0.166 -0.324 Q 0.137 -0.266 0.117 -0.159 Q 0.111 -0.125 0.111 -0.105 Q 0.111 -0.037 0.149 -0.017 Q 0.16 -0.011 0.17500000000000002 -0.011 Q 0.231 -0.011 0.28800000000000003 -0.082 Q 0.302 -0.098 0.307 -0.115 L 0.307 -0.116 Q 0.308 -0.11800000000000001 0.308 -0.11900000000000001 Z"/></g><g transform="translate(3.462857142857143,16.386857142857142) scale(0.7,0.7)"><path fill="rgb(255,85,0)" stroke="none" paint-order="stroke fill markers" d=" M 0.258 -0.683 L 0.114 -0.105 Q 0.108 -0.082 0.108 -0.057 Q 0.108 -0.011 0.138 -0.011 Q 0.177 -0.011 0.203 -0.097 Q 0.20800000000000002 -0.112 0.214 -0.135 Q 0.222 -0.152 0.228 -0.153 Q 0.24 -0.153 0.24 -0.14300000000000002 Q 0.24 -0.128 0.222 -0.074 Q 0.216 -0.057 0.21 -0.045 Q 0.184 0.011 0.135 0.011 Q 0.083 0.011 0.057 -0.031 Q 0.044 -0.053 0.044 -0.081 Q 0.044 -0.097 0.049 -0.115 L 0.17500000000000002 -0.615 L 0.178 -0.635 Q 0.178 -0.646 0.164 -0.649 Q 0.152 -0.652 0.129 -0.652 Q 0.106 -0.652 0.10400000000000001 -0.663 Q 0.10400000000000001 -0.681 0.123 -0.684 L 0.245 -0.6940000000000001 Q 0.258 -0.6940000000000001 0.258 -0.683 Z"/></g></g><g transform="scale(35,35)"><g transform="translate(22.514285714285716,5.865428571428572)"><path fill="rgb(0,100,0)" stroke="none" paint-order="stroke fill markers" d=" M 0.516 -0.683 L 0.372 -0.105 Q 0.366 -0.08 0.366 -0.057 Q 0.366 -0.011 0.396 -0.011 Q 0.434 -0.011 0.46 -0.091 Q 0.465 -0.108 0.47200000000000003 -0.135 Q 0.48 -0.152 0.486 -0.153 Q 0.498 -0.153 0.498 -0.14300000000000002 Q 0.498 -0.128 0.48 -0.073 Q 0.47400000000000003 -0.056 0.468 -0.044 Q 0.44 0.011 0.394 0.011 Q 0.338 0.011 0.313 -0.037 Q 0.306 -0.049 0.303 -0.064 Q 0.24 0.011 0.17300000000000001 0.011 Q 0.098 0.011 0.062 -0.057 Q 0.04 -0.097 0.04 -0.149 Q 0.04 -0.257 0.115 -0.34900000000000003 Q 0.185 -0.433 0.267 -0.441 Q 0.274 -0.442 0.281 -0.442 Q 0.342 -0.442 0.373 -0.378 L 0.433 -0.615 L 0.436 -0.635 Q 0.436 -0.646 0.422 -0.649 Q 0.41000000000000003 -0.652 0.386 -0.652 Q 0.364 -0.652 0.362 -0.664 Q 0.362 -0.681 0.376 -0.683 Q 0.47000000000000003 -0.6940000000000001 0.503 -0.6940000000000001 Q 0.516 -0.6940000000000001 0.516 -0.683 M 0.308 -0.11900000000000001 L 0.308 -0.11900000000000001 L 0.358 -0.315 Q 0.361 -0.33 0.361 -0.332 Q 0.361 -0.353 0.343 -0.383 Q 0.321 -0.42 0.28200000000000003 -0.42 Q 0.23 -0.42 0.183 -0.352 Q 0.17400000000000002 -0.339 0.166 -0.324 Q 0.137 -0.266 0.117 -0.159 Q 0.111 -0.125 0.111 -0.105 Q 0.111 -0.037 0.149 -0.017 Q 0.16 -0.011 0.17500000000000002 -0.011 Q 0.231 -0.011 0.28800000000000003 -0.082 Q 0.302 -0.098 0.307 -0.115 L 0.307 -0.116 Q 0.308 -0.11800000000000001 0.308 -0.11900000000000001 Z"/></g><g transform="translate(23.034285714285716,6.015428571428572) scale(0.7,0.7)"><path fill="rgb(0,100,0)" stroke="none" paint-order="stroke fill markers" d=" M 0.088 -0.059000000000000004 L 0.088 -0.059000000000000004 L 0.146 -0.29 Q 0.162 -0.354 0.162 -0.374 Q 0.162 -0.42 0.131 -0.42 Q 0.09 -0.42 0.064 -0.325 Q 0.061 -0.314 0.058 -0.301 Q 0.047 -0.279 0.041 -0.278 Q 0.029 -0.278 0.029 -0.28800000000000003 Q 0.029 -0.304 0.047 -0.355 Q 0.054 -0.373 0.06 -0.385 Q 0.084 -0.434 0.12 -0.441 Q 0.127 -0.442 0.134 -0.442 Q 0.19 -0.442 0.215 -0.394 Q 0.221 -0.383 0.224 -0.37 Q 0.225 -0.368 0.225 -0.365 Q 0.28300000000000003 -0.437 0.353 -0.442 Q 0.40900000000000003 -0.442 0.429 -0.403 Q 0.436 -0.391 0.436 -0.377 Q 0.436 -0.338 0.403 -0.323 Q 0.392 -0.318 0.381 -0.318 Q 0.35000000000000003 -0.318 0.34400000000000003 -0.34500000000000003 Q 0.343 -0.34900000000000003 0.343 -0.353 Q 0.343 -0.386 0.377 -0.402 L 0.378 -0.403 Q 0.386 -0.406 0.395 -0.40800000000000003 L 0.375 -0.417 Q 0.362 -0.419 0.353 -0.42 Q 0.311 -0.42 0.273 -0.387 Q 0.242 -0.359 0.22 -0.313 Q 0.218 -0.308 0.217 -0.305 L 0.185 -0.17500000000000002 L 0.145 -0.017 Q 0.136 0.009000000000000001 0.108 0.011 Q 0.083 0.006 0.079 -0.016 Q 0.079 -0.014 0.088 -0.059000000000000004 Z"/></g></g></g></g></svg>