<svg version="1.1" xmlns="http://www.w3.org/2000/svg" xmlns:xlink="http://www.w3.org/1999/xlink" width="1052" height="736"><defs><clipPath id="eVCRHrCzXWqD"><path fill="none" stroke="none" d=" M 0 0 L 1052 0 L 1052 736 L 0 736 L 0 0 Z"/></clipPath></defs><g transform="scale(1,1)" clip-path="url(#eVCRHrCzXWqD)"><g><rect fill="rgb(255,255,255)" stroke="none" x="0" y="0" width="1052" height="736" fill-opacity="1"/><path fill="none" stroke="rgb(192,192,192)" paint-order="fill stroke markers" d=" M 136.5 0.5 L 136.5 736.5 M 212.5 0.5 L 212.5 736.5 M 287.5 0.5 L 287.5 736.5 M 363.5 0.5 L 363.5 736.5 M 439.5 0.5 L 439.5 736.5 M 515.5 0.5 L 515.5 736.5 M 591.5 0.5 L 591.5 736.5 M 667.5 0.5 L 667.5 736.5 M 742.5 0.5 L 742.5 736.5 M 818.5 0.5 L 818.5 736.5 M 894.5 0.5 L 894.5 736.5 M 970.5 0.5 L 970.5 736.5 M 1046.5 0.5 L 1046.5 736.5" stroke-opacity="1" stroke-linecap="round" stroke-linejoin="round" stroke-miterlimit="10"/><path fill="none" stroke="rgb(192,192,192)" paint-order="fill stroke markers" d=" M 14.5 0.5 L 14.5 736.5 M 30.5 0.5 L 30.5 736.5 M 45.5 0.5 L 45.5 736.5 M 75.5 0.5 L 75.5 736.5 M 90.5 0.5 L 90.5 736.5 M 105.5 0.5 L 105.5 736.5 M 121.5 0.5 L 121.5 736.5 M 151.5 0.5 L 151.5 736.5 M 166.5 0.5 L 166.5 736.5 M 181.5 0.5 L 181.5 736.5 M 196.5 0.5 L 196.5 736.5 M 227.5 0.5 L 227.5 736.5 M 242.5 0.5 L 242.5 736.5 M 257.5 0.5 L 257.5 736.5 M 272.5 0.5 L 272.5 736.5 M 303.5 0.5 L 303.5 736.5 M 318.5 0.5 L 318.5 736.5 M 333.5 0.5 L 333.5 736.5 M 348.5 0.5 L 348.5 736.5 M 378.5 0.5 L 378.5 736.5 M 394.5 0.5 L 394.5 736.5 M 409.5 0.5 L 409.5 736.5 M 424.5 0.5 L 424.5 736.5 M 454.5 0.5 L 454.5 736.5 M 469.5 0.5 L 469.5 736.5 M 485.5 0.5 L 485.5 736.5 M 500.5 0.5 L 500.5 736.5 M 530.5 0.5 L 530.5 736.5 M 545.5 0.5 L 545.5 736.5 M 560.5 0.5 L 560.5 736.5 M 576.5 0.5 L 576.5 736.5 M 606.5 0.5 L 606.5 736.5 M 621.5 0.5 L 621.5 736.5 M 636.5 0.5 L 636.5 736.5 M 651.5 0.5 L 651.5 736.5 M 682.5 0.5 L 682.5 736.5 M 697.5 0.5 L 697.5 736.5 M 712.5 0.5 L 712.5 736.5 M 727.5 0.5 L 727.5 736.5 M 758.5 0.5 L 758.5 736.5 M 773.5 0.5 L 773.5 736.5 M 788.5 0.5 L 788.5 736.5 M 803.5 0.5 L 803.5 736.5 M 833.5 0.5 L 833.5 736.5 M 849.5 0.5 L 849.5 736.5 M 864.5 0.5 L 864.5 736.5 M 879.5 0.5 L 879.5 736.5 M 909.5 0.5 L 909.5 736.5 M 924.5 0.5 L 924.5 736.5 M 940.5 0.5 L 940.5 736.5 M 955.5 0.5 L 955.5 736.5 M 985.5 0.5 L 985.5 736.5 M 1000.5 0.5 L 1000.5 736.5 M 1015.5 0.5 L 1015.5 736.5 M 1031.5 0.5 L 1031.5 736.5" stroke-opacity="0.23529411764705882" stroke-linecap="round" stroke-linejoin="round" stroke-miterlimit="10"/><path fill="none" stroke="rgb(192,192,192)" paint-order="fill stroke markers" d=" M 0.5 41.5 L 1052.5 41.5 M 0.5 41.5 L 1052.5 41.5 M 0.5 117.5 L 1052.5 117.5 M 0.5 193.5 L 1052.5 193.5 M 0.5 269.5 L 1052.5 269.5 M 0.5 345.5 L 1052.5 345.5 M 0.5 421.5 L 1052.5 421.5 M 0.5 496.5 L 1052.5 496.5 M 0.5 572.5 L 1052.5 572.5 M 0.5 724.5 L 1052.5 724.5" stroke-opacity="1" stroke-linecap="round" stroke-linejoin="round" stroke-miterlimit="10"/><path fill="none" stroke="rgb(192,192,192)" paint-order="fill stroke markers" d=" M 0.5 11.5 L 1052.5 11.5 M 0.5 11.5 L 1052.5 11.5 M 0.5 26.5 L 1052.5 26.5 M 0.5 57.5 L 1052.5 57.5 M 0.5 72.5 L 1052.5 72.5 M 0.5 87.5 L 1052.5 87.5 M 0.5 102.5 L 1052.5 102.5 M 0.5 132.5 L 1052.5 132.5 M 0.5 148.5 L 1052.5 148.5 M 0.5 163.5 L 1052.5 163.5 M 0.5 178.5 L 1052.5 178.5 M 0.5 208.5 L 1052.5 208.5 M 0.5 223.5 L 1052.5 223.5 M 0.5 239.5 L 1052.5 239.5 M 0.5 254.5 L 1052.5 254.5 M 0.5 284.5 L 1052.5 284.5 M 0.5 299.5 L 1052.5 299.5 M 0.5 314.5 L 1052.5 314.5 M 0.5 330.5 L 1052.5 330.5 M 0.5 360.5 L 1052.5 360.5 M 0.5 375.5 L 1052.5 375.5 M 0.5 390.5 L 1052.5 390.5 M 0.5 405.5 L 1052.5 405.5 M 0.5 436.5 L 1052.5 436.5 M 0.5 451.5 L 1052.5 451.5 M 0.5 466.5 L 1052.5 466.5 M 0.5 481.5 L 1052.5 481.5 M 0.5 512.5 L 1052.5 512.5 M 0.5 527.5 L 1052.5 527.5 M 0.5 542.5 L 1052.5 542.5 M 0.5 557.5 L 1052.5 557.5 M 0.5 587.5 L 1052.5 587.5 M 0.5 603.5 L 1052.5 603.5 M 0.5 618.5 L 1052.5 618.5 M 0.5 633.5 L 1052.5 633.5 M 0.5 663.5 L 1052.5 663.5 M 0.5 678.5 L 1052.5 678.5 M 0.5 694.5 L 1052.5 694.5 M 0.5 709.5 L 1052.5 709.5" stroke-opacity="0.23529411764705882" stroke-linecap="round" stroke-linejoin="round" stroke-miterlimit="10"/><path fill="none" stroke="rgb(0,0,0)" paint-order="fill stroke markers" d=" M 60.5 2.5 L 60.5 736.5" stroke-opacity="1" stroke-miterlimit="10"/><path fill="none" stroke="rgb(0,0,0)" paint-order="fill stroke markers" d=" M 60.5 1.5 L 56.5 5.5" stroke-opacity="1" stroke-miterlimit="10"/><path fill="none" stroke="rgb(0,0,0)" paint-order="fill stroke markers" d=" M 60.5 1.5 L 64.5 5.5" stroke-opacity="1" stroke-miterlimit="10"/><path fill="none" stroke="rgb(0,0,0)" paint-order="fill stroke markers" d=" M 0.5 648.5 L 1050.5 648.5" stroke-opacity="1" stroke-miterlimit="10"/><path fill="none" stroke="rgb(0,0,0)" paint-order="fill stroke markers" d=" M 1051.5 648.5 L 1047.5 644.5" stroke-opacity="1" stroke-miterlimit="10"/><path fill="none" stroke="rgb(0,0,0)" paint-order="fill stroke markers" d=" M 1051.5 648.5 L 1047.5 652.5" stroke-opacity="1" stroke-miterlimit="10"/><text fill="rgb(0,0,0)" stroke="none" font-family="geogebra-sans-serif, sans-serif" font-size="12px" font-style="normal" font-weight="normal" text-decoration="normal" x="134" y="664" text-anchor="start" dominant-baseline="alphabetic" fill-opacity="1">2</text><text fill="none" stroke="rgb(255,255,255)" font-family="geogebra-sans-serif, sans-serif" font-size="12px" font-style="normal" font-weight="normal" text-decoration="normal" x="134" y="664" text-anchor="start" dominant-baseline="alphabetic" stroke-opacity="1" stroke-linejoin="bevel" stroke-miterlimit="10" stroke-width="3">2</text><text fill="rgb(0,0,0)" stroke="none" font-family="geogebra-sans-serif, sans-serif" font-size="12px" font-style="normal" font-weight="normal" text-decoration="normal" x="134" y="664" text-anchor="start" dominant-baseline="alphabetic" fill-opacity="1">2</text><text fill="rgb(0,0,0)" stroke="none" font-family="geogebra-sans-serif, sans-serif" font-size="12px" font-style="normal" font-weight="normal" text-decoration="normal" x="210" y="664" text-anchor="start" dominant-baseline="alphabetic" fill-opacity="1">4</text><text fill="none" stroke="rgb(255,255,255)" font-family="geogebra-sans-serif, sans-serif" font-size="12px" font-style="normal" font-weight="normal" text-decoration="normal" x="210" y="664" text-anchor="start" dominant-baseline="alphabetic" stroke-opacity="1" stroke-linejoin="bevel" stroke-miterlimit="10" stroke-width="3">4</text><text fill="rgb(0,0,0)" stroke="none" font-family="geogebra-sans-serif, sans-serif" font-size="12px" font-style="normal" font-weight="normal" text-decoration="normal" x="210" y="664" text-anchor="start" dominant-baseline="alphabetic" fill-opacity="1">4</text><text fill="rgb(0,0,0)" stroke="none" font-family="geogebra-sans-serif, sans-serif" font-size="12px" font-style="normal" font-weight="normal" text-decoration="normal" x="285" y="664" text-anchor="start" dominant-baseline="alphabetic" fill-opacity="1">6</text><text fill="none" stroke="rgb(255,255,255)" font-family="geogebra-sans-serif, sans-serif" font-size="12px" font-style="normal" font-weight="normal" text-decoration="normal" x="285" y="664" text-anchor="start" dominant-baseline="alphabetic" stroke-opacity="1" stroke-linejoin="bevel" stroke-miterlimit="10" stroke-width="3">6</text><text fill="rgb(0,0,0)" stroke="none" font-family="geogebra-sans-serif, sans-serif" font-size="12px" font-style="normal" font-weight="normal" text-decoration="normal" x="285" y="664" text-anchor="start" dominant-baseline="alphabetic" fill-opacity="1">6</text><text fill="rgb(0,0,0)" stroke="none" font-family="geogebra-sans-serif, sans-serif" font-size="12px" font-style="normal" font-weight="normal" text-decoration="normal" x="361" y="664" text-anchor="start" dominant-baseline="alphabetic" fill-opacity="1">8</text><text fill="none" stroke="rgb(255,255,255)" font-family="geogebra-sans-serif, sans-serif" font-size="12px" font-style="normal" font-weight="normal" text-decoration="normal" x="361" y="664" text-anchor="start" dominant-baseline="alphabetic" stroke-opacity="1" stroke-linejoin="bevel" stroke-miterlimit="10" stroke-width="3">8</text><text fill="rgb(0,0,0)" stroke="none" font-family="geogebra-sans-serif, sans-serif" font-size="12px" font-style="normal" font-weight="normal" text-decoration="normal" x="361" y="664" text-anchor="start" dominant-baseline="alphabetic" fill-opacity="1">8</text><text fill="rgb(0,0,0)" stroke="none" font-family="geogebra-sans-serif, sans-serif" font-size="12px" font-style="normal" font-weight="normal" text-decoration="normal" x="434" y="664" text-anchor="start" dominant-baseline="alphabetic" fill-opacity="1">10</text><text fill="none" stroke="rgb(255,255,255)" font-family="geogebra-sans-serif, sans-serif" font-size="12px" font-style="normal" font-weight="normal" text-decoration="normal" x="434" y="664" text-anchor="start" dominant-baseline="alphabetic" stroke-opacity="1" stroke-linejoin="bevel" stroke-miterlimit="10" stroke-width="3">10</text><text fill="rgb(0,0,0)" stroke="none" font-family="geogebra-sans-serif, sans-serif" font-size="12px" font-style="normal" font-weight="normal" text-decoration="normal" x="434" y="664" text-anchor="start" dominant-baseline="alphabetic" fill-opacity="1">10</text><text fill="rgb(0,0,0)" stroke="none" font-family="geogebra-sans-serif, sans-serif" font-size="12px" font-style="normal" font-weight="normal" text-decoration="normal" x="510" y="664" text-anchor="start" dominant-baseline="alphabetic" fill-opacity="1">12</text><text fill="none" stroke="rgb(255,255,255)" font-family="geogebra-sans-serif, sans-serif" font-size="12px" font-style="normal" font-weight="normal" text-decoration="normal" x="510" y="664" text-anchor="start" dominant-baseline="alphabetic" stroke-opacity="1" stroke-linejoin="bevel" stroke-miterlimit="10" stroke-width="3">12</text><text fill="rgb(0,0,0)" stroke="none" font-family="geogebra-sans-serif, sans-serif" font-size="12px" font-style="normal" font-weight="normal" text-decoration="normal" x="510" y="664" text-anchor="start" dominant-baseline="alphabetic" fill-opacity="1">12</text><text fill="rgb(0,0,0)" stroke="none" font-family="geogebra-sans-serif, sans-serif" font-size="12px" font-style="normal" font-weight="normal" text-decoration="normal" x="586" y="664" text-anchor="start" dominant-baseline="alphabetic" fill-opacity="1">14</text><text fill="none" stroke="rgb(255,255,255)" font-family="geogebra-sans-serif, sans-serif" font-size="12px" font-style="normal" font-weight="normal" text-decoration="normal" x="586" y="664" text-anchor="start" dominant-baseline="alphabetic" stroke-opacity="1" stroke-linejoin="bevel" stroke-miterlimit="10" stroke-width="3">14</text><text fill="rgb(0,0,0)" stroke="none" font-family="geogebra-sans-serif, sans-serif" font-size="12px" font-style="normal" font-weight="normal" text-decoration="normal" x="586" y="664" text-anchor="start" dominant-baseline="alphabetic" fill-opacity="1">14</text><text fill="rgb(0,0,0)" stroke="none" font-family="geogebra-sans-serif, sans-serif" font-size="12px" font-style="normal" font-weight="normal" text-decoration="normal" x="662" y="664" text-anchor="start" dominant-baseline="alphabetic" fill-opacity="1">16</text><text fill="none" stroke="rgb(255,255,255)" font-family="geogebra-sans-serif, sans-serif" font-size="12px" font-style="normal" font-weight="normal" text-decoration="normal" x="662" y="664" text-anchor="start" dominant-baseline="alphabetic" stroke-opacity="1" stroke-linejoin="bevel" stroke-miterlimit="10" stroke-width="3">16</text><text fill="rgb(0,0,0)" stroke="none" font-family="geogebra-sans-serif, sans-serif" font-size="12px" font-style="normal" font-weight="normal" text-decoration="normal" x="662" y="664" text-anchor="start" dominant-baseline="alphabetic" fill-opacity="1">16</text><text fill="rgb(0,0,0)" stroke="none" font-family="geogebra-sans-serif, sans-serif" font-size="12px" font-style="normal" font-weight="normal" text-decoration="normal" x="737" y="664" text-anchor="start" dominant-baseline="alphabetic" fill-opacity="1">18</text><text fill="none" stroke="rgb(255,255,255)" font-family="geogebra-sans-serif, sans-serif" font-size="12px" font-style="normal" font-weight="normal" text-decoration="normal" x="737" y="664" text-anchor="start" dominant-baseline="alphabetic" stroke-opacity="1" stroke-linejoin="bevel" stroke-miterlimit="10" stroke-width="3">18</text><text fill="rgb(0,0,0)" stroke="none" font-family="geogebra-sans-serif, sans-serif" font-size="12px" font-style="normal" font-weight="normal" text-decoration="normal" x="737" y="664" text-anchor="start" dominant-baseline="alphabetic" fill-opacity="1">18</text><text fill="rgb(0,0,0)" stroke="none" font-family="geogebra-sans-serif, sans-serif" font-size="12px" font-style="normal" font-weight="normal" text-decoration="normal" x="813" y="664" text-anchor="start" dominant-baseline="alphabetic" fill-opacity="1">20</text><text fill="none" stroke="rgb(255,255,255)" font-family="geogebra-sans-serif, sans-serif" font-size="12px" font-style="normal" font-weight="normal" text-decoration="normal" x="813" y="664" text-anchor="start" dominant-baseline="alphabetic" stroke-opacity="1" stroke-linejoin="bevel" stroke-miterlimit="10" stroke-width="3">20</text><text fill="rgb(0,0,0)" stroke="none" font-family="geogebra-sans-serif, sans-serif" font-size="12px" font-style="normal" font-weight="normal" text-decoration="normal" x="813" y="664" text-anchor="start" dominant-baseline="alphabetic" fill-opacity="1">20</text><text fill="rgb(0,0,0)" stroke="none" font-family="geogebra-sans-serif, sans-serif" font-size="12px" font-style="normal" font-weight="normal" text-decoration="normal" x="889" y="664" text-anchor="start" dominant-baseline="alphabetic" fill-opacity="1">22</text><text fill="none" stroke="rgb(255,255,255)" font-family="geogebra-sans-serif, sans-serif" font-size="12px" font-style="normal" font-weight="normal" text-decoration="normal" x="889" y="664" text-anchor="start" dominant-baseline="alphabetic" stroke-opacity="1" stroke-linejoin="bevel" stroke-miterlimit="10" stroke-width="3">22</text><text fill="rgb(0,0,0)" stroke="none" font-family="geogebra-sans-serif, sans-serif" font-size="12px" font-style="normal" font-weight="normal" text-decoration="normal" x="889" y="664" text-anchor="start" dominant-baseline="alphabetic" fill-opacity="1">22</text><text fill="rgb(0,0,0)" stroke="none" font-family="geogebra-sans-serif, sans-serif" font-size="12px" font-style="normal" font-weight="normal" text-decoration="normal" x="965" y="664" text-anchor="start" dominant-baseline="alphabetic" fill-opacity="1">24</text><text fill="none" stroke="rgb(255,255,255)" font-family="geogebra-sans-serif, sans-serif" font-size="12px" font-style="normal" font-weight="normal" text-decoration="normal" x="965" y="664" text-anchor="start" dominant-baseline="alphabetic" stroke-opacity="1" stroke-linejoin="bevel" stroke-miterlimit="10" stroke-width="3">24</text><text fill="rgb(0,0,0)" stroke="none" font-family="geogebra-sans-serif, sans-serif" font-size="12px" font-style="normal" font-weight="normal" text-decoration="normal" x="965" y="664" text-anchor="start" dominant-baseline="alphabetic" fill-opacity="1">24</text><text fill="rgb(0,0,0)" stroke="none" font-family="geogebra-sans-serif, sans-serif" font-size="12px" font-style="normal" font-weight="normal" text-decoration="normal" x="40" y="729" text-anchor="start" dominant-baseline="alphabetic" fill-opacity="1">–2</text><text fill="none" stroke="rgb(255,255,255)" font-family="geogebra-sans-serif, sans-serif" font-size="12px" font-style="normal" font-weight="normal" text-decoration="normal" x="40" y="729" text-anchor="start" dominant-baseline="alphabetic" stroke-opacity="1" stroke-linejoin="bevel" stroke-miterlimit="10" stroke-width="3">–2</text><text fill="rgb(0,0,0)" stroke="none" font-family="geogebra-sans-serif, sans-serif" font-size="12px" font-style="normal" font-weight="normal" text-decoration="normal" x="40" y="729" text-anchor="start" dominant-baseline="alphabetic" fill-opacity="1">–2</text><text fill="rgb(0,0,0)" stroke="none" font-family="geogebra-sans-serif, sans-serif" font-size="12px" font-style="normal" font-weight="normal" text-decoration="normal" x="46" y="577" text-anchor="start" dominant-baseline="alphabetic" fill-opacity="1">2</text><text fill="none" stroke="rgb(255,255,255)" font-family="geogebra-sans-serif, sans-serif" font-size="12px" font-style="normal" font-weight="normal" text-decoration="normal" x="46" y="577" text-anchor="start" dominant-baseline="alphabetic" stroke-opacity="1" stroke-linejoin="bevel" stroke-miterlimit="10" stroke-width="3">2</text><text fill="rgb(0,0,0)" stroke="none" font-family="geogebra-sans-serif, sans-serif" font-size="12px" font-style="normal" font-weight="normal" text-decoration="normal" x="46" y="577" text-anchor="start" dominant-baseline="alphabetic" fill-opacity="1">2</text><text fill="rgb(0,0,0)" stroke="none" font-family="geogebra-sans-serif, sans-serif" font-size="12px" font-style="normal" font-weight="normal" text-decoration="normal" x="46" y="501" text-anchor="start" dominant-baseline="alphabetic" fill-opacity="1">4</text><text fill="none" stroke="rgb(255,255,255)" font-family="geogebra-sans-serif, sans-serif" font-size="12px" font-style="normal" font-weight="normal" text-decoration="normal" x="46" y="501" text-anchor="start" dominant-baseline="alphabetic" stroke-opacity="1" stroke-linejoin="bevel" stroke-miterlimit="10" stroke-width="3">4</text><text fill="rgb(0,0,0)" stroke="none" font-family="geogebra-sans-serif, sans-serif" font-size="12px" font-style="normal" font-weight="normal" text-decoration="normal" x="46" y="501" text-anchor="start" dominant-baseline="alphabetic" fill-opacity="1">4</text><text fill="rgb(0,0,0)" stroke="none" font-family="geogebra-sans-serif, sans-serif" font-size="12px" font-style="normal" font-weight="normal" text-decoration="normal" x="46" y="426" text-anchor="start" dominant-baseline="alphabetic" fill-opacity="1">6</text><text fill="none" stroke="rgb(255,255,255)" font-family="geogebra-sans-serif, sans-serif" font-size="12px" font-style="normal" font-weight="normal" text-decoration="normal" x="46" y="426" text-anchor="start" dominant-baseline="alphabetic" stroke-opacity="1" stroke-linejoin="bevel" stroke-miterlimit="10" stroke-width="3">6</text><text fill="rgb(0,0,0)" stroke="none" font-family="geogebra-sans-serif, sans-serif" font-size="12px" font-style="normal" font-weight="normal" text-decoration="normal" x="46" y="426" text-anchor="start" dominant-baseline="alphabetic" fill-opacity="1">6</text><text fill="rgb(0,0,0)" stroke="none" font-family="geogebra-sans-serif, sans-serif" font-size="12px" font-style="normal" font-weight="normal" text-decoration="normal" x="46" y="350" text-anchor="start" dominant-baseline="alphabetic" fill-opacity="1">8</text><text fill="none" stroke="rgb(255,255,255)" font-family="geogebra-sans-serif, sans-serif" font-size="12px" font-style="normal" font-weight="normal" text-decoration="normal" x="46" y="350" text-anchor="start" dominant-baseline="alphabetic" stroke-opacity="1" stroke-linejoin="bevel" stroke-miterlimit="10" stroke-width="3">8</text><text fill="rgb(0,0,0)" stroke="none" font-family="geogebra-sans-serif, sans-serif" font-size="12px" font-style="normal" font-weight="normal" text-decoration="normal" x="46" y="350" text-anchor="start" dominant-baseline="alphabetic" fill-opacity="1">8</text><text fill="rgb(0,0,0)" stroke="none" font-family="geogebra-sans-serif, sans-serif" font-size="12px" font-style="normal" font-weight="normal" text-decoration="normal" x="40" y="274" text-anchor="start" dominant-baseline="alphabetic" fill-opacity="1">10</text><text fill="none" stroke="rgb(255,255,255)" font-family="geogebra-sans-serif, sans-serif" font-size="12px" font-style="normal" font-weight="normal" text-decoration="normal" x="40" y="274" text-anchor="start" dominant-baseline="alphabetic" stroke-opacity="1" stroke-linejoin="bevel" stroke-miterlimit="10" stroke-width="3">10</text><text fill="rgb(0,0,0)" stroke="none" font-family="geogebra-sans-serif, sans-serif" font-size="12px" font-style="normal" font-weight="normal" text-decoration="normal" x="40" y="274" text-anchor="start" dominant-baseline="alphabetic" fill-opacity="1">10</text><text fill="rgb(0,0,0)" stroke="none" font-family="geogebra-sans-serif, sans-serif" font-size="12px" font-style="normal" font-weight="normal" text-decoration="normal" x="40" y="198" text-anchor="start" dominant-baseline="alphabetic" fill-opacity="1">12</text><text fill="none" stroke="rgb(255,255,255)" font-family="geogebra-sans-serif, sans-serif" font-size="12px" font-style="normal" font-weight="normal" text-decoration="normal" x="40" y="198" text-anchor="start" dominant-baseline="alphabetic" stroke-opacity="1" stroke-linejoin="bevel" stroke-miterlimit="10" stroke-width="3">12</text><text fill="rgb(0,0,0)" stroke="none" font-family="geogebra-sans-serif, sans-serif" font-size="12px" font-style="normal" font-weight="normal" text-decoration="normal" x="40" y="198" text-anchor="start" dominant-baseline="alphabetic" fill-opacity="1">12</text><text fill="rgb(0,0,0)" stroke="none" font-family="geogebra-sans-serif, sans-serif" font-size="12px" font-style="normal" font-weight="normal" text-decoration="normal" x="40" y="122" text-anchor="start" dominant-baseline="alphabetic" fill-opacity="1">14</text><text fill="none" stroke="rgb(255,255,255)" font-family="geogebra-sans-serif, sans-serif" font-size="12px" font-style="normal" font-weight="normal" text-decoration="normal" x="40" y="122" text-anchor="start" dominant-baseline="alphabetic" stroke-opacity="1" stroke-linejoin="bevel" stroke-miterlimit="10" stroke-width="3">14</text><text fill="rgb(0,0,0)" stroke="none" font-family="geogebra-sans-serif, sans-serif" font-size="12px" font-style="normal" font-weight="normal" text-decoration="normal" x="40" y="122" text-anchor="start" dominant-baseline="alphabetic" fill-opacity="1">14</text><text fill="rgb(0,0,0)" stroke="none" font-family="geogebra-sans-serif, sans-serif" font-size="12px" font-style="normal" font-weight="normal" text-decoration="normal" x="40" y="46" text-anchor="start" dominant-baseline="alphabetic" fill-opacity="1">16</text><text fill="none" stroke="rgb(255,255,255)" font-family="geogebra-sans-serif, sans-serif" font-size="12px" font-style="normal" font-weight="normal" text-decoration="normal" x="40" y="46" text-anchor="start" dominant-baseline="alphabetic" stroke-opacity="1" stroke-linejoin="bevel" stroke-miterlimit="10" stroke-width="3">16</text><text fill="rgb(0,0,0)" stroke="none" font-family="geogebra-sans-serif, sans-serif" font-size="12px" font-style="normal" font-weight="normal" text-decoration="normal" x="40" y="46" text-anchor="start" dominant-baseline="alphabetic" fill-opacity="1">16</text><text fill="rgb(0,0,0)" stroke="none" font-family="geogebra-sans-serif, sans-serif" font-size="12px" font-style="normal" font-weight="normal" text-decoration="normal" x="46" y="664" text-anchor="start" dominant-baseline="alphabetic" fill-opacity="1">0</text><text fill="none" stroke="rgb(255,255,255)" font-family="geogebra-sans-serif, sans-serif" font-size="12px" font-style="normal" font-weight="normal" text-decoration="normal" x="46" y="664" text-anchor="start" dominant-baseline="alphabetic" stroke-opacity="1" stroke-linejoin="bevel" stroke-miterlimit="10" stroke-width="3">0</text><text fill="rgb(0,0,0)" stroke="none" font-family="geogebra-sans-serif, sans-serif" font-size="12px" font-style="normal" font-weight="normal" text-decoration="normal" x="46" y="664" text-anchor="start" dominant-baseline="alphabetic" fill-opacity="1">0</text><path fill="none" stroke="rgb(255,0,0)" paint-order="fill stroke markers" d=" M 290.09999999999997 741 L 290.09999999999997 -5" stroke-opacity="0.6980392156862745" stroke-linecap="round" stroke-linejoin="round" stroke-miterlimit="10" stroke-width="2.5"/><text fill="rgb(255,0,0)" stroke="none" font-family="geogebra-sans-serif, sans-serif" font-size="16px" font-style="normal" font-weight="normal" text-decoration="normal" x="298" y="16" text-anchor="start" dominant-baseline="alphabetic" fill-opacity="1">j</text><text fill="none" stroke="rgb(255,255,255)" font-family="geogebra-sans-serif, sans-serif" font-size="16px" font-style="normal" font-weight="normal" text-decoration="normal" x="298" y="16" text-anchor="start" dominant-baseline="alphabetic" stroke-opacity="1" stroke-linejoin="bevel" stroke-miterlimit="10" stroke-width="3">j</text><text fill="rgb(255,0,0)" stroke="none" font-family="geogebra-sans-serif, sans-serif" font-size="16px" font-style="normal" font-weight="normal" text-decoration="normal" x="298" y="16" text-anchor="start" dominant-baseline="alphabetic" fill-opacity="1">j</text><path fill="none" stroke="rgb(0,0,0)" paint-order="fill stroke markers" d=" M 110.1 271.59999999999906 L 290.09999999999997 435.5999999999992" stroke-opacity="0.6980392156862745" stroke-linecap="round" stroke-linejoin="round" stroke-miterlimit="10" stroke-width="2.5"/><text fill="rgb(0,0,0)" stroke="none" font-family="geogebra-sans-serif, sans-serif" font-size="16px" font-style="normal" font-weight="normal" text-decoration="normal" x="189" y="365" text-anchor="start" dominant-baseline="alphabetic" fill-opacity="1">f</text><text fill="none" stroke="rgb(255,255,255)" font-family="geogebra-sans-serif, sans-serif" font-size="16px" font-style="normal" font-weight="normal" text-decoration="normal" x="189" y="365" text-anchor="start" dominant-baseline="alphabetic" stroke-opacity="1" stroke-linejoin="bevel" stroke-miterlimit="10" stroke-width="3">f</text><text fill="rgb(0,0,0)" stroke="none" font-family="geogebra-sans-serif, sans-serif" font-size="16px" font-style="normal" font-weight="normal" text-decoration="normal" x="189" y="365" text-anchor="start" dominant-baseline="alphabetic" fill-opacity="1">f</text><path fill="none" stroke="rgb(0,0,0)" paint-order="fill stroke markers" d=" M 416.1 138.59999999999894 L 271.1 317.59999999999906" stroke-opacity="0.6980392156862745" stroke-linecap="round" stroke-linejoin="round" stroke-miterlimit="10" stroke-width="2.5"/><text fill="rgb(0,0,0)" stroke="none" font-family="geogebra-sans-serif, sans-serif" font-size="16px" font-style="normal" font-weight="normal" text-decoration="normal" x="331" y="218" text-anchor="start" dominant-baseline="alphabetic" fill-opacity="1">g</text><text fill="none" stroke="rgb(255,255,255)" font-family="geogebra-sans-serif, sans-serif" font-size="16px" font-style="normal" font-weight="normal" text-decoration="normal" x="331" y="218" text-anchor="start" dominant-baseline="alphabetic" stroke-opacity="1" stroke-linejoin="bevel" stroke-miterlimit="10" stroke-width="3">g</text><text fill="rgb(0,0,0)" stroke="none" font-family="geogebra-sans-serif, sans-serif" font-size="16px" font-style="normal" font-weight="normal" text-decoration="normal" x="331" y="218" text-anchor="start" dominant-baseline="alphabetic" fill-opacity="1">g</text><path fill="none" stroke="rgb(0,0,0)" paint-order="fill stroke markers" d=" M 308.09999999999997 125.599999999999 L 461.09999999999997 462.59999999999917" stroke-opacity="0.6980392156862745" stroke-linecap="round" stroke-linejoin="round" stroke-miterlimit="10" stroke-width="2.5"/><text fill="rgb(0,0,0)" stroke="none" font-family="geogebra-sans-serif, sans-serif" font-size="16px" font-style="normal" font-weight="normal" text-decoration="normal" x="370" y="300" text-anchor="start" dominant-baseline="alphabetic" fill-opacity="1">h</text><text fill="none" stroke="rgb(255,255,255)" font-family="geogebra-sans-serif, sans-serif" font-size="16px" font-style="normal" font-weight="normal" text-decoration="normal" x="370" y="300" text-anchor="start" dominant-baseline="alphabetic" stroke-opacity="1" stroke-linejoin="bevel" stroke-miterlimit="10" stroke-width="3">h</text><text fill="rgb(0,0,0)" stroke="none" font-family="geogebra-sans-serif, sans-serif" font-size="16px" font-style="normal" font-weight="normal" text-decoration="normal" x="370" y="300" text-anchor="start" dominant-baseline="alphabetic" fill-opacity="1">h</text><path fill="none" stroke="rgb(0,0,0)" paint-order="fill stroke markers" d=" M 591.192561170301 572.6818838264792 L 591.192561170301 269.34156739063417" stroke-opacity="0.6980392156862745" stroke-linecap="round" stroke-linejoin="round" stroke-miterlimit="10" stroke-width="2.5"/><text fill="rgb(0,0,0)" stroke="none" font-family="geogebra-sans-serif, sans-serif" font-size="16px" font-style="normal" font-weight="normal" text-decoration="normal" x="607" y="421" text-anchor="start" dominant-baseline="alphabetic" fill-opacity="1">i</text><text fill="none" stroke="rgb(255,255,255)" font-family="geogebra-sans-serif, sans-serif" font-size="16px" font-style="normal" font-weight="normal" text-decoration="normal" x="607" y="421" text-anchor="start" dominant-baseline="alphabetic" stroke-opacity="1" stroke-linejoin="bevel" stroke-miterlimit="10" stroke-width="3">i</text><text fill="rgb(0,0,0)" stroke="none" font-family="geogebra-sans-serif, sans-serif" font-size="16px" font-style="normal" font-weight="normal" text-decoration="normal" x="607" y="421" text-anchor="start" dominant-baseline="alphabetic" fill-opacity="1">i</text><path fill="rgb(77,77,255)" stroke="none" paint-order="stroke fill markers" d=" M 115.1 271.59999999999906 C 115.1 274.361423749153 112.86142374915396 276.59999999999906 110.1 276.59999999999906 C 107.33857625084603 276.59999999999906 105.1 274.361423749153 105.1 271.59999999999906 C 105.1 268.8385762508451 107.33857625084603 266.59999999999906 110.1 266.59999999999906 C 112.86142374915396 266.59999999999906 115.1 268.8385762508451 115.1 271.59999999999906 Z" fill-opacity="1"/><path fill="none" stroke="rgb(0,0,0)" paint-order="fill stroke markers" d=" M 115.1 271.59999999999906 C 115.1 274.361423749153 112.86142374915396 276.59999999999906 110.1 276.59999999999906 C 107.33857625084603 276.59999999999906 105.1 274.361423749153 105.1 271.59999999999906 C 105.1 268.8385762508451 107.33857625084603 266.59999999999906 110.1 266.59999999999906 C 112.86142374915396 266.59999999999906 115.1 268.8385762508451 115.1 271.59999999999906 Z" stroke-opacity="1" stroke-linecap="round" stroke-linejoin="round" stroke-miterlimit="10"/><text fill="rgb(77,77,255)" stroke="none" font-family="geogebra-sans-serif, sans-serif" font-size="16px" font-style="normal" font-weight="normal" text-decoration="normal" x="114" y="262" text-anchor="start" dominant-baseline="alphabetic" fill-opacity="1">A</text><text fill="none" stroke="rgb(255,255,255)" font-family="geogebra-sans-serif, sans-serif" font-size="16px" font-style="normal" font-weight="normal" text-decoration="normal" x="114" y="262" text-anchor="start" dominant-baseline="alphabetic" stroke-opacity="1" stroke-linejoin="bevel" stroke-miterlimit="10" stroke-width="3">A</text><text fill="rgb(77,77,255)" stroke="none" font-family="geogebra-sans-serif, sans-serif" font-size="16px" font-style="normal" font-weight="normal" text-decoration="normal" x="114" y="262" text-anchor="start" dominant-baseline="alphabetic" fill-opacity="1">A</text><path fill="rgb(77,77,255)" stroke="none" paint-order="stroke fill markers" d=" M 295.09999999999997 435.5999999999992 C 295.09999999999997 438.3614237491532 292.8614237491539 440.5999999999992 290.09999999999997 440.5999999999992 C 287.338576250846 440.5999999999992 285.09999999999997 438.3614237491532 285.09999999999997 435.5999999999992 C 285.09999999999997 432.8385762508453 287.338576250846 430.5999999999992 290.09999999999997 430.5999999999992 C 292.8614237491539 430.5999999999992 295.09999999999997 432.8385762508453 295.09999999999997 435.5999999999992 Z" fill-opacity="1"/><path fill="none" stroke="rgb(0,0,0)" paint-order="fill stroke markers" d=" M 295.09999999999997 435.5999999999992 C 295.09999999999997 438.3614237491532 292.8614237491539 440.5999999999992 290.09999999999997 440.5999999999992 C 287.338576250846 440.5999999999992 285.09999999999997 438.3614237491532 285.09999999999997 435.5999999999992 C 285.09999999999997 432.8385762508453 287.338576250846 430.5999999999992 290.09999999999997 430.5999999999992 C 292.8614237491539 430.5999999999992 295.09999999999997 432.8385762508453 295.09999999999997 435.5999999999992 Z" stroke-opacity="1" stroke-linecap="round" stroke-linejoin="round" stroke-miterlimit="10"/><text fill="rgb(77,77,255)" stroke="none" font-family="geogebra-sans-serif, sans-serif" font-size="16px" font-style="normal" font-weight="normal" text-decoration="normal" x="294" y="426" text-anchor="start" dominant-baseline="alphabetic" fill-opacity="1">B</text><text fill="none" stroke="rgb(255,255,255)" font-family="geogebra-sans-serif, sans-serif" font-size="16px" font-style="normal" font-weight="normal" text-decoration="normal" x="294" y="426" text-anchor="start" dominant-baseline="alphabetic" stroke-opacity="1" stroke-linejoin="bevel" stroke-miterlimit="10" stroke-width="3">B</text><text fill="rgb(77,77,255)" stroke="none" font-family="geogebra-sans-serif, sans-serif" font-size="16px" font-style="normal" font-weight="normal" text-decoration="normal" x="294" y="426" text-anchor="start" dominant-baseline="alphabetic" fill-opacity="1">B</text><path fill="rgb(77,77,255)" stroke="none" paint-order="stroke fill markers" d=" M 421.1 138.59999999999894 C 421.1 141.36142374915292 418.86142374915397 143.59999999999894 416.1 143.59999999999894 C 413.3385762508461 143.59999999999894 411.1 141.36142374915292 411.1 138.59999999999894 C 411.1 135.83857625084497 413.3385762508461 133.59999999999894 416.1 133.59999999999894 C 418.86142374915397 133.59999999999894 421.1 135.83857625084497 421.1 138.59999999999894 Z" fill-opacity="1"/><path fill="none" stroke="rgb(0,0,0)" paint-order="fill stroke markers" d=" M 421.1 138.59999999999894 C 421.1 141.36142374915292 418.86142374915397 143.59999999999894 416.1 143.59999999999894 C 413.3385762508461 143.59999999999894 411.1 141.36142374915292 411.1 138.59999999999894 C 411.1 135.83857625084497 413.3385762508461 133.59999999999894 416.1 133.59999999999894 C 418.86142374915397 133.59999999999894 421.1 135.83857625084497 421.1 138.59999999999894 Z" stroke-opacity="1" stroke-linecap="round" stroke-linejoin="round" stroke-miterlimit="10"/><text fill="rgb(77,77,255)" stroke="none" font-family="geogebra-sans-serif, sans-serif" font-size="16px" font-style="normal" font-weight="normal" text-decoration="normal" x="420" y="129" text-anchor="start" dominant-baseline="alphabetic" fill-opacity="1">C</text><text fill="none" stroke="rgb(255,255,255)" font-family="geogebra-sans-serif, sans-serif" font-size="16px" font-style="normal" font-weight="normal" text-decoration="normal" x="420" y="129" text-anchor="start" dominant-baseline="alphabetic" stroke-opacity="1" stroke-linejoin="bevel" stroke-miterlimit="10" stroke-width="3">C</text><text fill="rgb(77,77,255)" stroke="none" font-family="geogebra-sans-serif, sans-serif" font-size="16px" font-style="normal" font-weight="normal" text-decoration="normal" x="420" y="129" text-anchor="start" dominant-baseline="alphabetic" fill-opacity="1">C</text><path fill="rgb(77,77,255)" stroke="none" paint-order="stroke fill markers" d=" M 276.1 317.59999999999906 C 276.1 320.361423749153 273.86142374915397 322.59999999999906 271.1 322.59999999999906 C 268.3385762508461 322.59999999999906 266.1 320.361423749153 266.1 317.59999999999906 C 266.1 314.8385762508451 268.3385762508461 312.59999999999906 271.1 312.59999999999906 C 273.86142374915397 312.59999999999906 276.1 314.8385762508451 276.1 317.59999999999906 Z" fill-opacity="1"/><path fill="none" stroke="rgb(0,0,0)" paint-order="fill stroke markers" d=" M 276.1 317.59999999999906 C 276.1 320.361423749153 273.86142374915397 322.59999999999906 271.1 322.59999999999906 C 268.3385762508461 322.59999999999906 266.1 320.361423749153 266.1 317.59999999999906 C 266.1 314.8385762508451 268.3385762508461 312.59999999999906 271.1 312.59999999999906 C 273.86142374915397 312.59999999999906 276.1 314.8385762508451 276.1 317.59999999999906 Z" stroke-opacity="1" stroke-linecap="round" stroke-linejoin="round" stroke-miterlimit="10"/><text fill="rgb(77,77,255)" stroke="none" font-family="geogebra-sans-serif, sans-serif" font-size="16px" font-style="normal" font-weight="normal" text-decoration="normal" x="275" y="308" text-anchor="start" dominant-baseline="alphabetic" fill-opacity="1">D</text><text fill="none" stroke="rgb(255,255,255)" font-family="geogebra-sans-serif, sans-serif" font-size="16px" font-style="normal" font-weight="normal" text-decoration="normal" x="275" y="308" text-anchor="start" dominant-baseline="alphabetic" stroke-opacity="1" stroke-linejoin="bevel" stroke-miterlimit="10" stroke-width="3">D</text><text fill="rgb(77,77,255)" stroke="none" font-family="geogebra-sans-serif, sans-serif" font-size="16px" font-style="normal" font-weight="normal" text-decoration="normal" x="275" y="308" text-anchor="start" dominant-baseline="alphabetic" fill-opacity="1">D</text><path fill="rgb(77,77,255)" stroke="none" paint-order="stroke fill markers" d=" M 313.09999999999997 125.599999999999 C 313.09999999999997 128.36142374915298 310.8614237491539 130.599999999999 308.09999999999997 130.599999999999 C 305.338576250846 130.599999999999 303.09999999999997 128.36142374915298 303.09999999999997 125.599999999999 C 303.09999999999997 122.83857625084504 305.338576250846 120.599999999999 308.09999999999997 120.599999999999 C 310.8614237491539 120.599999999999 313.09999999999997 122.83857625084504 313.09999999999997 125.599999999999 Z" fill-opacity="1"/><path fill="none" stroke="rgb(0,0,0)" paint-order="fill stroke markers" d=" M 313.09999999999997 125.599999999999 C 313.09999999999997 128.36142374915298 310.8614237491539 130.599999999999 308.09999999999997 130.599999999999 C 305.338576250846 130.599999999999 303.09999999999997 128.36142374915298 303.09999999999997 125.599999999999 C 303.09999999999997 122.83857625084504 305.338576250846 120.599999999999 308.09999999999997 120.599999999999 C 310.8614237491539 120.599999999999 313.09999999999997 122.83857625084504 313.09999999999997 125.599999999999 Z" stroke-opacity="1" stroke-linecap="round" stroke-linejoin="round" stroke-miterlimit="10"/><text fill="rgb(77,77,255)" stroke="none" font-family="geogebra-sans-serif, sans-serif" font-size="16px" font-style="normal" font-weight="normal" text-decoration="normal" x="312" y="116" text-anchor="start" dominant-baseline="alphabetic" fill-opacity="1">E</text><text fill="none" stroke="rgb(255,255,255)" font-family="geogebra-sans-serif, sans-serif" font-size="16px" font-style="normal" font-weight="normal" text-decoration="normal" x="312" y="116" text-anchor="start" dominant-baseline="alphabetic" stroke-opacity="1" stroke-linejoin="bevel" stroke-miterlimit="10" stroke-width="3">E</text><text fill="rgb(77,77,255)" stroke="none" font-family="geogebra-sans-serif, sans-serif" font-size="16px" font-style="normal" font-weight="normal" text-decoration="normal" x="312" y="116" text-anchor="start" dominant-baseline="alphabetic" fill-opacity="1">E</text><path fill="rgb(77,77,255)" stroke="none" paint-order="stroke fill markers" d=" M 466.09999999999997 462.59999999999917 C 466.09999999999997 465.3614237491531 463.8614237491539 467.59999999999917 461.09999999999997 467.59999999999917 C 458.338576250846 467.59999999999917 456.09999999999997 465.3614237491531 456.09999999999997 462.59999999999917 C 456.09999999999997 459.8385762508452 458.338576250846 457.59999999999917 461.09999999999997 457.59999999999917 C 463.8614237491539 457.59999999999917 466.09999999999997 459.8385762508452 466.09999999999997 462.59999999999917 Z" fill-opacity="1"/><path fill="none" stroke="rgb(0,0,0)" paint-order="fill stroke markers" d=" M 466.09999999999997 462.59999999999917 C 466.09999999999997 465.3614237491531 463.8614237491539 467.59999999999917 461.09999999999997 467.59999999999917 C 458.338576250846 467.59999999999917 456.09999999999997 465.3614237491531 456.09999999999997 462.59999999999917 C 456.09999999999997 459.8385762508452 458.338576250846 457.59999999999917 461.09999999999997 457.59999999999917 C 463.8614237491539 457.59999999999917 466.09999999999997 459.8385762508452 466.09999999999997 462.59999999999917 Z" stroke-opacity="1" stroke-linecap="round" stroke-linejoin="round" stroke-miterlimit="10"/><text fill="rgb(77,77,255)" stroke="none" font-family="geogebra-sans-serif, sans-serif" font-size="16px" font-style="normal" font-weight="normal" text-decoration="normal" x="465" y="453" text-anchor="start" dominant-baseline="alphabetic" fill-opacity="1">F</text><text fill="none" stroke="rgb(255,255,255)" font-family="geogebra-sans-serif, sans-serif" font-size="16px" font-style="normal" font-weight="normal" text-decoration="normal" x="465" y="453" text-anchor="start" dominant-baseline="alphabetic" stroke-opacity="1" stroke-linejoin="bevel" stroke-miterlimit="10" stroke-width="3">F</text><text fill="rgb(77,77,255)" stroke="none" font-family="geogebra-sans-serif, sans-serif" font-size="16px" font-style="normal" font-weight="normal" text-decoration="normal" x="465" y="453" text-anchor="start" dominant-baseline="alphabetic" fill-opacity="1">F</text><path fill="rgb(77,77,255)" stroke="none" paint-order="stroke fill markers" d=" M 596.192561170301 572.6818838264792 C 596.192561170301 575.4433075756332 593.953984919455 577.6818838264792 591.192561170301 577.6818838264792 C 588.431137421147 577.6818838264792 586.192561170301 575.4433075756332 586.192561170301 572.6818838264792 C 586.192561170301 569.9204600773252 588.431137421147 567.6818838264792 591.192561170301 567.6818838264792 C 593.953984919455 567.6818838264792 596.192561170301 569.9204600773252 596.192561170301 572.6818838264792 Z" fill-opacity="1"/><path fill="none" stroke="rgb(0,0,0)" paint-order="fill stroke markers" d=" M 596.192561170301 572.6818838264792 C 596.192561170301 575.4433075756332 593.953984919455 577.6818838264792 591.192561170301 577.6818838264792 C 588.431137421147 577.6818838264792 586.192561170301 575.4433075756332 586.192561170301 572.6818838264792 C 586.192561170301 569.9204600773252 588.431137421147 567.6818838264792 591.192561170301 567.6818838264792 C 593.953984919455 567.6818838264792 596.192561170301 569.9204600773252 596.192561170301 572.6818838264792 Z" stroke-opacity="1" stroke-linecap="round" stroke-linejoin="round" stroke-miterlimit="10"/><text fill="rgb(77,77,255)" stroke="none" font-family="geogebra-sans-serif, sans-serif" font-size="16px" font-style="normal" font-weight="normal" text-decoration="normal" x="595" y="563" text-anchor="start" dominant-baseline="alphabetic" fill-opacity="1">G</text><text fill="none" stroke="rgb(255,255,255)" font-family="geogebra-sans-serif, sans-serif" font-size="16px" font-style="normal" font-weight="normal" text-decoration="normal" x="595" y="563" text-anchor="start" dominant-baseline="alphabetic" stroke-opacity="1" stroke-linejoin="bevel" stroke-miterlimit="10" stroke-width="3">G</text><text fill="rgb(77,77,255)" stroke="none" font-family="geogebra-sans-serif, sans-serif" font-size="16px" font-style="normal" font-weight="normal" text-decoration="normal" x="595" y="563" text-anchor="start" dominant-baseline="alphabetic" fill-opacity="1">G</text><path fill="rgb(77,77,255)" stroke="none" paint-order="stroke fill markers" d=" M 596.192561170301 269.34156739063417 C 596.192561170301 272.1029911397881 593.953984919455 274.34156739063417 591.192561170301 274.34156739063417 C 588.431137421147 274.34156739063417 586.192561170301 272.1029911397881 586.192561170301 269.34156739063417 C 586.192561170301 266.5801436414802 588.431137421147 264.34156739063417 591.192561170301 264.34156739063417 C 593.953984919455 264.34156739063417 596.192561170301 266.5801436414802 596.192561170301 269.34156739063417 Z" fill-opacity="1"/><path fill="none" stroke="rgb(0,0,0)" paint-order="fill stroke markers" d=" M 596.192561170301 269.34156739063417 C 596.192561170301 272.1029911397881 593.953984919455 274.34156739063417 591.192561170301 274.34156739063417 C 588.431137421147 274.34156739063417 586.192561170301 272.1029911397881 586.192561170301 269.34156739063417 C 586.192561170301 266.5801436414802 588.431137421147 264.34156739063417 591.192561170301 264.34156739063417 C 593.953984919455 264.34156739063417 596.192561170301 266.5801436414802 596.192561170301 269.34156739063417 Z" stroke-opacity="1" stroke-linecap="round" stroke-linejoin="round" stroke-miterlimit="10"/><text fill="rgb(77,77,255)" stroke="none" font-family="geogebra-sans-serif, sans-serif" font-size="16px" font-style="normal" font-weight="normal" text-decoration="normal" x="595" y="259" text-anchor="start" dominant-baseline="alphabetic" fill-opacity="1">H</text><text fill="none" stroke="rgb(255,255,255)" font-family="geogebra-sans-serif, sans-serif" font-size="16px" font-style="normal" font-weight="normal" text-decoration="normal" x="595" y="259" text-anchor="start" dominant-baseline="alphabetic" stroke-opacity="1" stroke-linejoin="bevel" stroke-miterlimit="10" stroke-width="3">H</text><text fill="rgb(77,77,255)" stroke="none" font-family="geogebra-sans-serif, sans-serif" font-size="16px" font-style="normal" font-weight="normal" text-decoration="normal" x="595" y="259" text-anchor="start" dominant-baseline="alphabetic" fill-opacity="1">H</text></g></g></svg>